<?xml version="1.0" encoding="utf-8"?>
<!-- Generator: Adobe Illustrator 23.0.3, SVG Export Plug-In . SVG Version: 6.00 Build 0)  -->
<svg version="1.1" id="Layer_1" xmlns="http://www.w3.org/2000/svg" xmlns:xlink="http://www.w3.org/1999/xlink" x="0px" y="0px"
	 viewBox="0 0 231.74 216.93" style="enable-background:new 0 0 231.74 216.93;" xml:space="preserve">
<style type="text/css">
	.st0{fill:#FFFFFF;}
	.st1{opacity:0.84;fill:#0092CA;}
	.st2{fill:none;}
	.st3{fill:#005375;}
	.st4{fill:#014655;}
</style>
<rect class="st1" width="231.74" height="216.93"/>
<g>
	<path class="st0" d="M71.4,176.24c1.9,0,3.38,0.57,4.44,1.72c1.06,1.15,1.39,2.55,0.99,4.2c-0.35,1.58-1.29,2.94-2.81,4.09
		c-1.49,1.13-3.17,1.75-5.04,1.87h1.36c1.87,0,3.34,0.67,4.42,2c1.08,1.28,1.39,2.87,0.94,4.75c-0.4,1.86-1.44,3.44-3.12,4.73
		c-1.69,1.32-3.47,1.98-5.34,1.98h-15.9l0.17-0.7c2.15,0.03,3.46-1.03,3.92-3.15l4.07-17.61c0.49-2.09-0.34-3.15-2.48-3.19l0.17-0.7
		H71.4z M59.83,198.12c-0.17,0.75-0.04,1.39,0.4,1.94c0.48,0.55,1.34,0.83,2.59,0.83c1.8,0,3.51-0.55,5.14-1.65
		c1.65-1.1,2.69-2.6,3.12-4.49c0.4-1.8,0.29-3.26-0.35-4.4c-0.61-1.16-1.71-1.74-3.28-1.74h-5.43L59.83,198.12z M62.19,187.87h3.63
		c1.58,0,2.93-0.51,4.05-1.54c1.15-1.05,1.9-2.35,2.26-3.89c0.4-1.59,0.25-2.88-0.46-3.87c-0.66-1.04-1.78-1.56-3.36-1.56h-3.63
		L62.19,187.87z"/>
	<path class="st0" d="M91.08,184.53c1.03,0.7,1.52,1.69,1.47,2.99c-0.02,1.14-0.42,2.18-1.19,3.12c-0.71,0.92-1.67,1.68-2.88,2.27
		c-1.15,0.58-2.38,1.03-3.7,1.38c-1.27,0.32-2.6,0.53-4,0.64c-0.26,3.48,0.67,5.41,2.77,5.78c1.52,0.24,2.93-0.15,4.25-1.17
		c1.5-1.13,2.78-2.76,3.83-4.92h0.79c-1.09,2.38-2.4,4.2-3.94,5.45c-1.56,1.24-3.41,1.85-5.54,1.85c-2.46,0-4.3-0.85-5.52-2.55
		c-1.14-1.65-1.46-3.75-0.95-6.31c0.48-2.48,1.77-4.69,3.89-6.62c0.99-0.86,2.11-1.55,3.36-2.07c1.27-0.53,2.47-0.8,3.59-0.83
		C88.84,183.5,90.1,183.83,91.08,184.53z M83.05,187.78c-1.22,1.98-1.97,4.1-2.24,6.35c1.61-0.13,3.03-0.44,4.24-0.92
		c1.21-0.48,2.18-1.3,2.9-2.46c0.92-1.55,1.21-3.04,0.88-4.48c-0.29-1.25-0.95-1.81-1.98-1.69
		C85.56,184.69,84.29,185.76,83.05,187.78z"/>
	<path class="st0" d="M98.31,200.08c-0.34-0.37-0.86-0.55-1.56-0.55c-0.84,0-1.66,0.75-2.46,2.24h-0.64l5.56-24.3
		c0.48-2.05-0.1-2.87-1.72-2.46l0.2-0.66l6.91-1.58l-3.34,14.62c1.5-2.64,3.41-3.89,5.7-3.74c1.81,0.1,3.09,0.93,3.85,2.49
		c0.86,1.79,0.97,3.92,0.35,6.42c-0.62,2.71-1.82,4.94-3.59,6.68c-1.79,1.74-3.65,2.6-5.59,2.6
		C100.63,201.84,99.41,201.26,98.31,200.08z M104.28,198.45c1-1.5,1.74-3.18,2.2-5.03c0.42-1.63,0.59-3.34,0.51-5.14
		c-0.11-1.83-0.66-2.84-1.65-3.03c-1.03-0.2-2.05,0.46-3.08,1.96c-0.99,1.53-1.67,3.08-2.04,4.66l-0.83,3.61
		c-0.7,3.34-0.17,5.04,1.6,5.12C102.21,200.65,103.31,199.93,104.28,198.45z"/>
	<path class="st0" d="M115.75,187.94c0.4-1.72,0.35-2.63-0.15-2.73c-0.83-0.18-1.52,1.2-2.07,4.15h-0.88c0.34-4,1.78-5.91,4.31-5.72
		c1.08,0.06,1.93,0.48,2.55,1.25s0.75,1.99,0.39,3.67l-2.04,8.95c-0.39,1.72-0.34,2.63,0.15,2.73c0.83,0.17,1.52-1.21,2.07-4.14
		h0.88c-0.33,4-1.77,5.91-4.31,5.72c-1.08-0.07-1.93-0.49-2.55-1.25c-0.65-0.81-0.78-2.03-0.39-3.67c0.59-2.52,1.04-4.52,1.36-6.02
		L115.75,187.94z M121.67,177.32c0,0.76-0.28,1.42-0.84,1.98c-0.56,0.55-1.23,0.83-2,0.84c-0.77-0.01-1.44-0.29-2-0.84
		c-0.56-0.56-0.84-1.22-0.84-1.98c0-0.77,0.28-1.44,0.84-2c0.56-0.59,1.23-0.87,2-0.84c0.77,0,1.44,0.28,2,0.84
		C121.39,175.89,121.67,176.55,121.67,177.32z"/>
	<path class="st0" d="M136.01,185.43l1.83-7.96c0.49-2.05-0.09-2.87-1.72-2.46l0.2-0.66l6.91-1.58c-2.23,9.6-4.16,17.83-5.8,24.7
		c-0.4,1.76-0.37,2.7,0.09,2.81c0.84,0.17,1.57-1.23,2.18-4.2h0.88c-0.37,3.99-1.82,5.89-4.37,5.7c-1.06-0.07-1.88-0.53-2.44-1.36
		c-0.55-0.86-0.61-2.03-0.18-3.52c-0.55,1.39-1.38,2.59-2.48,3.58c-1.06,0.95-2.33,1.4-3.8,1.34c-1.79-0.11-3.06-0.95-3.83-2.51
		c-0.84-1.76-0.96-3.89-0.35-6.38c0.66-2.76,1.85-5,3.58-6.69c1.76-1.7,3.63-2.55,5.59-2.55
		C133.72,183.71,134.95,184.29,136.01,185.43z M130.03,187.04c-0.99,1.48-1.72,3.15-2.2,5.03c-0.39,1.58-0.56,3.29-0.51,5.14
		c0.11,1.83,0.66,2.84,1.65,3.03c1.06,0.18,2.09-0.47,3.08-1.96c0.99-1.54,1.67-3.09,2.04-4.66l0.83-3.61
		c0.73-3.38,0.2-5.08-1.6-5.12C132.16,184.84,131.06,185.56,130.03,187.04z"/>
	<path class="st0" d="M156.65,185.41c0.33,0.4,0.86,0.61,1.6,0.61c0.7-0.01,1.5-0.79,2.42-2.33h0.66l-3.21,13.76
		c-0.45,1.72-0.44,2.64,0.04,2.75c0.84,0.17,1.58-1.21,2.2-4.15h0.86c-0.33,3.99-1.76,5.89-4.29,5.7c-1.05-0.07-1.87-0.53-2.46-1.36
		c-0.55-0.86-0.62-2.03-0.2-3.52c-0.55,1.39-1.38,2.59-2.48,3.58c-1.06,0.95-2.33,1.4-3.8,1.34c-1.8-0.11-3.07-0.95-3.81-2.53
		c-0.84-1.75-0.97-3.87-0.37-6.36c0.66-2.76,1.85-5,3.58-6.71c1.8-1.71,3.66-2.57,5.59-2.57
		C154.44,183.61,155.67,184.21,156.65,185.41z M150.69,187.04c-1.03,1.63-1.77,3.3-2.22,5.03c-0.4,1.7-0.57,3.41-0.5,5.14
		c0.11,1.83,0.66,2.84,1.65,3.03c1.06,0.2,2.09-0.46,3.08-1.96c0.99-1.53,1.67-3.08,2.04-4.66l0.83-3.61
		c0.73-3.38,0.2-5.08-1.6-5.12C152.81,184.82,151.71,185.54,150.69,187.04z"/>
	<path class="st0" d="M175.55,184.86c0.62,0.54,1.03,1.16,1.21,1.85c0.15,0.55,0.16,1.11,0.04,1.67c-0.17,0.61-0.59,0.94-1.25,0.97
		c-0.77,0.02-1.25-0.31-1.43-1.01c-0.07-0.26-0.1-0.64-0.07-1.16c0.05-0.56,0.04-0.97-0.04-1.23c-0.11-0.44-0.31-0.75-0.61-0.94
		c-0.54-0.33-1.23-0.48-2.09-0.44c-1.68,0.07-2.73,0.66-3.17,1.76c-0.29,0.83-0.23,1.56,0.2,2.18c0.43,0.48,1.39,1.12,2.9,1.93
		c1.68,0.84,2.73,1.46,3.17,1.83c1.47,1.21,1.88,2.85,1.25,4.92c-0.48,1.5-1.47,2.75-2.99,3.74c-0.9,0.6-2.15,0.92-3.72,0.95
		c-1.94,0.04-3.47-0.36-4.57-1.19c-0.7-0.55-1.22-1.17-1.56-1.85c-0.33-0.65-0.46-1.43-0.39-2.35c0.09-0.7,0.33-1.25,0.73-1.65
		c0.34-0.33,0.77-0.5,1.28-0.5c0.43,0.02,0.77,0.18,1.03,0.48c0.26,0.26,0.35,0.66,0.28,1.21c-0.04,0.34-0.22,0.77-0.55,1.28
		c-0.24,0.46-0.38,0.89-0.4,1.28c0,0.49,0.17,0.92,0.5,1.28c0.42,0.44,1.16,0.76,2.22,0.97c1.21,0.21,2.29,0.13,3.25-0.24
		c0.92-0.37,1.53-0.96,1.83-1.78c0.27-0.67,0.26-1.34-0.04-2c-0.16-0.42-0.59-0.84-1.28-1.28c-0.24-0.15-1.09-0.57-2.53-1.28
		c-0.77-0.4-1.46-0.79-2.07-1.16c-1.83-1.25-2.43-2.97-1.78-5.17c0.44-1.36,1.28-2.44,2.53-3.25c1.31-0.86,2.86-1.23,4.66-1.14
		C173.52,183.65,174.67,184.08,175.55,184.86z"/>
</g>
<g>
	<path class="st0" d="M86.44,49.66c-0.36-3.58-0.68-6.76-1.04-10.33c-1.63,0.34-3.08,0.58-4.5,0.95c-7.54,1.96-15.07,3.95-22.6,5.94
		c-1.54,0.41-3.17,0.83-3.7-1.29c-0.47-1.89,0.94-2.43,2.44-2.83c9.62-2.5,19.23-5.04,28.85-7.54c2.42-0.63,3.34,0.13,3.62,2.81
		c0.41,3.99,0.84,7.98,1.28,12.12c9.32,0,18.43,0,27.74,0c0.33-1.44,0.6-2.92,1-4.37c3.26-11.97,15-19.98,26.89-18.39
		c12.93,1.73,22.25,12.23,22.17,24.97c-0.08,12.6-9.33,23.06-21.9,24.55c-2.31,0.27-3.24,0.87-3.51,3.43
		c-2.46,23.16-5.15,46.3-7.66,69.45c-0.27,2.5-1.26,3.39-3.73,3.38c-14.16-0.07-28.33-0.07-42.49-0.01
		c-2.31,0.01-3.36-0.77-3.64-3.18c-2.98-25.8-6.05-51.6-9.11-77.39c-0.75-6.32-1.51-12.63-2.34-18.94c-0.31-2.33,0.55-3.37,2.9-3.34
		C80.06,49.7,83,49.66,86.44,49.66z M137.94,88.32c-3.73,1.21-6.81,2.06-6.72,6.86c0.08,3.98-1.01,7.98-1.56,11.97
		c-0.22,1.63-0.6,3.22-2.72,2.78c-1.86-0.39-1.75-1.86-1.52-3.42c0.69-4.74,1.27-9.5,1.93-14.59c-7.41,1.36-13.82-0.13-20.02-3.57
		c-3.76-2.09-8.07-2.6-12.43-2.05c0,0.76-0.04,1.22,0.01,1.66c1.73,16.21,3.46,32.43,5.2,48.64c0.18,1.71,0.73,3.74-1.72,4.03
		c-2.29,0.28-2.29-1.68-2.47-3.33c-1.69-15.68-3.4-31.35-5.11-47.03c-0.12-1.11-0.26-2.22-0.42-3.54c-1.47,0.32-2.6,0.51-3.71,0.81
		c-3.9,1.06-3.94,1.16-3.47,5.09c2.13,17.79,4.28,35.58,6.33,53.38c0.21,1.78,0.89,2.19,2.54,2.18c12.28-0.05,24.57-0.07,36.85,0.02
		c2.02,0.02,2.49-0.66,2.69-2.57c1.09-10.6,2.36-21.19,3.54-31.78C136.09,105.49,136.99,97.13,137.94,88.32z M94.41,81.49
		c3.53,0.45,6.99,0.51,10.22,1.39c3.24,0.88,6.25,2.6,9.38,3.91c3.94,1.65,8.04,1.51,12.16,0.99c1.45-0.18,2.06-0.94,2.18-2.48
		c0.23-2.85,0.74-5.68,1.12-8.51c0.21-1.59,0.49-3.26,2.61-2.94c2.14,0.32,1.83,2.04,1.62,3.59c-0.34,2.59-0.65,5.19-1,7.94
		c5.23-1.45,5.87-2.2,6.37-6.85c0.44-4.18,0.93-8.36,1.39-12.55c0.43-3.95,0.83-7.9,1.25-11.88c-16.97,0-33.58,0-50.4,0
		c0.94,8.93,1.85,17.64,2.77,26.35C94.13,80.86,94.34,81.26,94.41,81.49z M123.51,49.14c0.94,0,1.89,0,2.85,0
		c5.73,0,11.47,0.04,17.2-0.02c2.33-0.03,3.32,0.93,3.03,3.25c-0.31,2.49-0.57,4.98-0.83,7.48c-0.44,4.06-0.87,8.11-1.31,12.22
		c11.75-0.67,20.35-10.1,19.89-21.43c-0.47-11.43-10.18-20.16-21.92-19.7C132.68,31.32,123.29,40.18,123.51,49.14z M82.31,84.3
		c2.8-0.75,5.11-1.37,7.66-2.06c-1.01-9.43-2.02-18.8-3.03-28.18c-2.89,0-5.44,0-8.22,0C79.92,64.17,81.09,74.07,82.31,84.3z"/>
</g>
</svg>
