<?xml version="1.0" encoding="utf-8"?>
<!-- Generator: Adobe Illustrator 23.0.3, SVG Export Plug-In . SVG Version: 6.00 Build 0)  -->
<svg version="1.1" id="Layer_1" xmlns="http://www.w3.org/2000/svg" xmlns:xlink="http://www.w3.org/1999/xlink" x="0px" y="0px"
	 viewBox="0 0 231.74 216.93" style="enable-background:new 0 0 231.74 216.93;" xml:space="preserve">
<style type="text/css">
	.st0{fill:#FFFFFF;}
	.st1{opacity:0.84;fill:#0092CA;}
	.st2{fill:none;}
	.st3{fill:#005375;}
	.st4{fill:#014655;}
</style>
<rect class="st1" width="231.74" height="216.93"/>
<g>
	<path class="st0" d="M75.86,157.31c1.55,0,2.93,0.27,4.16,0.81c1.27,0.56,2.28,1.31,3.02,2.25c0.78,0.94,1.3,2.03,1.57,3.26
		c0.34,1.28,0.34,2.62,0.01,4.01c-0.57,2.84-2.07,5.28-4.49,7.32c-2.41,2.03-5.02,3.04-7.83,3.04H60.08l0.13-0.57
		c1.76-0.04,2.82-0.9,3.2-2.58l3.32-14.38c0.4-1.71-0.27-2.58-2.02-2.61l0.13-0.57H75.86z M67.28,173.98
		c-0.52,2.25,0.57,3.37,3.26,3.37c1.12,0,2.14-0.15,3.07-0.45c0.97-0.33,1.98-0.93,3.02-1.8c1.05-0.88,1.91-1.94,2.58-3.17
		c0.75-1.3,1.28-2.73,1.6-4.28c0.54-2.7,0.16-4.98-1.12-6.86c-0.6-0.93-1.47-1.63-2.61-2.11c-1.11-0.49-2.3-0.73-3.56-0.73h-2.55
		L67.28,173.98z"/>
	<path class="st0" d="M96.33,164.08c0.84,0.57,1.24,1.38,1.2,2.44c-0.02,0.93-0.34,1.78-0.97,2.54c-0.58,0.75-1.36,1.37-2.35,1.86
		c-0.94,0.47-1.95,0.84-3.02,1.12c-1.04,0.26-2.13,0.43-3.26,0.52c-0.21,2.84,0.54,4.42,2.26,4.72c1.24,0.2,2.4-0.12,3.47-0.96
		c1.23-0.92,2.27-2.26,3.13-4.01h0.64c-0.89,1.95-1.96,3.43-3.22,4.45c-1.28,1.01-2.79,1.51-4.52,1.51c-2.01,0-3.51-0.69-4.51-2.08
		c-0.93-1.35-1.19-3.06-0.78-5.15c0.39-2.03,1.45-3.83,3.17-5.41c0.81-0.7,1.72-1.26,2.74-1.69c1.04-0.43,2.02-0.65,2.93-0.67
		C94.51,163.24,95.53,163.51,96.33,164.08z M89.78,166.73c-1,1.62-1.61,3.34-1.83,5.18c1.32-0.11,2.47-0.36,3.46-0.75
		c0.99-0.39,1.78-1.06,2.37-2.01c0.75-1.27,0.99-2.49,0.72-3.65c-0.24-1.02-0.78-1.48-1.62-1.38
		C91.83,164.22,90.79,165.09,89.78,166.73z"/>
	<path class="st0" d="M101.02,155.77l5.68-1.29l-4.69,20.21c-0.33,1.41-0.3,2.16,0.07,2.26c0.7,0.14,1.3-0.99,1.8-3.4h0.69
		c-0.27,3.25-1.44,4.81-3.5,4.66c-0.93-0.06-1.65-0.4-2.16-1.02c-0.5-0.64-0.6-1.64-0.3-2.99l3.65-15.89
		c0.4-1.68-0.07-2.35-1.41-2.01L101.02,155.77z"/>
	<path class="st0" d="M122.12,167.48c1.02-2.8,2.59-4.19,4.72-4.19c1.35,0,2.37,0.44,3.05,1.32c0.41,0.54,0.62,1.2,0.64,1.98
		c1.02-2.2,2.47-3.29,4.34-3.29c1.34,0,2.35,0.44,3.04,1.32c0.69,0.9,0.84,2.11,0.45,3.64l-1.8,6.71c-0.35,1.44-0.33,2.2,0.06,2.29
		c0.71,0.14,1.32-1,1.83-3.43h0.75c-0.37,3.27-1.59,4.84-3.65,4.7c-0.87-0.06-1.53-0.4-1.99-1.03c-0.44-0.65-0.49-1.65-0.15-2.99
		l1.35-5.44c0.46-1.82,0.55-3.03,0.28-3.65c-0.29-0.68-0.81-0.94-1.57-0.79c-0.93,0.17-1.77,1.08-2.52,2.72
		c-0.87,1.91-1.83,5.47-2.88,10.68h-3.4l2.08-8.95c0.44-1.82,0.52-3.03,0.25-3.65c-0.29-0.69-0.81-0.95-1.57-0.79
		c-0.94,0.18-1.78,1.09-2.53,2.74c-0.87,1.92-1.83,5.47-2.88,10.66h-3.4l2.58-11.16c0.33-1.43,0.3-2.19-0.09-2.28
		c-0.68-0.18-1.27,0.97-1.78,3.46h-0.76c0.44-3.35,1.72-4.93,3.85-4.73C122.25,163.45,122.82,164.85,122.12,167.48z"/>
	<path class="st0" d="M150.9,164.8c0.27,0.33,0.7,0.49,1.3,0.49c0.57-0.01,1.23-0.64,1.98-1.9h0.54l-2.62,11.23
		c-0.37,1.41-0.36,2.16,0.03,2.25c0.69,0.14,1.29-0.99,1.8-3.38h0.7c-0.27,3.25-1.44,4.81-3.5,4.66c-0.86-0.06-1.53-0.43-2.01-1.11
		c-0.45-0.7-0.5-1.66-0.16-2.88c-0.45,1.14-1.12,2.11-2.02,2.92c-0.87,0.78-1.9,1.14-3.1,1.09c-1.47-0.09-2.51-0.78-3.11-2.07
		c-0.69-1.43-0.79-3.16-0.3-5.2c0.54-2.26,1.51-4.08,2.92-5.48c1.47-1.4,2.99-2.1,4.57-2.1C149.1,163.33,150.1,163.82,150.9,164.8z
		 M146.03,166.13c-0.84,1.33-1.44,2.7-1.81,4.1c-0.33,1.39-0.46,2.78-0.4,4.19c0.09,1.5,0.54,2.32,1.35,2.47
		c0.87,0.16,1.71-0.37,2.52-1.6c0.81-1.25,1.36-2.52,1.66-3.8l0.67-2.95c0.6-2.76,0.16-4.15-1.3-4.18
		C147.76,164.32,146.87,164.91,146.03,166.13z"/>
	<path class="st0" d="M162.06,166.36c0.6-1.62,1.56-2.57,2.88-2.86c0.76-0.17,1.47-0.12,2.13,0.15c0.7,0.27,1.25,0.68,1.65,1.24
		c0.32,0.45,0.49,0.97,0.52,1.57c0.03,0.51-0.07,0.89-0.3,1.15c-0.24,0.26-0.59,0.37-1.05,0.34c-0.35-0.07-0.63-0.25-0.84-0.55
		c-0.13-0.2-0.28-0.55-0.46-1.05c-0.18-0.62-0.34-1.03-0.49-1.23c-0.27-0.36-0.6-0.54-1-0.54c-0.62,0-1.18,0.29-1.68,0.87
		c-0.56,0.68-1.13,2.29-1.71,4.82l-1.8,7.73h-3.47l2.52-11.04c0.34-1.41,0.33-2.16-0.03-2.25c-0.68-0.16-1.29,0.97-1.83,3.4h-0.72
		c0.4-3.15,1.59-4.72,3.56-4.69C161.43,163.44,162.14,164.41,162.06,166.36z"/>
	<path class="st0" d="M47.81,191.9c0.27,0.33,0.7,0.49,1.3,0.49c0.57-0.01,1.23-0.64,1.98-1.9h0.54l-2.62,11.23
		c-0.37,1.41-0.36,2.16,0.03,2.25c0.69,0.14,1.29-0.99,1.8-3.38h0.7c-0.27,3.25-1.44,4.81-3.5,4.66c-0.86-0.06-1.53-0.43-2.01-1.11
		c-0.45-0.7-0.5-1.66-0.16-2.88c-0.45,1.14-1.12,2.11-2.02,2.92c-0.87,0.78-1.9,1.14-3.1,1.09c-1.47-0.09-2.51-0.78-3.11-2.07
		c-0.69-1.43-0.79-3.16-0.3-5.2c0.54-2.26,1.51-4.08,2.92-5.48c1.47-1.4,2.99-2.1,4.57-2.1C46.01,190.44,47.01,190.92,47.81,191.9z
		 M42.94,193.24c-0.84,1.33-1.44,2.7-1.81,4.1c-0.33,1.39-0.46,2.78-0.4,4.19c0.09,1.5,0.54,2.32,1.35,2.47
		c0.87,0.16,1.71-0.37,2.52-1.6c0.81-1.25,1.36-2.52,1.66-3.8l0.67-2.95c0.6-2.76,0.16-4.15-1.3-4.18
		C44.68,191.42,43.78,192.01,42.94,193.24z"/>
	<path class="st0" d="M55.12,182.87l5.68-1.29l-4.69,20.21c-0.33,1.41-0.3,2.16,0.07,2.26c0.7,0.14,1.3-0.99,1.8-3.4h0.69
		c-0.27,3.25-1.44,4.81-3.5,4.66c-0.93-0.06-1.65-0.4-2.16-1.02c-0.5-0.64-0.6-1.64-0.3-2.99l3.65-15.89
		c0.4-1.68-0.07-2.35-1.41-2.01L55.12,182.87z"/>
	<path class="st0" d="M81.49,191.92l1.5-6.5c0.4-1.68-0.07-2.35-1.41-2.01l0.16-0.54l5.65-1.29c-1.82,7.84-3.39,14.56-4.73,20.17
		c-0.33,1.44-0.3,2.2,0.07,2.29c0.69,0.14,1.28-1,1.78-3.43h0.72c-0.3,3.25-1.49,4.81-3.56,4.66c-0.87-0.06-1.53-0.43-1.99-1.11
		c-0.45-0.7-0.5-1.66-0.15-2.88c-0.45,1.14-1.12,2.11-2.02,2.92c-0.87,0.78-1.9,1.14-3.1,1.09c-1.46-0.09-2.5-0.77-3.13-2.05
		c-0.69-1.44-0.78-3.17-0.28-5.21c0.54-2.26,1.51-4.08,2.92-5.47c1.44-1.39,2.96-2.08,4.57-2.08
		C79.62,190.52,80.62,190.99,81.49,191.92z M76.61,193.24c-0.81,1.21-1.41,2.58-1.8,4.1c-0.32,1.29-0.46,2.68-0.42,4.19
		c0.09,1.5,0.54,2.32,1.35,2.47c0.87,0.15,1.71-0.38,2.52-1.6c0.81-1.26,1.36-2.53,1.66-3.8l0.67-2.95c0.6-2.76,0.16-4.15-1.3-4.18
		C78.34,191.44,77.44,192.03,76.61,193.24z"/>
	<path class="st0" d="M99.29,191.18c0.84,0.57,1.24,1.38,1.2,2.44c-0.02,0.93-0.34,1.78-0.97,2.54c-0.58,0.75-1.36,1.37-2.35,1.86
		c-0.94,0.47-1.95,0.84-3.02,1.12c-1.04,0.26-2.13,0.43-3.26,0.52c-0.21,2.84,0.54,4.42,2.26,4.72c1.24,0.2,2.4-0.12,3.47-0.96
		c1.23-0.92,2.27-2.26,3.13-4.01h0.64c-0.89,1.95-1.96,3.43-3.22,4.45c-1.28,1.01-2.79,1.51-4.52,1.51c-2.01,0-3.51-0.69-4.51-2.08
		c-0.93-1.35-1.19-3.06-0.78-5.15c0.39-2.03,1.45-3.83,3.17-5.41c0.81-0.7,1.72-1.26,2.74-1.69c1.04-0.43,2.02-0.65,2.93-0.67
		C97.46,190.35,98.49,190.62,99.29,191.18z M92.73,193.83c-1,1.62-1.61,3.34-1.83,5.18c1.32-0.11,2.47-0.36,3.46-0.75
		c0.99-0.39,1.78-1.06,2.37-2.01c0.75-1.27,0.99-2.49,0.72-3.65c-0.24-1.02-0.78-1.48-1.62-1.38
		C94.78,191.32,93.75,192.19,92.73,193.83z"/>
	<path class="st0" d="M112.11,191.45c0.51,0.44,0.84,0.94,0.99,1.51c0.12,0.45,0.13,0.9,0.03,1.36c-0.14,0.5-0.48,0.76-1.02,0.79
		c-0.63,0.02-1.02-0.25-1.17-0.82c-0.06-0.21-0.08-0.52-0.06-0.94c0.04-0.46,0.03-0.79-0.03-1c-0.09-0.36-0.25-0.61-0.49-0.76
		c-0.44-0.27-1.01-0.39-1.71-0.36c-1.37,0.06-2.23,0.54-2.59,1.44c-0.24,0.68-0.18,1.27,0.16,1.78c0.35,0.39,1.14,0.91,2.37,1.57
		c1.37,0.69,2.23,1.19,2.59,1.5c1.2,0.99,1.54,2.33,1.02,4.01c-0.39,1.23-1.2,2.25-2.44,3.05c-0.74,0.49-1.75,0.75-3.04,0.78
		c-1.59,0.03-2.83-0.29-3.73-0.97c-0.57-0.45-0.99-0.95-1.27-1.51c-0.27-0.53-0.37-1.17-0.31-1.92c0.07-0.57,0.27-1.02,0.6-1.35
		c0.28-0.27,0.63-0.4,1.05-0.4c0.35,0.02,0.63,0.15,0.84,0.39c0.21,0.21,0.28,0.54,0.22,0.99c-0.03,0.28-0.18,0.63-0.45,1.05
		c-0.2,0.38-0.31,0.73-0.33,1.05c0,0.4,0.13,0.75,0.4,1.05c0.34,0.36,0.94,0.62,1.81,0.79c0.99,0.17,1.87,0.1,2.65-0.2
		c0.75-0.3,1.25-0.78,1.5-1.45c0.22-0.55,0.21-1.09-0.03-1.63c-0.13-0.34-0.48-0.69-1.05-1.05c-0.2-0.12-0.89-0.47-2.07-1.05
		c-0.63-0.33-1.19-0.64-1.69-0.94c-1.5-1.02-1.98-2.43-1.45-4.22c0.36-1.11,1.05-1.99,2.07-2.65c1.07-0.7,2.34-1.01,3.8-0.93
		C110.45,190.47,111.39,190.82,112.11,191.45z"/>
	<path class="st0" d="M124.9,191.9c0.27,0.33,0.7,0.49,1.3,0.49c0.57-0.01,1.23-0.64,1.98-1.9h0.54l-2.62,11.23
		c-0.37,1.41-0.36,2.16,0.03,2.25c0.69,0.14,1.29-0.99,1.8-3.38h0.7c-0.27,3.25-1.44,4.81-3.5,4.66c-0.86-0.06-1.53-0.43-2.01-1.11
		c-0.45-0.7-0.5-1.66-0.16-2.88c-0.45,1.14-1.12,2.11-2.02,2.92c-0.87,0.78-1.9,1.14-3.1,1.09c-1.47-0.09-2.51-0.78-3.11-2.07
		c-0.69-1.43-0.79-3.16-0.3-5.2c0.54-2.26,1.51-4.08,2.92-5.48c1.47-1.4,2.99-2.1,4.57-2.1C123.1,190.44,124.1,190.92,124.9,191.9z
		 M120.03,193.24c-0.84,1.33-1.44,2.7-1.81,4.1c-0.33,1.39-0.46,2.78-0.4,4.19c0.09,1.5,0.54,2.32,1.35,2.47
		c0.87,0.16,1.71-0.37,2.52-1.6c0.81-1.25,1.36-2.52,1.66-3.8l0.67-2.95c0.6-2.76,0.16-4.15-1.3-4.18
		C121.76,191.42,120.87,192.01,120.03,193.24z"/>
	<path class="st0" d="M137.4,193.73l2.11,10.05c2.58-3.75,3.84-6.87,3.8-9.36c-0.02-0.4-0.13-0.8-0.34-1.2
		c-0.07-0.14-0.24-0.37-0.51-0.7c-0.24-0.33-0.39-0.54-0.45-0.64c-0.12-0.22-0.19-0.43-0.22-0.63c-0.03-0.26,0.04-0.49,0.22-0.7
		c0.21-0.24,0.47-0.34,0.78-0.31c0.39,0.02,0.7,0.17,0.94,0.45c0.22,0.26,0.39,0.65,0.51,1.17c0.22,0.99,0.24,2.07,0.06,3.23
		c-0.44,2.9-1.81,6.02-4.1,9.36c-2.25,3.32-4.68,5.72-7.29,7.19c-1.02,0.6-2.04,0.96-3.05,1.08c-0.56,0.03-1,0.01-1.33-0.07
		c-0.39-0.15-0.63-0.39-0.73-0.72c-0.06-0.28-0.04-0.54,0.04-0.79c0.14-0.29,0.37-0.46,0.69-0.52c0.42-0.06,0.88,0.01,1.38,0.22
		c0.42,0.15,0.7,0.23,0.85,0.25c0.45,0.04,0.85-0.01,1.2-0.15c1.53-0.56,3.22-1.87,5.08-3.94l-2.77-13.03
		c-0.27-1.49-0.66-2.25-1.18-2.28c-0.86-0.06-1.66,1.13-2.41,3.56h-0.81c0.87-3.27,2.19-4.94,3.95-5.02
		C135.69,190.14,136.89,191.3,137.4,193.73z"/>
	<path class="st0" d="M154.8,201.17c-1.27,2.78-2.99,4.18-5.18,4.18c-1.29,0-2.28-0.44-2.98-1.33c-0.68-0.89-0.83-2.08-0.45-3.58
		l1.71-6.48c0.38-1.44,0.37-2.2-0.03-2.28c-0.69-0.12-1.3,1.08-1.84,3.59l-0.7-0.16c0.39-3.26,1.6-4.82,3.64-4.67
		c0.89,0.06,1.54,0.4,1.96,1.02c0.45,0.63,0.49,1.62,0.13,2.96l-1.35,5.23c-0.45,1.77-0.52,2.98-0.22,3.64
		c0.27,0.63,0.78,0.87,1.53,0.73c0.99-0.21,1.95-1.13,2.88-2.77c1.04-1.84,2.02-5.33,2.95-10.48h3.4l-2.56,11.07
		c-0.33,1.41-0.31,2.16,0.04,2.25c0.68,0.15,1.29-0.98,1.83-3.4h0.72c-0.42,3.31-1.69,4.87-3.82,4.67
		C154.68,205.19,154.13,203.8,154.8,201.17z"/>
	<path class="st0" d="M166.68,194.61c1.3-2.82,3.04-4.22,5.23-4.22c1.33,0,2.33,0.45,3.01,1.35c0.69,0.87,0.84,2.07,0.45,3.61
		l-1.74,6.71c-0.38,1.46-0.37,2.23,0.03,2.31c0.7,0.14,1.31-1.01,1.83-3.46h0.75c-0.38,3.28-1.6,4.85-3.67,4.7
		c-0.87-0.06-1.53-0.4-1.99-1.02c-0.42-0.65-0.46-1.65-0.13-2.99l1.38-5.44c0.48-1.8,0.55-3.02,0.22-3.67
		c-0.27-0.65-0.78-0.9-1.54-0.75c-0.99,0.19-1.95,1.12-2.89,2.8c-1.05,1.84-2.04,5.36-2.98,10.57h-3.43l2.58-11.16
		c0.34-1.43,0.32-2.19-0.04-2.28c-0.66-0.17-1.27,0.97-1.84,3.43h-0.72c0.42-3.35,1.7-4.93,3.85-4.72
		C166.81,190.54,167.36,191.95,166.68,194.61z"/>
	<path class="st0" d="M191.29,192.32c0.99,1.38,1.26,3.16,0.82,5.35c-0.39,2.13-1.42,3.95-3.1,5.48c-1.65,1.5-3.46,2.27-5.44,2.31
		c-1.95,0.03-3.46-0.65-4.54-2.05c-1.06-1.41-1.4-3.14-1.02-5.21c0.42-2.18,1.42-4.01,3.01-5.51c1.62-1.5,3.48-2.27,5.6-2.31
		C188.81,190.34,190.36,190.98,191.29,192.32z M183.63,193.15c-0.86,1.35-1.48,3-1.87,4.96c-0.36,1.88-0.34,3.46,0.04,4.75
		c0.4,1.27,1.05,1.9,1.95,1.9c0.93,0,1.85-0.68,2.77-2.04c0.91-1.32,1.54-2.96,1.9-4.94c0.36-2.01,0.37-3.64,0.04-4.9
		c-0.32-1.23-0.99-1.83-2.01-1.8C185.5,191.1,184.55,191.79,183.63,193.15z"/>
</g>
<g>
	<path class="st0" d="M70.63,21.11c14.69,0.17,27.55,4.01,39.53,10.81c4.5,2.55,8.66,5.71,13.02,8.53c0.47,0.3,1.28,0.48,1.77,0.29
		c13.86-5.21,29.81,3.52,33.02,18.1c1.51,6.86,0.19,13.2-3.42,19.13c-0.41,0.68-0.52,1.2-0.17,1.98c2.72,6.09,5.11,12.29,5.09,19.11
		c0,1.08,0.75,1.1,1.42,1.29c7.71,2.15,15.42,4.28,23.13,6.44c4.38,1.23,5.54,5.59,2.35,8.79c-10.68,10.69-21.37,21.38-32.06,32.06
		c-3.25,3.24-7.31,2.14-8.55-2.32c-2.14-7.66-4.28-15.32-6.37-23c-0.27-1.01-0.62-1.43-1.73-1.41c-5.49,0.07-10.49-1.95-15.35-4.11
		c-3.15-1.4-5.56-1.35-8.79,0.2c-17.5,8.41-37.1-5.34-35.5-24.72c0.17-2.06,0.7-4.11,1.28-6.09c0.27-0.91,0.24-1.48-0.33-2.21
		c-4.84-6.18-8.88-12.85-12.08-20.03c-4.56-10.23-7.23-20.89-7.15-32.15c0.01-1.89,0.15-3.79,0.33-5.67
		c0.31-3.19,1.46-4.33,4.69-4.63C66.99,21.28,69.22,21.19,70.63,21.11z M83.03,74.79c1.27,1.6,2.42,3.05,3.57,4.48
		c11.29,13.96,24.86,24.75,42.17,30.4c3.42,1.11,6.82,1.84,10.43,1.56c5.69-0.44,9.85-3.96,10.8-9.34c0.5-2.82,0.14-5.61-0.7-8.34
		c-5.45-17.85-15.98-32.21-30.26-43.98c-1.96-1.62-4.04-3.08-6.14-4.67C105.68,57.71,95.8,67.57,83.03,74.79z M69.02,30.46
		c-0.33,13.02,3.2,24.78,9.35,35.93c11.48-6.39,20.27-15.17,26.6-26.61C93.73,33.63,81.98,30.07,69.02,30.46z M152.44,135.46
		c7.24-7.24,14.42-14.43,21.6-21.6c-5.25-1.42-10.66-2.91-16.09-4.33c-0.31-0.08-0.95,0.24-1.09,0.54
		c-1.75,3.72-4.58,6.32-8.18,8.19c-0.32,0.17-0.63,0.88-0.54,1.23C149.54,124.87,151.02,130.24,152.44,135.46z M86.97,93.66
		c-0.88,5.52,2.82,12,8.31,14.82c3.93,2.01,9.64,2.41,11.35,0.7C99.44,104.86,92.97,99.64,86.97,93.66z M133.03,48.74
		c6.08,6.03,11.18,12.47,15.64,19.7C151.37,57.97,143.29,48.4,133.03,48.74z"/>
	<path class="st0" d="M94.69,42.15c-0.01,2.52-2.13,4.62-4.65,4.63c-2.59,0-4.71-2.16-4.67-4.76c0.04-2.47,2.24-4.6,4.73-4.57
		C92.57,37.49,94.7,39.66,94.69,42.15z"/>
</g>
</svg>
