<?xml version="1.0" encoding="utf-8"?>
<!-- Generator: Adobe Illustrator 23.0.3, SVG Export Plug-In . SVG Version: 6.00 Build 0)  -->
<svg version="1.1" id="Layer_1" xmlns="http://www.w3.org/2000/svg" xmlns:xlink="http://www.w3.org/1999/xlink" x="0px" y="0px"
	 viewBox="0 0 231.74 216.93" style="enable-background:new 0 0 231.74 216.93;" xml:space="preserve">
<style type="text/css">
	.st0{fill:#FFFFFF;}
	.st1{opacity:0.84;fill:#0092CA;}
	.st2{fill:none;}
	.st3{fill:#005375;}
	.st4{fill:#014655;}
</style>
<rect x="0" y="0" class="st1" width="231.74" height="216.93"/>
<g>
	<path class="st0" d="M41.1,173.27c2.11,0,4.01,0.37,5.68,1.1c1.73,0.76,3.11,1.79,4.13,3.07c1.06,1.28,1.78,2.77,2.15,4.46
		c0.46,1.74,0.47,3.57,0.02,5.48c-0.78,3.87-2.82,7.2-6.13,10c-3.28,2.77-6.85,4.15-10.69,4.15h-16.7l0.18-0.78
		c2.4-0.05,3.86-1.23,4.37-3.52l4.54-19.62c0.54-2.33-0.38-3.52-2.76-3.56l0.18-0.78H41.1z M29.39,196.02
		c-0.71,3.07,0.78,4.6,4.46,4.6c1.53,0,2.92-0.2,4.19-0.61c1.32-0.45,2.7-1.27,4.13-2.45c1.43-1.2,2.6-2.64,3.52-4.33
		c1.02-1.77,1.75-3.72,2.19-5.85c0.74-3.68,0.22-6.8-1.53-9.36c-0.82-1.27-2-2.23-3.56-2.88c-1.51-0.67-3.13-1-4.86-1h-3.48
		L29.39,196.02z"/>
	<path class="st0" d="M69.05,182.51c1.14,0.78,1.69,1.89,1.64,3.33c-0.03,1.27-0.47,2.43-1.33,3.47c-0.79,1.02-1.86,1.87-3.21,2.53
		c-1.28,0.64-2.66,1.15-4.13,1.53c-1.42,0.35-2.9,0.59-4.46,0.72c-0.29,3.88,0.74,6.03,3.09,6.44c1.69,0.27,3.27-0.16,4.74-1.31
		c1.68-1.25,3.1-3.08,4.27-5.48h0.88c-1.21,2.66-2.68,4.68-4.39,6.07c-1.74,1.38-3.8,2.06-6.17,2.06c-2.74,0-4.79-0.95-6.15-2.84
		c-1.27-1.84-1.62-4.18-1.06-7.03c0.53-2.77,1.98-5.23,4.33-7.38c1.1-0.95,2.35-1.72,3.74-2.31c1.42-0.59,2.75-0.89,4.01-0.92
		C66.55,181.37,67.96,181.73,69.05,182.51z M60.09,186.13c-1.36,2.21-2.19,4.57-2.49,7.07c1.8-0.15,3.37-0.49,4.72-1.02
		c1.35-0.53,2.43-1.44,3.23-2.74c1.02-1.73,1.35-3.39,0.98-4.99c-0.33-1.39-1.06-2.02-2.21-1.88
		C62.89,182.69,61.48,183.88,60.09,186.13z"/>
	<path class="st0" d="M86.54,182.88c0.69,0.6,1.14,1.29,1.35,2.06c0.16,0.61,0.18,1.23,0.04,1.86c-0.19,0.68-0.65,1.04-1.39,1.08
		c-0.86,0.03-1.39-0.35-1.59-1.12c-0.08-0.29-0.11-0.72-0.08-1.29c0.05-0.63,0.04-1.08-0.04-1.37c-0.12-0.49-0.35-0.84-0.67-1.04
		c-0.6-0.37-1.38-0.53-2.33-0.49c-1.87,0.08-3.05,0.74-3.54,1.96c-0.33,0.93-0.25,1.74,0.22,2.43c0.48,0.53,1.55,1.25,3.23,2.15
		c1.87,0.94,3.05,1.62,3.54,2.04c1.64,1.35,2.1,3.18,1.39,5.48c-0.53,1.68-1.64,3.07-3.33,4.17c-1.01,0.67-2.39,1.02-4.15,1.06
		c-2.17,0.04-3.86-0.4-5.09-1.33c-0.78-0.61-1.36-1.3-1.74-2.06c-0.37-0.72-0.51-1.59-0.43-2.62c0.1-0.78,0.37-1.39,0.82-1.84
		c0.38-0.37,0.86-0.55,1.43-0.55c0.48,0.03,0.86,0.2,1.14,0.53c0.29,0.29,0.39,0.74,0.31,1.35c-0.04,0.38-0.25,0.86-0.61,1.43
		c-0.27,0.52-0.42,0.99-0.45,1.43c0,0.55,0.18,1.02,0.55,1.43c0.46,0.49,1.29,0.85,2.47,1.08c1.35,0.23,2.56,0.14,3.62-0.27
		c1.02-0.41,1.7-1.07,2.04-1.98c0.3-0.75,0.29-1.49-0.04-2.23c-0.18-0.46-0.65-0.94-1.43-1.43c-0.27-0.16-1.21-0.64-2.82-1.43
		c-0.86-0.45-1.63-0.88-2.31-1.29c-2.04-1.39-2.71-3.31-1.98-5.76c0.49-1.51,1.43-2.72,2.82-3.62c1.46-0.95,3.19-1.38,5.19-1.27
		C84.27,181.53,85.56,182.01,86.54,182.88z"/>
	<path class="st0" d="M104,183.49c0.37,0.45,0.96,0.67,1.78,0.67c0.78-0.01,1.68-0.88,2.7-2.6h0.74l-3.58,15.33
		c-0.5,1.92-0.49,2.94,0.04,3.07c0.94,0.19,1.76-1.35,2.45-4.62h0.96c-0.37,4.44-1.96,6.56-4.78,6.36
		c-1.17-0.08-2.08-0.59-2.74-1.51c-0.61-0.95-0.69-2.26-0.22-3.92c-0.61,1.55-1.53,2.88-2.76,3.99c-1.19,1.06-2.6,1.56-4.23,1.49
		c-2-0.12-3.42-1.06-4.25-2.82c-0.94-1.95-1.08-4.31-0.41-7.09c0.74-3.08,2.06-5.57,3.99-7.48c2-1.91,4.08-2.86,6.23-2.86
		C101.55,181.49,102.91,182.16,104,183.49z M97.36,185.31c-1.14,1.81-1.97,3.68-2.47,5.6c-0.45,1.89-0.63,3.8-0.55,5.72
		c0.12,2.04,0.74,3.17,1.84,3.37c1.19,0.22,2.33-0.51,3.43-2.19c1.1-1.7,1.86-3.43,2.27-5.19l0.92-4.03
		c0.82-3.76,0.22-5.66-1.78-5.7C99.72,182.83,98.5,183.63,97.36,185.31z"/>
	<path class="st0" d="M121.07,185.99l2.88,13.72c3.52-5.12,5.25-9.38,5.19-12.78c-0.03-0.54-0.18-1.09-0.47-1.64
		c-0.1-0.19-0.33-0.51-0.7-0.96c-0.33-0.45-0.53-0.74-0.61-0.88c-0.16-0.3-0.27-0.59-0.31-0.86c-0.04-0.35,0.06-0.67,0.31-0.96
		c0.29-0.33,0.64-0.47,1.06-0.43c0.53,0.03,0.96,0.23,1.29,0.61c0.3,0.35,0.53,0.89,0.7,1.59c0.3,1.35,0.33,2.82,0.08,4.41
		c-0.6,3.97-2.47,8.22-5.6,12.78c-3.07,4.54-6.38,7.81-9.95,9.81c-1.39,0.82-2.78,1.31-4.17,1.47c-0.76,0.04-1.37,0.01-1.82-0.1
		c-0.53-0.2-0.87-0.53-1-0.98c-0.08-0.38-0.06-0.74,0.06-1.08c0.19-0.4,0.5-0.63,0.94-0.72c0.57-0.08,1.2,0.02,1.88,0.31
		c0.57,0.2,0.96,0.32,1.17,0.35c0.61,0.05,1.16-0.01,1.64-0.2c2.08-0.76,4.39-2.56,6.93-5.38l-3.78-17.78
		c-0.37-2.03-0.91-3.07-1.61-3.11c-1.17-0.08-2.27,1.54-3.29,4.86h-1.1c1.19-4.46,2.98-6.74,5.4-6.85
		C118.74,181.08,120.37,182.67,121.07,185.99z"/>
	<path class="st0" d="M144.82,196.14c-1.73,3.8-4.09,5.7-7.07,5.7c-1.76,0-3.11-0.61-4.07-1.82c-0.93-1.21-1.13-2.84-0.61-4.89
		l2.33-8.85c0.52-1.96,0.5-3-0.04-3.11c-0.94-0.16-1.78,1.47-2.51,4.91l-0.96-0.22c0.53-4.46,2.19-6.58,4.97-6.38
		c1.21,0.08,2.11,0.55,2.68,1.39c0.61,0.86,0.67,2.21,0.18,4.05l-1.84,7.13c-0.61,2.41-0.72,4.07-0.31,4.97
		c0.37,0.86,1.06,1.19,2.08,1c1.35-0.29,2.66-1.55,3.92-3.78c1.42-2.51,2.76-7.28,4.03-14.31h4.64l-3.5,15.11
		c-0.45,1.92-0.43,2.94,0.06,3.07c0.93,0.2,1.76-1.34,2.49-4.64h0.98c-0.57,4.52-2.31,6.65-5.21,6.38
		C144.66,201.63,143.91,199.73,144.82,196.14z"/>
	<path class="st0" d="M161.03,187.19c1.77-3.84,4.15-5.76,7.13-5.76c1.81,0,3.18,0.61,4.11,1.84c0.94,1.19,1.14,2.83,0.61,4.93
		l-2.37,9.16c-0.52,1.99-0.5,3.04,0.04,3.15c0.95,0.19,1.79-1.38,2.49-4.72h1.02c-0.52,4.48-2.19,6.62-5.01,6.42
		c-1.19-0.08-2.09-0.55-2.72-1.39c-0.57-0.89-0.63-2.25-0.18-4.09l1.88-7.42c0.65-2.45,0.76-4.12,0.31-5.01
		c-0.37-0.89-1.07-1.23-2.11-1.02c-1.35,0.26-2.66,1.53-3.95,3.82c-1.43,2.51-2.79,7.32-4.07,14.43h-4.68l3.52-15.23
		c0.46-1.95,0.44-2.98-0.06-3.11c-0.9-0.23-1.74,1.33-2.51,4.68h-0.98c0.57-4.58,2.32-6.73,5.25-6.44
		C161.21,181.63,161.97,183.55,161.03,187.19z"/>
	<path class="st0" d="M194.63,184.06c1.35,1.88,1.72,4.31,1.12,7.3c-0.53,2.9-1.94,5.4-4.23,7.48c-2.25,2.04-4.72,3.09-7.42,3.15
		c-2.66,0.04-4.72-0.89-6.19-2.8c-1.44-1.92-1.91-4.29-1.39-7.11c0.57-2.97,1.94-5.48,4.11-7.52c2.21-2.04,4.76-3.09,7.64-3.15
		C191.25,181.35,193.37,182.24,194.63,184.06z M184.17,185.19c-1.17,1.84-2.02,4.1-2.56,6.77c-0.49,2.56-0.47,4.72,0.06,6.48
		c0.54,1.73,1.43,2.6,2.66,2.6c1.27,0,2.53-0.93,3.78-2.78c1.24-1.8,2.11-4.05,2.6-6.75c0.49-2.74,0.51-4.97,0.06-6.68
		c-0.44-1.68-1.35-2.49-2.74-2.45C186.72,182.4,185.44,183.34,184.17,185.19z"/>
	<path class="st0" d="M211.89,182.88c0.69,0.6,1.14,1.29,1.35,2.06c0.16,0.61,0.18,1.23,0.04,1.86c-0.19,0.68-0.65,1.04-1.39,1.08
		c-0.86,0.03-1.39-0.35-1.59-1.12c-0.08-0.29-0.11-0.72-0.08-1.29c0.05-0.63,0.04-1.08-0.04-1.37c-0.12-0.49-0.35-0.84-0.67-1.04
		c-0.6-0.37-1.38-0.53-2.33-0.49c-1.87,0.08-3.05,0.74-3.54,1.96c-0.33,0.93-0.25,1.74,0.22,2.43c0.48,0.53,1.55,1.25,3.23,2.15
		c1.87,0.94,3.05,1.62,3.54,2.04c1.64,1.35,2.1,3.18,1.39,5.48c-0.53,1.68-1.64,3.07-3.33,4.17c-1.01,0.67-2.39,1.02-4.15,1.06
		c-2.17,0.04-3.86-0.4-5.09-1.33c-0.78-0.61-1.36-1.3-1.74-2.06c-0.37-0.72-0.51-1.59-0.43-2.62c0.1-0.78,0.37-1.39,0.82-1.84
		c0.38-0.37,0.86-0.55,1.43-0.55c0.48,0.03,0.86,0.2,1.14,0.53c0.29,0.29,0.39,0.74,0.31,1.35c-0.04,0.38-0.25,0.86-0.61,1.43
		c-0.27,0.52-0.42,0.99-0.45,1.43c0,0.55,0.18,1.02,0.55,1.43c0.46,0.49,1.29,0.85,2.47,1.08c1.35,0.23,2.56,0.14,3.62-0.27
		c1.02-0.41,1.7-1.07,2.04-1.98c0.3-0.75,0.29-1.49-0.04-2.23c-0.18-0.46-0.65-0.94-1.43-1.43c-0.27-0.16-1.21-0.64-2.82-1.43
		c-0.86-0.45-1.63-0.88-2.31-1.29c-2.04-1.39-2.71-3.31-1.98-5.76c0.49-1.51,1.43-2.72,2.82-3.62c1.46-0.95,3.19-1.38,5.19-1.27
		C209.62,181.53,210.9,182.01,211.89,182.88z"/>
</g>
<g>
	<path class="st0" d="M50.95,84.41c0.41-1.47,0.83-2.95,1.23-4.43c5.85-21.81,32.78-30.45,50.17-16.1
		c9.08,7.49,19.62,11.79,31.12,13.69c10.9,1.81,19.93,9.75,22.46,20.25c2.6,10.77-1.18,22.48-10.44,28.3
		c-8.51,5.35-14.52,12.71-20.02,20.73c-4.83,7.03-11.38,11.46-19.62,13.51c-19.36,4.81-39.01-9.71-40.28-29.59
		c-0.56-8.66-2.72-16.67-8.3-23.88c-3.12-4.03-4.28-9.58-6.32-14.45C50.95,89.76,50.95,87.09,50.95,84.41z M99.32,152.79
		c1.55-0.15,3.12-0.18,4.64-0.47c7.57-1.42,13.58-5.24,18.03-11.61c4.01-5.75,7.83-11.74,14.04-15.47
		c8.93-5.36,13.46-14.39,11.81-23.88c-1.71-9.83-9.27-17.08-19.62-18.83c-9.63-1.63-18.27-5.39-25.93-11.53
		c-10.29-8.25-25.07-7.45-34.5,1.66c-9.66,9.33-11.2,24.16-3.02,34.64c4.57,5.86,6.47,12.35,6.93,19.45
		C72.66,141.39,84.64,152.71,99.32,152.79z"/>
	<path class="st0" d="M201.56,67.01c-1.43,6.07-4.32,11.32-8.45,16.01c-1.04,1.18-1.5,3.24-1.52,4.91
		c-0.13,10.48-0.06,20.96-0.07,31.44c-0.01,7.83-4.63,12.47-12.47,12.5c-7.36,0.03-14.72-0.03-22.07,0.01
		c-2.34,0.01-4.34-0.29-4.37-3.26c-0.03-2.94,1.94-3.41,4.28-3.41c7.36,0,14.72,0.02,22.08-0.01c4.19-0.02,5.84-1.65,5.85-5.88
		c0.04-11.48-0.08-22.97,0.11-34.45c0.03-1.76,0.91-3.93,2.14-5.19c10.91-11.13,10.41-24.35-1.82-34.05
		c-10.72-8.5-23.31-11.52-36.7-10.41c-6.35,0.53-12.75,2.09-18.79,4.18c-8.33,2.88-14.97,8.24-18.87,16.49
		c-0.97,2.05-2.32,3.82-4.91,2.44c-2.44-1.3-2.06-3.5-1.11-5.53c2.91-6.22,7.33-11.17,13.17-14.75
		c19.88-12.18,40.67-12.83,61.67-3.68c11.25,4.9,19.48,13.17,21.85,25.95C201.56,62.54,201.56,64.77,201.56,67.01z"/>
	<path class="st0" d="M95.24,80.24c11.74,0.13,21.23,9.77,21.13,21.45c-0.11,11.86-9.89,21.5-21.66,21.36
		c-11.95-0.15-21.34-9.77-21.2-21.72C73.64,89.34,83.15,80.11,95.24,80.24z M79.58,101.4c-0.08,8.57,6.89,15.65,15.35,15.62
		c8.31-0.03,15.31-7.05,15.34-15.37c0.03-8.38-6.86-15.32-15.27-15.37C86.51,86.22,79.65,92.94,79.58,101.4z"/>
	<path class="st0" d="M95.65,91.76c1.04,0.2,2.25,0.35,3.42,0.67c2.27,0.61,3.47,2.11,2.81,4.44c-0.64,2.26-2.44,2.61-4.52,2.01
		c-3.07-0.88-5.17,0.27-6.4,3.14c-0.9,2.1-2.06,3.96-4.7,2.62c-2.59-1.32-2.14-3.51-1.18-5.73C87.06,94.36,90.76,92.36,95.65,91.76z
		"/>
</g>
</svg>
