<?xml version="1.0" encoding="utf-8"?>
<!-- Generator: Adobe Illustrator 23.0.3, SVG Export Plug-In . SVG Version: 6.00 Build 0)  -->
<svg version="1.1" id="Layer_1" xmlns="http://www.w3.org/2000/svg" xmlns:xlink="http://www.w3.org/1999/xlink" x="0px" y="0px"
	 viewBox="0 0 231.74 216.93" style="enable-background:new 0 0 231.74 216.93;" xml:space="preserve">
<style type="text/css">
	.st0{fill:#FFFFFF;}
	.st1{opacity:0.84;fill:#0092CA;}
	.st2{fill:none;}
	.st3{fill:#005375;}
	.st4{fill:#014655;}
</style>
<rect x="0" y="0" class="st1" width="231.74" height="216.93"/>
<g>
	<path class="st0" d="M35.47,177.14l-0.86,5.16l-0.6,0.09c0.51-3.06-0.88-4.59-4.17-4.59h-5.5l-2.07,9.01h2.79
		c2.13,0,3.44-1.08,3.93-3.24h0.6l-1.66,7.22h-0.6c0.53-2.2-0.28-3.31-2.43-3.31h-2.79l-1.65,7.1c-0.53,2.41,0.84,3.63,4.11,3.64
		c4.62-0.03,7.46-1.91,8.52-5.64l0.53,0.05l-1.8,6.17h-18.9l0.14-0.6c1.85-0.04,2.97-0.94,3.35-2.7l3.48-15.04
		c0.44-1.85-0.27-2.76-2.12-2.73l0.14-0.6H35.47z"/>
	<path class="st0" d="M47.63,184.5c0.53,0.46,0.88,0.99,1.03,1.58c0.13,0.47,0.14,0.95,0.03,1.43c-0.15,0.52-0.5,0.8-1.07,0.83
		c-0.66,0.02-1.07-0.27-1.22-0.86c-0.06-0.22-0.08-0.55-0.06-0.99c0.04-0.48,0.03-0.83-0.03-1.05c-0.09-0.38-0.27-0.64-0.52-0.8
		c-0.46-0.28-1.06-0.41-1.79-0.38c-1.43,0.06-2.34,0.56-2.71,1.5c-0.25,0.71-0.19,1.33,0.17,1.87c0.37,0.41,1.19,0.96,2.48,1.65
		c1.43,0.72,2.33,1.24,2.71,1.57c1.25,1.03,1.61,2.43,1.07,4.2c-0.41,1.29-1.26,2.35-2.55,3.2c-0.77,0.51-1.83,0.78-3.18,0.81
		c-1.66,0.03-2.96-0.31-3.9-1.02c-0.6-0.47-1.04-1-1.33-1.58c-0.28-0.55-0.39-1.22-0.33-2.01c0.07-0.6,0.28-1.07,0.63-1.41
		c0.29-0.28,0.66-0.42,1.1-0.42c0.37,0.02,0.66,0.16,0.88,0.41c0.22,0.22,0.3,0.56,0.23,1.03c-0.03,0.29-0.19,0.66-0.47,1.1
		c-0.21,0.4-0.32,0.76-0.34,1.1c0,0.42,0.14,0.78,0.42,1.1c0.36,0.38,0.99,0.65,1.9,0.83c1.03,0.18,1.96,0.11,2.77-0.2
		c0.78-0.31,1.31-0.82,1.57-1.52c0.23-0.57,0.22-1.14-0.03-1.71c-0.14-0.36-0.5-0.72-1.1-1.1c-0.21-0.13-0.93-0.49-2.16-1.1
		c-0.66-0.34-1.25-0.67-1.77-0.99c-1.57-1.07-2.07-2.54-1.52-4.42c0.38-1.16,1.1-2.08,2.16-2.77c1.12-0.73,2.44-1.06,3.98-0.97
		C45.89,183.47,46.88,183.83,47.63,184.5z"/>
	<path class="st0" d="M59.75,178.16c-1.16,5.11-1.82,8.01-1.97,8.71c1.13-2.23,2.65-3.38,4.56-3.46h0.49
		c1.61,0.08,2.71,0.8,3.31,2.15c0.74,1.54,0.85,3.38,0.31,5.55c-0.53,2.35-1.57,4.27-3.1,5.77c-1.54,1.47-3.15,2.21-4.84,2.23
		c-1.19-0.03-2.25-0.54-3.17-1.52l-1.38,5.84c-0.41,1.74,0.03,2.82,1.32,3.23l-0.14,0.55c-1.76,0-4.34,0-7.76,0l0.14-0.55
		c1.43-0.37,2.35-1.44,2.76-3.23l4.67-20.26c-1.03,2.03-2.59,3.46-4.65,4.29l-0.22-0.71c1.36-0.63,2.59-1.68,3.68-3.15
		c1.1-1.48,1.88-3.3,2.34-5.44H59.75z M60.51,196.22c0.88-1.32,1.52-2.77,1.93-4.37c0.36-1.41,0.5-2.9,0.44-4.48
		c-0.09-1.6-0.57-2.48-1.43-2.63c-0.91-0.16-1.81,0.41-2.7,1.71c-0.85,1.35-1.44,2.7-1.77,4.06l-0.72,3.15
		c-0.61,2.93-0.14,4.41,1.39,4.45C58.69,198.14,59.65,197.51,60.51,196.22z"/>
	<path class="st0" d="M81.18,184.22c0.88,0.6,1.3,1.45,1.25,2.55c-0.02,0.97-0.36,1.86-1.02,2.66c-0.61,0.78-1.43,1.43-2.46,1.94
		c-0.98,0.49-2.04,0.88-3.17,1.18c-1.09,0.27-2.23,0.45-3.42,0.55c-0.22,2.98,0.57,4.62,2.37,4.94c1.3,0.21,2.51-0.13,3.64-1
		c1.28-0.96,2.38-2.36,3.28-4.2h0.67c-0.93,2.04-2.05,3.59-3.37,4.65c-1.34,1.06-2.91,1.58-4.73,1.58c-2.1,0-3.67-0.73-4.72-2.18
		c-0.97-1.41-1.24-3.21-0.81-5.39c0.41-2.12,1.51-4.01,3.32-5.66c0.85-0.73,1.8-1.32,2.87-1.77c1.09-0.45,2.11-0.68,3.07-0.7
		C79.27,183.34,80.35,183.63,81.18,184.22z M74.32,186.99c-1.04,1.69-1.68,3.5-1.91,5.42c1.38-0.11,2.59-0.38,3.62-0.78
		c1.03-0.41,1.86-1.11,2.48-2.1c0.78-1.33,1.03-2.6,0.75-3.82c-0.25-1.07-0.81-1.55-1.69-1.44
		C76.47,184.36,75.38,185.27,74.32,186.99z"/>
	<path class="st0" d="M95.76,184c0.69,0.34,1.19,0.81,1.49,1.41c0.38,0.61,0.52,1.27,0.42,2.01c-0.08,0.59-0.28,1.08-0.6,1.49
		c-0.33,0.41-0.73,0.63-1.19,0.66c-0.34,0.03-0.65-0.07-0.92-0.31c-0.22-0.28-0.31-0.59-0.27-0.92c0.03-0.22,0.12-0.47,0.27-0.75
		c0.36-0.65,0.55-1.18,0.58-1.58c0.06-0.41-0.05-0.78-0.33-1.13c-0.45-0.56-1.16-0.77-2.13-0.61c-0.97,0.1-1.89,0.59-2.74,1.44
		c-0.81,0.85-1.45,1.73-1.9,2.65c-0.41,0.91-0.7,1.79-0.89,2.63c-0.85,4.29-0.16,6.63,2.05,7.02c1.28,0.21,2.49-0.14,3.6-1.03
		c1.3-0.99,2.39-2.38,3.29-4.17h0.69c-0.91,2.02-2.04,3.56-3.4,4.62c-1.35,1.07-2.91,1.6-4.7,1.61c-2.1,0-3.67-0.72-4.7-2.16
		c-0.94-1.41-1.21-3.22-0.81-5.42c0.42-2.18,1.53-4.07,3.32-5.67c1.72-1.56,3.71-2.35,5.97-2.38
		C94.02,183.39,94.98,183.59,95.76,184z"/>
	<path class="st0" d="M101.29,187.14c0.34-1.47,0.3-2.25-0.13-2.34c-0.71-0.16-1.3,1.02-1.77,3.54h-0.75
		c0.29-3.42,1.52-5.05,3.68-4.89c0.92,0.05,1.65,0.41,2.18,1.07s0.64,1.7,0.33,3.13l-1.74,7.65c-0.33,1.47-0.29,2.25,0.13,2.34
		c0.71,0.15,1.3-1.03,1.77-3.54h0.75c-0.28,3.42-1.51,5.05-3.68,4.89c-0.92-0.06-1.65-0.42-2.18-1.07
		c-0.55-0.69-0.66-1.73-0.33-3.13c0.5-2.15,0.89-3.87,1.16-5.14L101.29,187.14z M106.35,178.06c0,0.65-0.24,1.21-0.72,1.69
		c-0.48,0.47-1.05,0.71-1.71,0.72c-0.66-0.01-1.23-0.25-1.71-0.72c-0.48-0.48-0.72-1.04-0.72-1.69c0-0.66,0.24-1.23,0.72-1.71
		c0.48-0.5,1.05-0.74,1.71-0.72c0.66,0,1.23,0.24,1.71,0.72C106.11,176.83,106.35,177.4,106.35,178.06z"/>
	<path class="st0" d="M118.59,184.97c0.28,0.34,0.74,0.52,1.36,0.52c0.6-0.01,1.28-0.67,2.07-1.99h0.56l-2.74,11.75
		c-0.39,1.47-0.38,2.26,0.03,2.35c0.72,0.15,1.35-1.03,1.88-3.54h0.74c-0.28,3.41-1.5,5.03-3.67,4.87c-0.9-0.06-1.6-0.45-2.1-1.16
		c-0.47-0.73-0.53-1.73-0.17-3.01c-0.47,1.19-1.17,2.21-2.12,3.06c-0.91,0.81-1.99,1.2-3.24,1.14c-1.54-0.09-2.62-0.81-3.26-2.16
		c-0.72-1.49-0.83-3.31-0.31-5.44c0.56-2.36,1.58-4.27,3.06-5.74c1.54-1.46,3.13-2.19,4.78-2.19
		C116.71,183.44,117.75,183.95,118.59,184.97z M113.5,186.37c-0.88,1.39-1.51,2.82-1.9,4.29c-0.34,1.45-0.49,2.91-0.42,4.39
		c0.09,1.57,0.56,2.43,1.41,2.59c0.91,0.17,1.79-0.39,2.63-1.68c0.85-1.31,1.43-2.63,1.74-3.98l0.71-3.09
		c0.63-2.88,0.17-4.34-1.36-4.37C115.31,184.47,114.37,185.08,113.5,186.37z"/>
	<path class="st0" d="M126.24,175.52l5.94-1.35l-4.91,21.16c-0.34,1.47-0.32,2.26,0.08,2.37c0.73,0.15,1.36-1.04,1.88-3.56h0.72
		c-0.28,3.41-1.5,5.03-3.67,4.87c-0.97-0.06-1.72-0.42-2.26-1.07c-0.52-0.67-0.63-1.71-0.31-3.13l3.82-16.63
		c0.42-1.76-0.07-2.46-1.47-2.1L126.24,175.52z"/>
	<path class="st0" d="M135.76,187.14c0.34-1.47,0.3-2.25-0.13-2.34c-0.71-0.16-1.3,1.02-1.77,3.54h-0.75
		c0.29-3.42,1.52-5.05,3.68-4.89c0.92,0.05,1.65,0.41,2.18,1.07c0.53,0.66,0.64,1.7,0.33,3.13l-1.74,7.65
		c-0.33,1.47-0.29,2.25,0.13,2.34c0.71,0.15,1.3-1.03,1.77-3.54h0.75c-0.28,3.42-1.51,5.05-3.68,4.89
		c-0.92-0.06-1.65-0.42-2.18-1.07c-0.55-0.69-0.66-1.73-0.33-3.13c0.5-2.15,0.89-3.87,1.16-5.14L135.76,187.14z M140.83,178.06
		c0,0.65-0.24,1.21-0.72,1.69c-0.48,0.47-1.05,0.71-1.71,0.72c-0.66-0.01-1.23-0.25-1.71-0.72c-0.48-0.48-0.72-1.04-0.72-1.69
		c0-0.66,0.24-1.23,0.72-1.71c0.48-0.5,1.05-0.74,1.71-0.72c0.66,0,1.23,0.24,1.71,0.72C140.58,176.83,140.83,177.4,140.83,178.06z"
		/>
	<path class="st0" d="M153.08,184.99l1.57-6.8c0.42-1.76-0.07-2.46-1.47-2.1l0.17-0.56l5.91-1.35c-1.9,8.2-3.55,15.24-4.95,21.11
		c-0.34,1.5-0.32,2.3,0.08,2.4c0.72,0.15,1.34-1.05,1.87-3.59H157c-0.31,3.41-1.56,5.03-3.73,4.87c-0.91-0.06-1.6-0.45-2.08-1.16
		c-0.47-0.73-0.52-1.73-0.16-3.01c-0.47,1.19-1.17,2.21-2.12,3.06c-0.91,0.81-1.99,1.2-3.24,1.14c-1.53-0.09-2.62-0.81-3.27-2.15
		c-0.72-1.5-0.82-3.32-0.3-5.45c0.56-2.36,1.58-4.27,3.06-5.72c1.5-1.45,3.1-2.18,4.78-2.18
		C151.12,183.52,152.17,184.02,153.08,184.99z M147.97,186.37c-0.85,1.26-1.47,2.7-1.88,4.29c-0.33,1.35-0.48,2.81-0.44,4.39
		c0.09,1.57,0.56,2.43,1.41,2.59c0.91,0.16,1.79-0.4,2.63-1.68c0.85-1.32,1.43-2.64,1.74-3.98l0.71-3.09
		c0.63-2.88,0.17-4.34-1.36-4.37C149.78,184.49,148.85,185.1,147.97,186.37z"/>
	<path class="st0" d="M170.71,184.97c0.28,0.34,0.74,0.52,1.36,0.52c0.6-0.01,1.29-0.67,2.07-1.99h0.56l-2.74,11.75
		c-0.39,1.47-0.38,2.26,0.03,2.35c0.72,0.15,1.35-1.03,1.88-3.54h0.74c-0.28,3.41-1.5,5.03-3.67,4.87c-0.9-0.06-1.6-0.45-2.1-1.16
		c-0.47-0.73-0.53-1.73-0.17-3.01c-0.47,1.19-1.17,2.21-2.12,3.06c-0.91,0.81-1.99,1.2-3.24,1.14c-1.54-0.09-2.62-0.81-3.26-2.16
		c-0.72-1.49-0.83-3.31-0.31-5.44c0.56-2.36,1.58-4.27,3.06-5.74c1.54-1.46,3.13-2.19,4.78-2.19
		C168.83,183.44,169.87,183.95,170.71,184.97z M165.62,186.37c-0.88,1.39-1.51,2.82-1.9,4.29c-0.34,1.45-0.49,2.91-0.42,4.39
		c0.09,1.57,0.56,2.43,1.41,2.59c0.91,0.17,1.79-0.39,2.63-1.68c0.85-1.31,1.43-2.63,1.74-3.98l0.71-3.09
		c0.63-2.88,0.17-4.34-1.36-4.37C167.43,184.47,166.49,185.08,165.62,186.37z"/>
	<path class="st0" d="M187.74,184.99l1.57-6.8c0.42-1.76-0.07-2.46-1.47-2.1l0.17-0.56l5.91-1.35c-1.9,8.2-3.55,15.24-4.95,21.11
		c-0.34,1.5-0.32,2.3,0.08,2.4c0.72,0.15,1.34-1.05,1.87-3.59h0.75c-0.31,3.41-1.56,5.03-3.73,4.87c-0.91-0.06-1.6-0.45-2.08-1.16
		c-0.47-0.73-0.52-1.73-0.16-3.01c-0.47,1.19-1.17,2.21-2.12,3.06c-0.91,0.81-1.99,1.2-3.24,1.14c-1.53-0.09-2.62-0.81-3.27-2.15
		c-0.72-1.5-0.82-3.32-0.3-5.45c0.56-2.36,1.58-4.27,3.06-5.72c1.5-1.45,3.1-2.18,4.78-2.18
		C185.78,183.52,186.83,184.02,187.74,184.99z M182.63,186.37c-0.85,1.26-1.47,2.7-1.88,4.29c-0.33,1.35-0.48,2.81-0.44,4.39
		c0.09,1.57,0.56,2.43,1.41,2.59c0.91,0.16,1.79-0.4,2.63-1.68c0.85-1.32,1.43-2.64,1.74-3.98l0.71-3.09
		c0.63-2.88,0.17-4.34-1.36-4.37C184.45,184.49,183.51,185.1,182.63,186.37z"/>
	<path class="st0" d="M206.37,184.22c0.88,0.6,1.3,1.45,1.25,2.55c-0.02,0.97-0.36,1.86-1.02,2.66c-0.61,0.78-1.43,1.43-2.46,1.94
		c-0.98,0.49-2.04,0.88-3.17,1.18c-1.09,0.27-2.23,0.45-3.42,0.55c-0.22,2.98,0.57,4.62,2.37,4.94c1.3,0.21,2.51-0.13,3.64-1
		c1.28-0.96,2.38-2.36,3.27-4.2h0.67c-0.93,2.04-2.05,3.59-3.37,4.65c-1.34,1.06-2.91,1.58-4.73,1.58c-2.1,0-3.67-0.73-4.72-2.18
		c-0.97-1.41-1.24-3.21-0.81-5.39c0.41-2.12,1.51-4.01,3.32-5.66c0.85-0.73,1.8-1.32,2.87-1.77c1.09-0.45,2.11-0.68,3.07-0.7
		C204.46,183.34,205.54,183.63,206.37,184.22z M199.51,186.99c-1.04,1.69-1.68,3.5-1.91,5.42c1.38-0.11,2.59-0.38,3.62-0.78
		c1.03-0.41,1.86-1.11,2.48-2.1c0.78-1.33,1.03-2.6,0.75-3.82c-0.25-1.07-0.81-1.55-1.69-1.44
		C201.66,184.36,200.58,185.27,199.51,186.99z"/>
	<path class="st0" d="M219.79,184.5c0.53,0.46,0.88,0.99,1.03,1.58c0.13,0.47,0.14,0.95,0.03,1.43c-0.15,0.52-0.5,0.8-1.07,0.83
		c-0.66,0.02-1.07-0.27-1.22-0.86c-0.06-0.22-0.08-0.55-0.06-0.99c0.04-0.48,0.03-0.83-0.03-1.05c-0.09-0.38-0.27-0.64-0.52-0.8
		c-0.46-0.28-1.06-0.41-1.79-0.38c-1.43,0.06-2.34,0.56-2.71,1.5c-0.25,0.71-0.19,1.33,0.17,1.87c0.37,0.41,1.19,0.96,2.48,1.65
		c1.43,0.72,2.33,1.24,2.71,1.57c1.25,1.03,1.61,2.43,1.07,4.2c-0.41,1.29-1.26,2.35-2.55,3.2c-0.77,0.51-1.83,0.78-3.18,0.81
		c-1.66,0.03-2.96-0.31-3.9-1.02c-0.6-0.47-1.04-1-1.33-1.58c-0.28-0.55-0.39-1.22-0.33-2.01c0.07-0.6,0.28-1.07,0.63-1.41
		c0.29-0.28,0.66-0.42,1.1-0.42c0.37,0.02,0.66,0.16,0.88,0.41c0.22,0.22,0.3,0.56,0.23,1.03c-0.03,0.29-0.19,0.66-0.47,1.1
		c-0.21,0.4-0.32,0.76-0.34,1.1c0,0.42,0.14,0.78,0.42,1.1c0.36,0.38,0.99,0.65,1.9,0.83c1.03,0.18,1.96,0.11,2.77-0.2
		c0.78-0.31,1.31-0.82,1.57-1.52c0.23-0.57,0.22-1.14-0.03-1.71c-0.14-0.36-0.5-0.72-1.1-1.1c-0.21-0.13-0.93-0.49-2.16-1.1
		c-0.66-0.34-1.25-0.67-1.77-0.99c-1.57-1.07-2.07-2.54-1.52-4.42c0.38-1.16,1.1-2.08,2.16-2.77c1.12-0.73,2.44-1.06,3.98-0.97
		C218.05,183.47,219.04,183.83,219.79,184.5z"/>
</g>
<g>
	<path class="st2" d="M156.62,155.73c0.02-0.24,0.05-0.41,0.05-0.59c0-10.85,0-21.7,0-32.54c0-7.72,0-15.44-0.01-23.16
		c0-0.43-0.01-0.74,0.53-0.95c4.59-1.73,8.59-4.37,11.82-8.07c6.91-7.92,9.34-17.1,6.86-27.3c-2.42-9.97-8.65-16.93-18.11-20.86
		c-4.67-1.94-9.57-2.85-14.64-1.65c-0.51,0.12-0.73-0.08-0.97-0.5c-1.66-2.89-3.71-5.47-6.24-7.64c-7.78-6.67-16.71-9.04-26.67-6.56
		c-8.16,2.03-14.25,7.02-18.56,14.2c-0.29,0.48-0.55,0.55-1.05,0.48c-1.44-0.21-2.89-0.51-4.33-0.48c-5.69,0.14-10.98,1.75-15.66,5
		c-9.14,6.36-13.76,15.11-13.52,26.32c0.09,4.1,1.07,8,2.85,11.69c3.54,7.32,9.12,12.44,16.69,15.42c0.23,0.09,0.49,0.48,0.5,0.74
		c0.05,1.43,0.03,2.86,0.03,4.29c0,17.05,0,34.09,0,51.14c0,0.32,0,0.64,0,1.01C103.03,155.73,129.78,155.73,156.62,155.73z"/>
	<path class="st0" d="M156.62,155.73c-26.85,0-53.6,0-80.44,0c0-0.37,0-0.69,0-1.01c0-17.05,0-34.09,0-51.14
		c0-1.43,0.02-2.86-0.03-4.29c-0.01-0.26-0.26-0.65-0.5-0.74c-7.57-2.98-13.15-8.1-16.69-15.42c-1.78-3.68-2.77-7.58-2.85-11.69
		c-0.24-11.21,4.38-19.96,13.52-26.32c4.68-3.25,9.97-4.86,15.66-5c1.44-0.04,2.89,0.27,4.33,0.48c0.51,0.07,0.77,0,1.05-0.48
		c4.31-7.18,10.39-12.17,18.56-14.2c9.97-2.48,18.89-0.11,26.67,6.56c2.53,2.17,4.58,4.75,6.24,7.64c0.24,0.42,0.46,0.62,0.97,0.5
		c5.07-1.21,9.97-0.3,14.64,1.65c9.46,3.93,15.69,10.9,18.11,20.86c2.48,10.2,0.04,19.38-6.86,27.3c-3.23,3.7-7.23,6.34-11.82,8.07
		c-0.54,0.2-0.53,0.52-0.53,0.95c0.01,7.72,0.01,15.44,0.01,23.16c0,10.85,0,21.7,0,32.54C156.67,155.32,156.64,155.5,156.62,155.73
		z M146.64,90.41c0.23-0.01,0.4-0.02,0.58-0.03c7.59-0.45,13.37-3.92,17.09-10.57c4.27-7.63,2.85-17.54-3.49-23.78
		c-4.81-4.74-10.66-6.68-17.38-5.55c-1.98,0.33-3.92,0.95-5.85,1.51c-0.62,0.18-0.84,0.03-1.04-0.53c-0.41-1.12-0.87-2.21-1.33-3.3
		c-3.33-7.94-9.2-12.52-17.86-13.03c-6.82-0.4-12.38,2.32-16.68,7.61c-1.96,2.42-3.03,5.29-4.13,8.15
		c-0.51,1.33-0.52,1.33-1.86,0.91c-0.4-0.12-0.8-0.21-1.2-0.34c-3.85-1.23-7.73-1.74-11.75-0.81
		c-10.72,2.47-17.57,13.02-15.11,23.88c1.86,8.19,7.08,13.32,15.27,15.33c1.39,0.34,2.85,0.44,4.39,0.66c0,11.66,0,23.35,0,35.01
		c20.17,0,40.23,0,60.36,0C146.64,113.79,146.64,102.13,146.64,90.41z M86.27,145.63c20.12,0,40.19,0,60.31,0c0-3.34,0-6.63,0-9.95
		c-20.13,0-40.19,0-60.31,0C86.27,139,86.27,142.26,86.27,145.63z"/>
	<path class="st0" d="M101.42,95.43c3.36,0,6.62,0,9.95,0c0,6.7,0,13.35,0,20.07c-3.31,0-6.6,0-9.95,0
		C101.42,108.81,101.42,102.16,101.42,95.43z"/>
	<path class="st0" d="M121.49,95.43c3.36,0,6.62,0,9.95,0c0,6.7,0,13.36,0,20.07c-3.3,0-6.6,0-9.95,0
		C121.49,108.81,121.49,102.16,121.49,95.43z"/>
</g>
</svg>
