<?xml version="1.0" encoding="utf-8"?>
<!-- Generator: Adobe Illustrator 23.0.3, SVG Export Plug-In . SVG Version: 6.00 Build 0)  -->
<svg version="1.1" id="Layer_1" xmlns="http://www.w3.org/2000/svg" xmlns:xlink="http://www.w3.org/1999/xlink" x="0px" y="0px"
	 viewBox="0 0 231.74 216.93" style="enable-background:new 0 0 231.74 216.93;" xml:space="preserve">
<style type="text/css">
	.st0{fill:#FFFFFF;}
	.st1{opacity:0.84;fill:#0092CA;}
	.st2{fill:none;}
	.st3{fill:#005375;}
	.st4{fill:#014655;}
</style>
<rect y="0" class="st1" width="231.74" height="216.93"/>
<g>
	<path class="st0" d="M66.39,174.02c1.98,2.58,2.45,6.05,1.43,10.42c-0.64,2.81-1.9,5.33-3.78,7.58c-1.88,2.29-4.13,4.08-6.75,5.36
		c-2.64,1.29-5.32,1.94-8.03,1.94c-4.18-0.04-7.37-1.43-9.55-4.17c-2.17-2.75-2.8-6.13-1.9-10.14c0.63-2.78,1.81-5.27,3.56-7.48
		c1.8-2.26,4.03-4.07,6.68-5.42c2.67-1.38,5.51-2.06,8.5-2.06C61.13,170.05,64.41,171.38,66.39,174.02z M50.75,173.04
		c-1.74,1.25-3.25,2.92-4.52,5.01c-1.24,2.08-2.17,4.39-2.78,6.93c-0.86,3.71-0.69,6.85,0.51,9.44c1.19,2.56,3.05,3.84,5.58,3.84
		c1.68,0,3.38-0.59,5.11-1.78c1.73-1.19,3.27-2.84,4.62-4.97c1.35-2.1,2.32-4.44,2.92-7.03c0.94-4.03,0.88-7.26-0.18-9.67
		c-1.08-2.45-3.03-3.68-5.85-3.68C54.33,171.12,52.52,171.76,50.75,173.04z"/>
	<path class="st0" d="M77.14,184.42c1.39-3.82,3.54-5.72,6.44-5.72c1.84,0,3.23,0.6,4.17,1.8c0.56,0.74,0.85,1.64,0.88,2.7
		c1.39-3,3.37-4.5,5.93-4.5c1.83,0,3.21,0.6,4.15,1.8c0.94,1.23,1.14,2.88,0.61,4.97l-2.45,9.16c-0.48,1.96-0.45,3,0.08,3.13
		c0.97,0.19,1.8-1.37,2.49-4.68h1.02c-0.5,4.47-2.17,6.61-4.99,6.42c-1.19-0.08-2.09-0.55-2.72-1.41c-0.6-0.89-0.67-2.25-0.2-4.09
		l1.84-7.42c0.63-2.48,0.76-4.14,0.39-4.99c-0.4-0.93-1.11-1.29-2.15-1.08c-1.27,0.23-2.41,1.47-3.43,3.72
		c-1.19,2.6-2.49,7.46-3.92,14.57h-4.64l2.84-12.22c0.6-2.48,0.72-4.14,0.35-4.99c-0.4-0.94-1.11-1.3-2.15-1.08
		c-1.28,0.25-2.43,1.49-3.45,3.74c-1.19,2.62-2.49,7.47-3.92,14.55h-4.64l3.52-15.23c0.45-1.95,0.41-2.98-0.12-3.11
		c-0.93-0.25-1.74,1.33-2.43,4.72h-1.04c0.6-4.58,2.35-6.73,5.25-6.46C77.32,178.93,78.09,180.83,77.14,184.42z"/>
	<path class="st0" d="M118.24,179.78c1.14,0.78,1.69,1.89,1.64,3.33c-0.03,1.27-0.47,2.43-1.33,3.47c-0.79,1.02-1.86,1.87-3.21,2.54
		c-1.28,0.64-2.66,1.15-4.13,1.53c-1.42,0.35-2.9,0.59-4.46,0.72c-0.29,3.88,0.74,6.03,3.09,6.44c1.69,0.27,3.27-0.16,4.74-1.31
		c1.68-1.25,3.1-3.08,4.27-5.48h0.88c-1.21,2.66-2.68,4.68-4.39,6.07c-1.74,1.38-3.8,2.06-6.17,2.06c-2.74,0-4.79-0.95-6.15-2.84
		c-1.27-1.84-1.62-4.18-1.06-7.03c0.53-2.77,1.98-5.23,4.33-7.38c1.1-0.95,2.35-1.72,3.74-2.31c1.42-0.59,2.75-0.89,4.01-0.92
		C115.75,178.64,117.15,179.01,118.24,179.78z M109.29,183.4c-1.36,2.21-2.19,4.57-2.49,7.07c1.8-0.15,3.37-0.49,4.72-1.02
		c1.35-0.53,2.43-1.44,3.23-2.74c1.02-1.73,1.35-3.39,0.98-4.99c-0.33-1.39-1.06-2.02-2.21-1.88
		C112.09,179.97,110.68,181.15,109.29,183.4z"/>
	<path class="st0" d="M124.64,168.44l7.75-1.76l-6.4,27.59c-0.45,1.92-0.42,2.95,0.1,3.09c0.95,0.19,1.77-1.36,2.45-4.64h0.94
		c-0.37,4.44-1.96,6.56-4.78,6.36c-1.27-0.08-2.25-0.55-2.94-1.39c-0.68-0.87-0.82-2.23-0.41-4.09l4.99-21.69
		c0.54-2.29-0.1-3.2-1.92-2.74L124.64,168.44z"/>
	<path class="st0" d="M150.17,179.78c1.14,0.78,1.69,1.89,1.64,3.33c-0.03,1.27-0.47,2.43-1.33,3.47c-0.79,1.02-1.86,1.87-3.21,2.54
		c-1.28,0.64-2.66,1.15-4.13,1.53c-1.42,0.35-2.9,0.59-4.46,0.72c-0.29,3.88,0.74,6.03,3.09,6.44c1.69,0.27,3.27-0.16,4.74-1.31
		c1.68-1.25,3.1-3.08,4.27-5.48h0.88c-1.21,2.66-2.68,4.68-4.39,6.07c-1.74,1.38-3.8,2.06-6.17,2.06c-2.74,0-4.79-0.95-6.15-2.84
		c-1.27-1.84-1.62-4.18-1.06-7.03c0.53-2.77,1.98-5.23,4.33-7.38c1.1-0.95,2.35-1.72,3.74-2.31c1.42-0.59,2.75-0.89,4.01-0.92
		C147.68,178.64,149.08,179.01,150.17,179.78z M141.22,183.4c-1.36,2.21-2.19,4.57-2.49,7.07c1.8-0.15,3.37-0.49,4.72-1.02
		c1.35-0.53,2.43-1.44,3.23-2.74c1.02-1.73,1.35-3.39,0.98-4.99c-0.33-1.39-1.06-2.02-2.21-1.88
		C144.02,179.97,142.61,181.15,141.22,183.4z"/>
	<path class="st0" d="M162.89,172.02l-1.61,7.19h3.8l-0.2,0.92h-3.82l-3.25,14.31c-0.5,1.92-0.49,2.94,0.04,3.05
		c0.94,0.16,1.76-1.36,2.45-4.58h0.98c-0.37,4.39-1.96,6.48-4.78,6.28c-1.19-0.07-2.13-0.52-2.82-1.37
		c-0.67-0.87-0.8-2.21-0.39-4.03l3.09-13.65h-2.56l0.22-0.92h2.53l1.66-7.19H162.89z"/>
	<path class="st0" d="M176.15,172.02l-1.61,7.19h3.8l-0.2,0.92h-3.82l-3.25,14.31c-0.5,1.92-0.49,2.94,0.04,3.05
		c0.94,0.16,1.76-1.36,2.45-4.58h0.98c-0.37,4.39-1.96,6.48-4.78,6.28c-1.19-0.07-2.13-0.52-2.82-1.37
		c-0.67-0.87-0.8-2.21-0.39-4.03l3.09-13.65h-2.56l0.22-0.92h2.53l1.66-7.19H176.15z"/>
	<path class="st0" d="M195.1,179.78c1.14,0.78,1.69,1.89,1.64,3.33c-0.03,1.27-0.47,2.43-1.33,3.47c-0.79,1.02-1.86,1.87-3.21,2.54
		c-1.28,0.64-2.66,1.15-4.13,1.53c-1.42,0.35-2.9,0.59-4.46,0.72c-0.29,3.88,0.74,6.03,3.09,6.44c1.69,0.27,3.27-0.16,4.74-1.31
		c1.68-1.25,3.1-3.08,4.27-5.48h0.88c-1.21,2.66-2.68,4.68-4.39,6.07c-1.74,1.38-3.8,2.06-6.17,2.06c-2.74,0-4.79-0.95-6.15-2.84
		c-1.27-1.84-1.62-4.18-1.06-7.03c0.53-2.77,1.98-5.23,4.33-7.38c1.1-0.95,2.35-1.72,3.74-2.31c1.42-0.59,2.75-0.89,4.01-0.92
		C192.61,178.64,194.01,179.01,195.1,179.78z M186.15,183.4c-1.36,2.21-2.19,4.57-2.49,7.07c1.8-0.15,3.37-0.49,4.72-1.02
		c1.35-0.53,2.43-1.44,3.23-2.74c1.02-1.73,1.35-3.39,0.98-4.99c-0.33-1.39-1.06-2.02-2.21-1.88
		C188.95,179.97,187.54,181.15,186.15,183.4z"/>
</g>
<g>
	<path class="st0" d="M51.18,126.66c-5.86-6.72-11.32-12.88-16.66-19.14c-2.47-2.9-1.86-5.11,1.52-7.14
		c44.21-26.53,88.39-53.12,132.52-79.78c3.45-2.09,5.39-1.14,7.1,2.11c5.84,11.12,8.11,22.93,7.11,35.41
		c-0.13,1.55-0.29,3.11-0.43,4.6c8.78,5.08,9.17,9.57,2.71,16.98c-2.32,2.65-4.42,6.54-1.3,10.8c2.56,3.5-1.73,12.45-5.99,13.29
		c-4.09,16.05-14.03,26.06-30.25,30.01c-4.24,1.03-8.77,2.4-9.98,7.96c-0.21,0.97-3.4,2.26-4.69,1.84
		c-4.61-1.51-8.24-0.18-12.38,1.91c-18.54,9.34-36.41,7.14-53.57-3.95c-1.42-0.92-3.43-1.9-4.9-1.59
		c-4.07,0.86-7.48,0.31-10.23-2.89C49.39,134.31,49.35,131.12,51.18,126.66z M39.74,105.44c8,11.2,18.43,18.56,31.09,22.11
		c33.89,9.52,62.49-0.65,85.95-25.61c15.62-16.62,23.32-36.61,19.16-59.85c-0.93-5.22-3.19-10.21-4.95-15.67
		C126.8,53.03,83.57,79.05,39.74,105.44z M141.35,128.96c15.53-2.92,26.89-10.47,30.91-28.39c-3.22,0.86-6.17,0.8-7.83,2.23
		c-6.36,5.48-11.96,11.88-18.54,17.05C142.46,122.55,141.63,125.42,141.35,128.96z M89,137.91c-7.2-1.34-14.26-2.66-21.32-3.97
		c-0.2,0.48-0.39,0.96-0.59,1.44c6.57,3.13,13.14,6.26,20.37,9.7C88.18,141.71,88.6,139.75,89,137.91z M113.2,135.25
		c-0.11,2.56-0.2,4.67-0.3,6.84c9.22-2.61,11.08-4.28,11.07-10.06C120.42,133.09,116.93,134.14,113.2,135.25z M129.96,136.24
		c0.56,0.4,1.12,0.79,1.68,1.19c2.79-2.42,2.1-6.44,3.29-9.6c-0.53-0.22-1.05-0.43-1.58-0.65
		C132.22,130.2,131.09,133.22,129.96,136.24z"/>
	<path class="st0" d="M79.06,97.8c0.09,1.64,0.37,2.6,0.16,3.45c-1.31,5.48-2.6,10.97-4.19,16.38c-0.29,0.99-2.05,2.33-2.95,2.21
		c-3.23-0.45-6.48-1.22-9.51-2.41c-0.88-0.35-1.66-2.63-1.42-3.82c1.04-5.22,2.23-10.43,3.9-15.47c0.44-1.32,2.91-2.9,4.29-2.77
		C72.66,95.68,75.88,96.95,79.06,97.8z M73.12,101.89c-1.5,0.33-2.94,0.33-3.07,0.74c-0.96,3.09-1.69,6.26-2.34,9.44
		c-0.03,0.14,1.54,0.6,2.37,0.91C71.02,109.56,71.95,106.16,73.12,101.89z"/>
	<path class="st0" d="M98.54,106.91c-0.11,1.75-0.02,2.99-0.3,4.14c-1.15,4.88-2.45,9.72-3.6,14.6c-0.68,2.87-2.25,3.7-5.15,3.14
		c-10.27-1.97-10.3-1.93-7.79-12.03c0.76-3.04,1.61-6.06,2.24-9.13c0.66-3.19,2.43-4.11,5.45-3.23
		C92.35,105.28,95.34,106.04,98.54,106.91z M88.29,122.69c0.64-0.02,1.28-0.04,1.91-0.06c0.46-3.05,1-6.09,1.32-9.15
		c0.08-0.8-0.55-1.68-0.86-2.53c-0.6,0.52-1.55,0.93-1.75,1.58c-0.78,2.51-1.47,5.07-1.88,7.66
		C86.92,120.93,87.84,121.85,88.29,122.69z"/>
	<path class="st0" d="M143.56,89.09c-1.33,3.7-2.22,7.6-4.19,10.84c-0.67,1.11-4.13,1.05-6.18,0.7c-4.31-0.74-8.52-2.07-12.79-3.07
		c-2.63-0.62-3.73-2.07-3.05-4.76c2.97-11.9,1.71-10.71,12.16-8.14c3.04,0.75,6.1,1.46,9.12,2.3
		C139.77,87.28,140.84,87.9,143.56,89.09z M124.43,88.82c-0.31,1.85-0.51,2.66-0.44,2.69c3.41,1.13,6.84,2.22,10.3,3.2
		c0.22,0.06,1.06-0.91,0.97-1.23c-0.17-0.59-0.7-1.31-1.25-1.51C130.96,90.88,127.85,89.93,124.43,88.82z"/>
	<path class="st0" d="M165,46.31c-0.11,1.76-0.01,3-0.28,4.17c-1.14,4.88-2.45,9.72-3.57,14.6c-0.67,2.92-2.22,3.66-5.13,3.09
		c-10.33-2.04-10.35-1.96-7.85-12c0.79-3.19,1.61-6.37,2.38-9.57c0.64-2.67,2.26-3.59,4.87-2.88
		C158.53,44.57,161.66,45.41,165,46.31z M154.05,61.77c0.34-0.18,0.68-0.36,1.03-0.54c1.08-3.48,2.16-6.96,3.5-11.27
		c-4.74,1.41-3.62,5.27-4.62,7.77C153.5,58.88,153.99,60.41,154.05,61.77z"/>
</g>
</svg>
