<?xml version="1.0" encoding="utf-8"?>
<!-- Generator: Adobe Illustrator 23.0.3, SVG Export Plug-In . SVG Version: 6.00 Build 0)  -->
<svg version="1.1" id="Layer_1" xmlns="http://www.w3.org/2000/svg" xmlns:xlink="http://www.w3.org/1999/xlink" x="0px" y="0px"
	 viewBox="0 0 231.74 216.93" style="enable-background:new 0 0 231.74 216.93;" xml:space="preserve">
<style type="text/css">
	.st0{fill:#FFFFFF;}
	.st1{opacity:0.84;fill:#0092CA;}
	.st2{fill:none;}
	.st3{fill:#005375;}
	.st4{fill:#014655;}
</style>
<rect x="0" class="st1" width="231.74" height="216.93"/>
<g>
	<path class="st0" d="M36.94,175.38c1.66,0.79,2.63,0.61,2.9-0.53h0.78l-1.21,7.85l-0.76,0.08c-0.03-2.21-0.41-3.91-1.14-5.11
		c-0.93-1.61-2.51-2.36-4.74-2.27c-1.55,0-2.92,0.43-4.11,1.29c-0.7,0.45-1.23,1.08-1.62,1.9c-0.44,0.74-0.65,1.53-0.63,2.39
		c-0.01,0.7,0.2,1.31,0.63,1.86c0.54,0.7,2.02,1.52,4.41,2.47c2.33,0.93,3.9,1.66,4.72,2.21c1.19,0.82,2,1.78,2.45,2.88
		c0.45,1.16,0.44,2.62-0.04,4.39c-0.7,2.45-2.17,4.54-4.44,6.28c-2.34,1.76-5.07,2.57-8.18,2.43c-1.76-0.08-3.45-0.64-5.09-1.68
		c-0.61-0.41-1.11-0.68-1.49-0.82c-0.38-0.16-0.8-0.05-1.25,0.33c-0.4,0.33-0.74,0.91-1.02,1.76h-0.7l2-8.67h0.7
		c0.04,2.33,0.58,4.17,1.61,5.52c1.23,1.5,3.03,2.31,5.42,2.43c1.92,0.07,3.59-0.33,5.01-1.19c0.9-0.55,1.59-1.25,2.09-2.11
		c0.46-0.74,0.77-1.59,0.92-2.58c0.12-0.79,0-1.52-0.37-2.19c-0.29-0.56-0.87-1.12-1.76-1.7c-0.86-0.55-1.92-1.08-3.19-1.59
		c-1.25-0.54-2.19-0.99-2.8-1.33c-3.47-2-4.89-4.52-4.23-7.56c0.53-2.17,1.72-3.97,3.56-5.42c2.17-1.53,4.63-2.29,7.4-2.29
		C34.24,174.44,35.63,174.76,36.94,175.38z"/>
	<path class="st0" d="M57.25,185.07c0.37,0.45,0.96,0.67,1.78,0.67c0.78-0.01,1.68-0.88,2.7-2.6h0.74l-3.58,15.33
		c-0.5,1.92-0.49,2.94,0.04,3.07c0.94,0.19,1.76-1.35,2.45-4.62h0.96c-0.37,4.44-1.96,6.56-4.78,6.36
		c-1.17-0.08-2.09-0.59-2.74-1.51c-0.61-0.95-0.69-2.26-0.22-3.92c-0.61,1.55-1.53,2.88-2.76,3.99c-1.19,1.06-2.6,1.56-4.23,1.49
		c-2-0.12-3.42-1.06-4.25-2.82c-0.94-1.95-1.08-4.31-0.41-7.09c0.74-3.08,2.06-5.57,3.99-7.48c2-1.91,4.08-2.86,6.23-2.86
		C54.8,183.07,56.16,183.74,57.25,185.07z M50.61,186.89c-1.14,1.81-1.97,3.68-2.47,5.6c-0.45,1.89-0.63,3.8-0.55,5.72
		c0.12,2.04,0.74,3.17,1.84,3.37c1.19,0.22,2.33-0.51,3.43-2.19c1.1-1.7,1.86-3.43,2.27-5.19l0.92-4.03
		c0.82-3.76,0.22-5.66-1.78-5.7C52.97,184.41,51.76,185.22,50.61,186.89z"/>
	<path class="st0" d="M67.23,172.75l7.75-1.76l-6.4,27.59c-0.45,1.92-0.42,2.95,0.1,3.09c0.95,0.19,1.77-1.36,2.45-4.64h0.94
		c-0.37,4.44-1.96,6.56-4.78,6.36c-1.27-0.08-2.25-0.54-2.94-1.39c-0.68-0.87-0.82-2.23-0.41-4.09l4.99-21.69
		c0.54-2.29-0.1-3.2-1.92-2.74L67.23,172.75z"/>
	<path class="st0" d="M88.12,197.73c-1.73,3.8-4.09,5.7-7.07,5.7c-1.76,0-3.11-0.61-4.07-1.82c-0.93-1.21-1.13-2.84-0.61-4.89
		l2.33-8.85c0.52-1.96,0.5-3-0.04-3.11c-0.94-0.16-1.78,1.47-2.51,4.91l-0.96-0.22c0.53-4.46,2.19-6.58,4.97-6.38
		c1.21,0.08,2.11,0.55,2.68,1.39c0.61,0.86,0.67,2.21,0.18,4.05l-1.84,7.13c-0.61,2.41-0.72,4.07-0.31,4.97
		c0.37,0.86,1.06,1.19,2.08,1c1.35-0.29,2.66-1.55,3.92-3.78c1.42-2.51,2.76-7.28,4.03-14.31h4.64l-3.49,15.11
		c-0.45,1.92-0.43,2.94,0.06,3.07c0.93,0.2,1.76-1.34,2.49-4.64h0.98c-0.57,4.52-2.31,6.65-5.21,6.38
		C87.96,203.21,87.21,201.31,88.12,197.73z"/>
	<path class="st0" d="M111.56,185.09l2.04-8.87c0.55-2.29-0.1-3.2-1.92-2.74l0.22-0.74l7.71-1.76c-2.48,10.7-4.63,19.88-6.46,27.53
		c-0.45,1.96-0.42,3,0.1,3.13c0.94,0.19,1.75-1.37,2.43-4.68h0.98c-0.41,4.44-2.03,6.56-4.86,6.36c-1.19-0.08-2.09-0.59-2.72-1.51
		c-0.61-0.95-0.68-2.26-0.2-3.92c-0.61,1.55-1.53,2.88-2.76,3.99c-1.19,1.06-2.6,1.56-4.23,1.49c-1.99-0.12-3.41-1.06-4.27-2.8
		c-0.94-1.96-1.07-4.33-0.39-7.11c0.74-3.08,2.06-5.57,3.99-7.46c1.96-1.89,4.04-2.84,6.23-2.84
		C109.01,183.18,110.38,183.83,111.56,185.09z M104.9,186.89c-1.1,1.65-1.92,3.52-2.45,5.6c-0.44,1.76-0.63,3.67-0.57,5.72
		c0.12,2.04,0.74,3.17,1.84,3.37c1.19,0.2,2.33-0.52,3.43-2.19c1.1-1.72,1.86-3.45,2.27-5.19l0.92-4.03
		c0.82-3.76,0.22-5.66-1.78-5.7C107.26,184.44,106.05,185.24,104.9,186.89z"/>
	<path class="st0" d="M134.56,185.07c0.37,0.45,0.96,0.67,1.78,0.67c0.78-0.01,1.68-0.88,2.7-2.6h0.74l-3.58,15.33
		c-0.5,1.92-0.49,2.94,0.04,3.07c0.94,0.19,1.76-1.35,2.45-4.62h0.96c-0.37,4.44-1.96,6.56-4.78,6.36
		c-1.17-0.08-2.08-0.59-2.74-1.51c-0.61-0.95-0.69-2.26-0.22-3.92c-0.61,1.55-1.53,2.88-2.76,3.99c-1.19,1.06-2.6,1.56-4.23,1.49
		c-2-0.12-3.42-1.06-4.25-2.82c-0.94-1.95-1.08-4.31-0.41-7.09c0.74-3.08,2.06-5.57,3.99-7.48c2-1.91,4.08-2.86,6.23-2.86
		C132.11,183.07,133.47,183.74,134.56,185.07z M127.92,186.89c-1.14,1.81-1.97,3.68-2.47,5.6c-0.45,1.89-0.63,3.8-0.55,5.72
		c0.12,2.04,0.74,3.17,1.84,3.37c1.19,0.22,2.33-0.51,3.43-2.19c1.1-1.7,1.86-3.43,2.27-5.19l0.92-4.03
		c0.82-3.76,0.22-5.66-1.78-5.7C130.28,184.41,129.06,185.22,127.92,186.89z"/>
	<path class="st0" d="M147.21,201.43c-0.38-0.41-0.96-0.61-1.74-0.61c-0.94,0-1.85,0.83-2.74,2.49h-0.72l6.19-27.08
		c0.53-2.29-0.11-3.2-1.92-2.74l0.22-0.74l7.71-1.76l-3.72,16.29c1.68-2.94,3.8-4.33,6.36-4.17c2.02,0.11,3.45,1.04,4.29,2.78
		c0.95,1.99,1.08,4.37,0.39,7.15c-0.7,3.02-2.03,5.51-4.01,7.44c-1.99,1.93-4.07,2.9-6.23,2.9
		C149.8,203.39,148.44,202.73,147.21,201.43z M153.88,199.61c1.12-1.68,1.93-3.54,2.45-5.6c0.46-1.81,0.65-3.72,0.57-5.72
		c-0.12-2.04-0.74-3.17-1.84-3.37c-1.14-0.22-2.29,0.51-3.43,2.19c-1.1,1.7-1.86,3.43-2.27,5.19l-0.92,4.03
		c-0.78,3.72-0.18,5.62,1.78,5.7C151.57,202.06,152.79,201.26,153.88,199.61z"/>
	<path class="st0" d="M168.27,172.75l7.75-1.76l-6.4,27.59c-0.45,1.92-0.42,2.95,0.1,3.09c0.95,0.19,1.77-1.36,2.45-4.64h0.94
		c-0.37,4.44-1.96,6.56-4.78,6.36c-1.27-0.08-2.25-0.54-2.94-1.39c-0.68-0.87-0.82-2.23-0.41-4.09l4.99-21.69
		c0.54-2.29-0.1-3.2-1.92-2.74L168.27,172.75z"/>
	<path class="st0" d="M193.8,184.09c1.15,0.78,1.69,1.89,1.64,3.33c-0.03,1.27-0.47,2.43-1.33,3.47c-0.79,1.02-1.86,1.87-3.21,2.53
		c-1.28,0.64-2.66,1.15-4.13,1.53c-1.42,0.35-2.9,0.59-4.46,0.72c-0.29,3.88,0.74,6.03,3.09,6.44c1.69,0.27,3.27-0.16,4.74-1.31
		c1.68-1.25,3.1-3.08,4.27-5.48h0.88c-1.21,2.66-2.68,4.68-4.39,6.07c-1.74,1.38-3.8,2.07-6.17,2.07c-2.74,0-4.79-0.95-6.15-2.84
		c-1.27-1.84-1.62-4.18-1.06-7.03c0.53-2.77,1.98-5.23,4.33-7.38c1.1-0.95,2.35-1.72,3.74-2.31c1.42-0.59,2.75-0.89,4.01-0.92
		C191.3,182.95,192.71,183.32,193.8,184.09z M184.84,187.71c-1.36,2.21-2.19,4.56-2.49,7.07c1.8-0.15,3.37-0.49,4.72-1.02
		c1.35-0.53,2.43-1.44,3.23-2.74c1.02-1.73,1.35-3.39,0.98-4.99c-0.33-1.39-1.06-2.02-2.21-1.88
		C187.64,184.28,186.23,185.46,184.84,187.71z"/>
	<path class="st0" d="M211.29,184.46c0.7,0.6,1.15,1.29,1.35,2.06c0.16,0.61,0.18,1.23,0.04,1.86c-0.19,0.68-0.65,1.04-1.39,1.08
		c-0.86,0.03-1.39-0.35-1.59-1.12c-0.08-0.29-0.11-0.72-0.08-1.29c0.05-0.63,0.04-1.08-0.04-1.37c-0.12-0.49-0.35-0.84-0.67-1.04
		c-0.6-0.37-1.38-0.53-2.33-0.49c-1.87,0.08-3.05,0.74-3.54,1.96c-0.33,0.93-0.25,1.74,0.22,2.43c0.48,0.53,1.55,1.25,3.23,2.15
		c1.87,0.94,3.05,1.62,3.54,2.04c1.64,1.35,2.1,3.18,1.39,5.48c-0.53,1.68-1.64,3.07-3.33,4.17c-1.01,0.67-2.39,1.02-4.15,1.06
		c-2.17,0.04-3.86-0.4-5.09-1.33c-0.78-0.61-1.36-1.3-1.74-2.07c-0.37-0.72-0.51-1.59-0.43-2.62c0.09-0.78,0.37-1.39,0.82-1.84
		c0.38-0.37,0.86-0.55,1.43-0.55c0.48,0.03,0.86,0.2,1.14,0.53c0.29,0.29,0.39,0.74,0.31,1.35c-0.04,0.38-0.25,0.86-0.61,1.43
		c-0.27,0.52-0.42,1-0.45,1.43c0,0.55,0.18,1.02,0.55,1.43c0.46,0.49,1.29,0.85,2.47,1.08c1.35,0.23,2.56,0.14,3.62-0.27
		c1.02-0.41,1.7-1.07,2.04-1.98c0.3-0.75,0.29-1.49-0.04-2.23c-0.18-0.46-0.65-0.94-1.43-1.43c-0.27-0.16-1.21-0.64-2.82-1.43
		c-0.86-0.45-1.63-0.88-2.31-1.29c-2.04-1.39-2.71-3.31-1.98-5.76c0.49-1.51,1.43-2.72,2.82-3.62c1.46-0.95,3.19-1.38,5.19-1.27
		C209.03,183.11,210.31,183.59,211.29,184.46z"/>
</g>
<g>
	<path class="st0" d="M117.39,54.35c2.11-2.52,3.47-4.49,5.17-6.11c13.59-13.07,35.01-13.08,48.3-0.09
		c13.51,13.22,14.57,34.54,1.52,48.2c-16.33,17.1-33.3,33.6-50.05,50.29c-3.05,3.04-7.09,2.99-10.16-0.07
		c-16.67-16.61-33.52-33.05-49.82-50.02c-13.08-13.62-12.23-34.87,1.18-48.22c12.95-12.89,34.03-13.26,47.76-0.75
		C113.2,49.33,114.79,51.45,117.39,54.35z M116.99,131.8c0.67-0.36,0.91-0.43,1.07-0.58c14.61-14.6,29.34-29.09,43.78-43.87
		c7.93-8.12,7.52-21.07-0.37-28.92c-7.77-7.73-20.91-7.93-29.05-0.34c-3.13,2.91-6.06,6.03-9.1,9.03c-4.29,4.23-7.74,4.27-11.97,0.1
		c-3.05-3-6.03-6.06-9.09-9.04c-3.72-3.63-8.23-5.58-13.4-5.85c-8.46-0.44-16.27,4.28-19.87,11.89c-3.63,7.69-2.34,16.89,3.7,23.14
		c8.17,8.45,16.57,16.67,24.88,24.99C104.02,118.81,110.47,125.27,116.99,131.8z"/>
	<path class="st0" d="M116.99,91.37c7.87-7.86,15.14-15.16,22.45-22.42c3.05-3.03,6.64-3.54,9.6-1.49
		c3.41,2.37,4.16,7.15,1.12,10.26c-9.27,9.51-18.68,18.89-28.16,28.2c-2.9,2.85-6.59,2.75-9.57-0.1
		c-4.71-4.51-9.32-9.13-13.84-13.84c-2.89-3.01-2.8-7.19-0.08-9.88c2.76-2.73,6.77-2.7,9.89,0.15c1.49,1.36,2.9,2.8,4.28,4.27
		C114.07,87.98,115.37,89.53,116.99,91.37z"/>
</g>
</svg>
