<?xml version="1.0" encoding="utf-8"?>
<!-- Generator: Adobe Illustrator 23.0.3, SVG Export Plug-In . SVG Version: 6.00 Build 0)  -->
<svg version="1.1" id="Layer_1" xmlns="http://www.w3.org/2000/svg" xmlns:xlink="http://www.w3.org/1999/xlink" x="0px" y="0px"
	 viewBox="0 0 231.74 216.93" style="enable-background:new 0 0 231.74 216.93;" xml:space="preserve">
<style type="text/css">
	.st0{fill:#FFFFFF;}
	.st1{opacity:0.84;fill:#0092CA;}
	.st2{fill:none;}
	.st3{fill:#005375;}
	.st4{fill:#014655;}
</style>
<rect x="0" y="0" class="st1" width="231.74" height="216.93"/>
<g>
	<path class="st0" d="M41.91,173.27l-1.12,6.77l-0.78,0.04c0.65-4.02-0.99-6.01-4.95-5.97h-4.58l-5.36,23.12
		c-0.53,2.34,0.4,3.52,2.8,3.52l-0.18,0.78H15.57l0.18-0.78c2.41,0,3.88-1.17,4.39-3.52l5.36-23.12h-4.58
		c-3.95-0.04-6.53,1.95-7.73,5.97L12.46,180l1.98-6.72H41.91z"/>
	<path class="st0" d="M44.78,185.62c0.82-2.21,2.13-3.51,3.92-3.9c1.04-0.23,2-0.16,2.9,0.2c0.95,0.37,1.7,0.93,2.25,1.7
		c0.44,0.61,0.67,1.33,0.72,2.15c0.04,0.7-0.1,1.22-0.41,1.57c-0.33,0.35-0.8,0.51-1.43,0.47c-0.48-0.1-0.86-0.35-1.15-0.76
		c-0.18-0.27-0.39-0.75-0.63-1.43c-0.25-0.84-0.47-1.4-0.67-1.68c-0.37-0.49-0.82-0.74-1.37-0.74c-0.85,0-1.61,0.4-2.29,1.19
		c-0.76,0.93-1.54,3.12-2.33,6.58l-2.45,10.55h-4.74l3.43-15.06c0.46-1.92,0.45-2.94-0.04-3.07c-0.93-0.22-1.76,1.33-2.49,4.64
		h-0.98c0.54-4.31,2.17-6.44,4.86-6.4C43.92,181.63,44.88,182.96,44.78,185.62z"/>
	<path class="st0" d="M69.51,183.49c0.37,0.45,0.96,0.67,1.78,0.67c0.78-0.01,1.68-0.88,2.7-2.6h0.74l-3.58,15.33
		c-0.5,1.92-0.49,2.94,0.04,3.07c0.94,0.19,1.76-1.35,2.45-4.62h0.96c-0.37,4.44-1.96,6.56-4.78,6.36
		c-1.17-0.08-2.09-0.59-2.74-1.51c-0.61-0.95-0.69-2.26-0.22-3.92c-0.61,1.55-1.53,2.88-2.76,3.99c-1.19,1.06-2.6,1.56-4.23,1.49
		c-2-0.12-3.42-1.06-4.25-2.82c-0.94-1.95-1.08-4.31-0.41-7.09c0.74-3.08,2.06-5.57,3.99-7.48c2-1.91,4.08-2.86,6.23-2.86
		C67.06,181.49,68.42,182.16,69.51,183.49z M62.87,185.31c-1.14,1.81-1.97,3.68-2.47,5.6c-0.45,1.89-0.63,3.8-0.55,5.72
		c0.12,2.04,0.74,3.17,1.84,3.37c1.19,0.22,2.33-0.51,3.43-2.19c1.1-1.7,1.86-3.43,2.27-5.19l0.92-4.03
		c0.82-3.76,0.22-5.66-1.78-5.7C65.23,182.83,64.01,183.64,62.87,185.31z"/>
	<path class="st0" d="M91.73,183.51l2.04-8.87c0.55-2.29-0.1-3.2-1.92-2.74l0.22-0.74l7.71-1.76c-2.48,10.7-4.63,19.88-6.46,27.53
		c-0.45,1.96-0.42,3,0.1,3.13c0.94,0.19,1.75-1.37,2.43-4.68h0.98c-0.41,4.44-2.03,6.56-4.86,6.36c-1.19-0.08-2.09-0.59-2.72-1.51
		c-0.61-0.95-0.68-2.26-0.2-3.92c-0.61,1.55-1.53,2.88-2.76,3.99c-1.19,1.06-2.6,1.56-4.23,1.49c-1.99-0.12-3.41-1.06-4.27-2.8
		c-0.94-1.96-1.07-4.33-0.39-7.11c0.74-3.08,2.06-5.57,3.99-7.46c1.96-1.89,4.04-2.84,6.23-2.84
		C89.17,181.6,90.54,182.25,91.73,183.51z M85.06,185.31c-1.1,1.65-1.92,3.52-2.45,5.6c-0.44,1.76-0.63,3.67-0.57,5.72
		c0.12,2.04,0.74,3.17,1.84,3.37c1.19,0.2,2.33-0.52,3.43-2.19c1.1-1.72,1.86-3.45,2.27-5.19l0.92-4.03
		c0.82-3.76,0.22-5.66-1.78-5.7C87.43,182.86,86.21,183.66,85.06,185.31z"/>
	<path class="st0" d="M104.46,186.32c0.45-1.92,0.39-2.94-0.16-3.05c-0.93-0.2-1.7,1.34-2.31,4.62h-0.98
		c0.38-4.46,1.98-6.58,4.8-6.38c1.2,0.07,2.15,0.53,2.84,1.39c0.7,0.86,0.84,2.22,0.43,4.09l-2.27,9.97
		c-0.44,1.92-0.38,2.94,0.16,3.05c0.93,0.19,1.7-1.35,2.31-4.62h0.98c-0.37,4.46-1.97,6.58-4.8,6.38c-1.2-0.08-2.15-0.54-2.84-1.39
		c-0.72-0.9-0.87-2.26-0.43-4.09c0.65-2.81,1.16-5.04,1.51-6.7L104.46,186.32z M111.06,174.48c0,0.85-0.31,1.58-0.94,2.21
		c-0.63,0.61-1.37,0.93-2.23,0.94c-0.86-0.01-1.6-0.33-2.23-0.94c-0.63-0.63-0.94-1.36-0.94-2.21c0-0.86,0.31-1.6,0.94-2.23
		c0.63-0.65,1.37-0.97,2.23-0.94c0.86,0,1.6,0.31,2.23,0.94C110.75,172.88,111.06,173.62,111.06,174.48z"/>
	<path class="st0" d="M128.44,182.23c0.9,0.45,1.55,1.06,1.94,1.84c0.49,0.79,0.67,1.66,0.55,2.62c-0.11,0.76-0.37,1.41-0.78,1.94
		c-0.44,0.53-0.95,0.82-1.55,0.86c-0.45,0.04-0.85-0.1-1.21-0.41c-0.29-0.37-0.4-0.77-0.35-1.21c0.04-0.29,0.16-0.61,0.35-0.98
		c0.46-0.84,0.72-1.53,0.76-2.06c0.08-0.53-0.06-1.02-0.43-1.47c-0.59-0.74-1.51-1-2.78-0.8c-1.27,0.14-2.46,0.76-3.58,1.88
		c-1.06,1.1-1.89,2.26-2.47,3.45c-0.53,1.19-0.92,2.33-1.17,3.43c-1.1,5.6-0.21,8.65,2.68,9.16c1.68,0.27,3.24-0.18,4.7-1.35
		c1.69-1.29,3.12-3.11,4.29-5.44h0.9c-1.19,2.63-2.66,4.64-4.44,6.03c-1.76,1.39-3.8,2.09-6.13,2.11c-2.74,0-4.78-0.94-6.13-2.82
		c-1.23-1.84-1.58-4.2-1.06-7.07c0.54-2.85,1.99-5.31,4.33-7.4c2.25-2.03,4.84-3.07,7.79-3.11
		C126.17,181.43,127.43,181.7,128.44,182.23z"/>
	<path class="st0" d="M135.66,186.32c0.45-1.92,0.39-2.94-0.16-3.05c-0.93-0.2-1.7,1.34-2.31,4.62h-0.98
		c0.38-4.46,1.98-6.58,4.8-6.38c1.2,0.07,2.15,0.53,2.84,1.39c0.7,0.86,0.84,2.22,0.43,4.09l-2.27,9.97
		c-0.44,1.92-0.38,2.94,0.16,3.05c0.93,0.19,1.7-1.35,2.31-4.62h0.98c-0.37,4.46-1.97,6.58-4.8,6.38c-1.2-0.08-2.15-0.54-2.84-1.39
		c-0.72-0.9-0.87-2.26-0.43-4.09c0.65-2.81,1.16-5.04,1.51-6.7L135.66,186.32z M142.26,174.48c0,0.85-0.31,1.58-0.94,2.21
		c-0.63,0.61-1.37,0.93-2.23,0.94c-0.86-0.01-1.6-0.33-2.23-0.94c-0.63-0.63-0.94-1.36-0.94-2.21c0-0.86,0.31-1.6,0.94-2.23
		c0.63-0.65,1.37-0.97,2.23-0.94c0.86,0,1.6,0.31,2.23,0.94C141.94,172.88,142.26,173.62,142.26,174.48z"/>
	<path class="st0" d="M161.8,184.07c1.35,1.88,1.72,4.31,1.12,7.3c-0.53,2.9-1.94,5.4-4.23,7.48c-2.25,2.04-4.72,3.09-7.42,3.15
		c-2.66,0.04-4.72-0.89-6.19-2.8c-1.44-1.92-1.91-4.29-1.39-7.11c0.57-2.97,1.94-5.48,4.11-7.52c2.21-2.04,4.76-3.09,7.64-3.15
		C158.41,181.35,160.53,182.24,161.8,184.07z M151.33,185.19c-1.17,1.84-2.02,4.1-2.55,6.77c-0.49,2.56-0.47,4.72,0.06,6.48
		c0.54,1.73,1.43,2.6,2.66,2.6c1.27,0,2.53-0.93,3.78-2.78c1.24-1.8,2.1-4.05,2.6-6.75c0.49-2.74,0.51-4.97,0.06-6.68
		c-0.44-1.68-1.35-2.49-2.74-2.45C153.89,182.4,152.6,183.34,151.33,185.19z"/>
	<path class="st0" d="M172.96,187.19c1.77-3.84,4.15-5.76,7.13-5.76c1.81,0,3.18,0.61,4.11,1.84c0.94,1.19,1.14,2.83,0.61,4.93
		l-2.37,9.16c-0.52,1.99-0.5,3.04,0.04,3.15c0.95,0.19,1.79-1.38,2.49-4.72H186c-0.52,4.48-2.19,6.62-5.01,6.42
		c-1.19-0.08-2.09-0.55-2.72-1.39c-0.57-0.89-0.63-2.25-0.18-4.09l1.88-7.42c0.65-2.45,0.76-4.12,0.31-5.01
		c-0.37-0.89-1.07-1.23-2.11-1.02c-1.35,0.26-2.66,1.53-3.94,3.82c-1.43,2.51-2.79,7.32-4.07,14.43h-4.68l3.52-15.23
		c0.46-1.95,0.44-2.98-0.06-3.11c-0.9-0.23-1.74,1.33-2.51,4.68h-0.98c0.57-4.58,2.32-6.73,5.25-6.44
		C173.14,181.63,173.9,183.56,172.96,187.19z"/>
	<path class="st0" d="M201.96,183.49c0.37,0.45,0.96,0.67,1.78,0.67c0.78-0.01,1.68-0.88,2.7-2.6h0.74l-3.58,15.33
		c-0.5,1.92-0.49,2.94,0.04,3.07c0.94,0.19,1.76-1.35,2.45-4.62h0.96c-0.37,4.44-1.96,6.56-4.78,6.36
		c-1.17-0.08-2.08-0.59-2.74-1.51c-0.61-0.95-0.69-2.26-0.22-3.92c-0.61,1.55-1.53,2.88-2.76,3.99c-1.19,1.06-2.6,1.56-4.23,1.49
		c-2-0.12-3.42-1.06-4.25-2.82c-0.94-1.95-1.08-4.31-0.41-7.09c0.74-3.08,2.06-5.57,3.99-7.48c2-1.91,4.08-2.86,6.23-2.86
		C199.51,181.49,200.87,182.16,201.96,183.49z M195.32,185.31c-1.15,1.81-1.97,3.68-2.47,5.6c-0.45,1.89-0.63,3.8-0.55,5.72
		c0.12,2.04,0.74,3.17,1.84,3.37c1.19,0.22,2.33-0.51,3.43-2.19c1.1-1.7,1.86-3.43,2.27-5.19l0.92-4.03
		c0.82-3.76,0.22-5.66-1.78-5.7C197.69,182.83,196.47,183.64,195.32,185.31z"/>
	<path class="st0" d="M211.94,171.17l7.75-1.76l-6.4,27.59c-0.45,1.92-0.42,2.95,0.1,3.09c0.95,0.19,1.77-1.36,2.45-4.64h0.94
		c-0.37,4.44-1.96,6.56-4.78,6.36c-1.27-0.08-2.25-0.54-2.94-1.39c-0.68-0.87-0.82-2.23-0.41-4.09l4.99-21.69
		c0.54-2.29-0.1-3.2-1.92-2.74L211.94,171.17z"/>
</g>
<g>
	<path class="st0" d="M45.11,82.75c0.14-39.96,32.73-72.28,72.77-72.13c39.85,0.14,72.17,32.91,71.95,72.95
		c-0.21,39.47-32.78,71.73-72.35,71.66C77.38,155.14,44.98,122.7,45.11,82.75z M50.49,82.63c-0.3,36.61,29.31,66.88,65.81,67.28
		c37.57,0.42,68.05-29.34,68.28-66.67c0.23-36.6-29.8-67.08-66.39-67.4C80.99,15.52,50.8,45.31,50.49,82.63z"/>
	<path class="st0" d="M94,142.02c-4.45,1.41-6.14-0.79-6.71-4.71c-0.44-3.04-2.22-6.48-1.28-8.9c0.6-1.53,5.17-1.39,7.9-2.22
		c2.13-0.65,4.43-1.28,6.18-2.56c4.31-3.17,9.13-4.14,14.28-4.93c5.51-0.85,10.86-2.74,16.29-4.13c2.44-0.62,4.91-1.58,7.38-1.61
		c6.67-0.09,12.93-1.05,18.63-4.93c3.37-2.3,4.66-1.61,5.8,2.23c0.32,1.09,0.59,2.19,0.88,3.29c2.18,8.19,2.18,8.82-5.87,11.94
		c-4.39,1.7-9.34,1.97-14.02,2.93c-3.01,0.62-6.02,1.25-9,2c-5.17,1.29-10.26,3.16-15.5,3.84c-4.9,0.64-9.26,1.68-13.51,4.45
		c-3.3,2.15-7.48,2.95-11.27,4.34C94.13,142.71,94.07,142.37,94,142.02z M92.53,136.1c3.68,1.63,7.16,0.76,10.03-1.51
		c4.84-3.83,10.31-4.87,16.25-5.45c4.55-0.44,8.96-2.26,13.46-3.33c3.94-0.94,7.95-1.58,11.88-2.55c4.62-1.14,9.21-2.42,13.76-3.8
		c0.58-0.17,0.88-1.28,1.09-1.6c-5.35,1.08-10.54,2.05-15.7,3.2c-4.22,0.94-8.41,2.04-12.59,3.16c-2.86,0.76-5.77,2.65-8.49,2.37
		C110.83,125.4,102.65,133.63,92.53,136.1z M158.09,114.96c-7.11,1.06-14,2.05-20.89,3.13c-1.51,0.24-3.19,0.44-4.44,1.22
		c-5.25,3.3-11.06,4.13-17.06,4.61c-2.94,0.23-5.99,0.6-8.71,1.62c-5.2,1.96-10.21,4.44-15.29,6.73c-0.12,0.05-0.06,0.5-0.12,1.14
		c3.96,0.73,7.65-0.16,10.65-2.56c4.48-3.58,9.61-4.38,15.04-5.05c4.56-0.56,9.01-1.98,13.51-3.04c4.07-0.95,8.14-1.89,12.19-2.88
		c4.48-1.09,8.97-2.16,13.4-3.41C157.2,116.24,157.8,115.23,158.09,114.96z"/>
	<path class="st0" d="M149.74,91.73c-11.81,5.51-18.62,4.25-27.5-4.9c-0.89-0.91-2.35-1.47-3.65-1.75
		c-10.02-2.13-15.14-11.66-11.42-21.22c0.58-1.49,0.83-3.25,0.72-4.84c-0.93-12.46,7.76-21.36,20.23-20.71
		c1.3,0.07,2.76-0.36,3.96-0.94c14.13-6.81,29.26,1.77,30.55,17.33c0.1,1.2,0.44,2.51,1.09,3.51c5.42,8.38,5.29,14.77-0.57,22.74
		c-0.31,0.42-0.44,0.98-0.65,1.48c0,0,0.16-0.16,0.16-0.16c-3.63,2.53-8.95,2.92-10.37,8.23C151.44,90.91,150.59,91.32,149.74,91.73
		z M162.65,67.79c-0.74-1.52-2.07-4.11-3.28-6.76c-0.72-1.59-1.75-3.24-1.8-4.89c-0.4-13.03-12.84-19.97-24.32-13.55
		c-1.35,0.75-3.2,1.15-4.73,0.96c-9.88-1.24-17.09,6.41-15.34,16.26c0.29,1.61-0.04,3.6-0.77,5.07c-3.53,7.15,0.39,14.27,8.35,15.4
		c1.9,0.27,4.13,1.62,5.3,3.16c6.01,8,16.98,8.59,23.69,1.19c1.53-1.69,3.59-3.01,5.62-4.13C159.89,78.03,162.22,74.3,162.65,67.79z
		"/>
	<path class="st0" d="M69.52,45.23c-0.29-7.16,2.65-10.95,9.61-12.22c6.56-1.19,13.13-2.34,19.71-3.43
		c4.58-0.76,8.87-0.4,11.72,3.95c2.38,3.64,1.79,7.37-1.83,12.1c-6.56,8.57-13.14,17.13-19.74,25.67C85.65,75.6,81.97,77.1,78,75.84
		c-4.08-1.3-6.39-4.68-6.79-9.81C70.67,59.09,70.08,52.16,69.52,45.23z M74.66,45.49c0.56,6.79,0.94,13.6,1.82,20.35
		c0.24,1.81,1.64,4.18,3.16,4.89c1.07,0.5,3.29-1.29,4.91-2.2c0.57-0.32,0.91-1.07,1.34-1.63c6.15-7.99,12.4-15.9,18.35-24.03
		c1.25-1.71,1.41-4.23,2.07-6.37c-2.3-0.61-4.68-1.95-6.88-1.7c-6.33,0.72-12.59,2.03-18.87,3.2
		C75.43,38.95,74.47,40.23,74.66,45.49z"/>
	<path class="st0" d="M123.54,114.76c-18.1,0.2-33.81-9.94-40.45-25.33c-1.63-3.78-0.5-7.05,2.55-9.5c3.1-2.48,6.64-2.68,9.8-0.18
		c1.61,1.27,2.88,3.11,3.93,4.91c5.54,9.51,13.71,14.03,24.71,13.32c6.19-0.39,10.28,2.69,10.47,7.92c0.15,4.15-2.29,7.5-6.37,8.37
		C126.27,114.7,124.25,114.69,123.54,114.76z M121.7,109.62c0.71,0,1.43,0.06,2.13-0.01c2.47-0.27,5.78,0.19,5.47-3.65
		c-0.28-3.44-3.26-2.71-5.66-2.79c-3.11-0.12-6.29-0.17-9.29-0.88c-8.47-2-14.7-7.09-19.15-14.54c-1.29-2.15-2.28-5.86-5.78-4.01
		c-4.08,2.15-0.82,5.05,0.4,7.17C96.87,103.14,107.73,109.09,121.7,109.62z"/>
	<path class="st0" d="M70.14,74.85c3.52,0.32,6.3,2.03,7.6,5.61c0.48,1.31,0.68,2.77,0.73,4.17c0.35,11.6,5.95,19.5,16.56,24.06
		c5.1,2.19,7.25,6.45,5.71,10.84c-1.54,4.37-6.18,6.51-10.74,4.96c-17.37-5.91-29.32-23.66-28.22-41.91
		C62.03,78.33,65.69,74.87,70.14,74.85z M70.76,79.67c-0.54-0.03-1.07-0.05-1.61-0.08c-0.73,1.51-2.04,3-2.09,4.53
		c-0.28,9.63,2.53,18.47,9.43,25.17c4.26,4.14,9.8,7.01,14.98,10.09c0.86,0.51,2.81-0.83,4.26-1.31c-0.59-1.41-0.91-3.03-1.85-4.15
		c-0.74-0.89-2.24-1.13-3.38-1.69c-8.67-4.3-14.12-11.23-16.38-20.59c-0.66-2.74-0.55-5.66-1.17-8.41
		C72.68,81.95,71.52,80.85,70.76,79.67z"/>
	<path class="st0" d="M149.74,91.73c0.85-0.41,1.7-0.82,2.55-1.24c2.46-0.3,4.93-0.6,6.79-0.83c1.31-2.7,2.45-5.05,3.58-7.4
		c0,0-0.16,0.16-0.16,0.16c4.15-2.14,8.29-3.1,12.2,0.45c1.79,1.63,2.97,3.49,1.37,5.98c-0.36,0.56-0.89,1.42-0.69,1.85
		c1.99,4.3-0.37,6.41-4.03,6.92c-2.2,0.31-4.61-0.93-6.93-1.48c0.19-0.4,0.38-0.81,0.57-1.21c-0.23,2.33-0.16,4.74-0.8,6.95
		c-0.38,1.29-2.29,3.35-2.85,3.16c-3.81-1.31-7.33,5.35-11.3,0.11c-1.76-2.33-2.66-3.78-1.03-6.65
		C150.04,96.69,149.55,94.02,149.74,91.73z M161.81,99.99c-0.62-1.55-0.9-4.19-2.36-5.39c-1.45-1.19-4.09-0.95-6.21-1.33
		c0.19,0.48,0.37,0.95,0.56,1.43c-0.57,2.29-1.14,4.58-1.82,7.3c0.36,0.3,1.19,0.99,1.52,1.26
		C156.23,102.19,158.45,101.32,161.81,99.99z M171.54,94.7c0.39-3.98,0.62-6.36,0.96-9.82c-1.82-0.13-4.36-1.03-6.08-0.22
		c-1.68,0.79-2.54,3.34-3.7,5.02C166.35,91.75,168.9,93.2,171.54,94.7z"/>
	<path class="st0" d="M149.83,64.56c-0.04,6.41-5.22,11.66-11.58,11.73c-6.56,0.07-11.87-5.26-11.84-11.89
		c0.03-6.4,5.2-11.66,11.58-11.75C144.47,52.56,149.87,57.98,149.83,64.56z M138.26,56.41c-0.28,0.19-1.51,0.7-1.47,1.04
		c0.11,0.77,0.73,1.96,1.34,2.1c2.85,0.64,4.47,2.16,4.93,5.09c0.08,0.54,1.16,0.93,1.78,1.39c0.48-0.75,1.33-1.48,1.38-2.25
		C146.45,60.32,142.24,56.25,138.26,56.41z"/>
</g>
</svg>
