<?xml version="1.0" encoding="utf-8"?>
<!-- Generator: Adobe Illustrator 23.0.3, SVG Export Plug-In . SVG Version: 6.00 Build 0)  -->
<svg version="1.1" id="Layer_1" xmlns="http://www.w3.org/2000/svg" xmlns:xlink="http://www.w3.org/1999/xlink" x="0px" y="0px"
	 viewBox="0 0 325.52 305.05" style="enable-background:new 0 0 325.52 305.05;" xml:space="preserve">
<style type="text/css">
	.st0{opacity:0.68;}
	.st1{fill:#FFFFFF;}
</style>
<rect x="0.29" y="0.44" class="st0" width="324.93" height="304.16"/>
<g>
	<path class="st1" d="M67.86,224.85h12.5c7.2,0.02,10.81,3.96,10.81,11.84v8.46c0,3.69-1.48,6.3-4.44,7.82
		c2.96,1.53,4.44,4.14,4.44,7.82v8.48c0,7.85-3.77,11.79-11.32,11.81H67.86V224.85z M75.97,232.84v16.11h2.55
		c1.13,0,1.9-0.08,2.32-0.23c1.47-0.59,2.21-1.79,2.21-3.58v-8.46c0-2.56-1.17-3.84-3.53-3.84H75.97z M75.97,256.98v16.11h3.55
		c2.35,0,3.53-1.27,3.53-3.81v-8.48c0-1.8-0.74-2.98-2.21-3.55c-0.42-0.17-1.19-0.26-2.32-0.26H75.97z"/>
	<path class="st1" d="M97.75,231.38h21.04v7.05h-12.93v14.24h11.12v7.11h-11.12V274h12.93v7.08H97.75V231.38z"/>
	<path class="st1" d="M124.81,231.38h12.5c7.2,0,10.8,3.49,10.8,10.46v7.45c0,3.27-1.48,5.58-4.44,6.94
		c2.96,1.36,4.44,3.66,4.44,6.91v7.51c0,6.94-3.77,10.41-11.32,10.43h-11.98V231.38z M132.92,238.43v14.24h2.55
		c1.13,0,1.9-0.07,2.32-0.2c1.47-0.52,2.21-1.58,2.21-3.18v-7.45c0-2.27-1.18-3.41-3.53-3.41H132.92z M132.92,259.78V274h3.55
		c2.35,0,3.53-1.12,3.53-3.35v-7.51c0-1.59-0.74-2.63-2.21-3.12c-0.42-0.15-1.19-0.23-2.32-0.23H132.92z"/>
	<path class="st1" d="M154.85,231.38h8.11v49.7h-8.11V231.38z"/>
	<path class="st1" d="M170.55,231.38h12.5c7.2,0,10.81,3.49,10.81,10.46v28.8c0,6.94-3.77,10.41-11.32,10.43h-11.98V231.38z
		 M178.66,238.43V274h3.55c2.35,0,3.53-1.12,3.53-3.35v-28.8c0-2.27-1.17-3.41-3.53-3.41H178.66z"/>
	<path class="st1" d="M223.35,263.45l2.64,17.63h-8.2l-1.58-10.55h-8.28l-1.6,10.55h-8.17l2.64-17.57l5.73-32.13h11.12
		L223.35,263.45z M215.15,263.45l-3.1-20.69l-3.09,20.69H215.15z"/>
	<path class="st1" d="M230.28,241.13c0-6.96,3.88-10.43,11.64-10.43c7.78,0,11.67,3.48,11.67,10.43v6.68h-8.11v-6.68
		c0-2.24-1.17-3.35-3.53-3.35h-0.06c-2.33,0-3.5,1.12-3.5,3.35v4.5c0,2.22,2.53,4.93,7.59,8.14c5.06,3.19,7.6,7.02,7.6,11.49v6.28
		c0,6.97-3.88,10.46-11.64,10.46c-7.78-0.02-11.67-3.51-11.67-10.46v-6.68h8.11v6.68c0,2.24,1.18,3.35,3.55,3.35
		c2.35,0,3.53-1.12,3.53-3.35v-5.67c0-2.41-2.53-5.22-7.59-8.43c-5.06-3.19-7.6-7.07-7.6-11.64V241.13z"/>
</g>
<g>
	<path class="st1" d="M114.6,78.68c-1.06,0-2.04,0.03-3.02-0.01c-2.25-0.08-3.95-0.98-3.9-3.99c0.07-4.68-0.02-9.36,0.09-14.04
		c0.07-2.76,0.93-3.53,3.68-3.62c3.36-0.1,6.72-0.17,10.07-0.18c11.91-0.03,23.82-0.02,35.73-0.03c0.4,0,0.8,0,1.35,0
		c0-0.48,0-0.87,0-1.27c0.02-9.03,0.02-18.05,0.06-27.08c0.01-1.42,0.12-2.85,0.33-4.25c0.37-2.45,3.37-3.54,5.35-2.03
		c0.97,0.74,1.45,1.56,1.44,2.89c-0.07,10.11-0.04,20.22-0.04,30.34c0,0.43,0,0.86,0,1.41c0.5,0,0.86,0,1.23,0
		c11.91,0.01,23.82,0.02,35.73,0.04c1.22,0,2.44,0.07,3.66,0.15c1.65,0.11,2.7,1.05,2.97,2.68c0.14,0.83,0.22,1.69,0.21,2.53
		c-0.05,4.51-0.08,9.02-0.23,13.53c-0.06,1.83-0.92,2.57-2.76,2.79c-0.67,0.08-1.35,0.12-2.03,0.15c-0.64,0.02-1.27,0.01-2,0.01
		c-0.11,1.46-0.22,2.81-0.32,4.16c-0.81,11.1-1.61,22.19-2.41,33.29c-0.72,10.02-1.39,20.03-2.15,30.05
		c-0.95,12.58-1.96,25.16-2.97,37.74c-0.13,1.65-0.38,3.3-0.65,4.94c-0.62,3.64-3.74,6.33-7.43,6.39
		c-6.07,0.09-12.14,0.18-18.22,0.19c-11.47,0.01-22.94-0.03-34.41-0.08c-1.66-0.01-3.39,0.11-4.96-0.31
		c-2.76-0.74-5.12-2.34-5.65-5.35c-0.69-3.93-1.1-7.92-1.44-11.9c-0.72-8.41-1.34-16.84-1.97-25.26
		c-0.45-6.02-0.85-12.05-1.28-18.07c-0.51-7.04-1.03-14.07-1.54-21.11c-0.44-6.12-0.87-12.25-1.31-18.37
		c-0.36-5.04-0.72-10.08-1.08-15.12C114.73,79.53,114.67,79.19,114.6,78.68z M121.91,78.76c0.02,0.43,0.03,0.79,0.06,1.15
		c0.26,3.35,0.55,6.69,0.79,10.04c0.58,7.92,1.13,15.83,1.7,23.75c0.91,12.52,1.83,25.03,2.75,37.55
		c0.88,11.91,1.79,23.81,2.65,35.72c0.07,0.93,0.39,1.16,1.29,1.16c15.34,0.01,30.68,0.05,46.01,0.07c2.78,0,5.56-0.05,8.35-0.12
		c1.73-0.04,1.72-0.08,1.83-1.76c0.11-1.56,0.26-3.11,0.37-4.67c0.43-5.85,0.85-11.71,1.29-17.56c0.58-7.68,1.18-15.35,1.74-23.03
		c0.79-10.83,1.53-21.65,2.32-32.48c0.71-9.74,1.45-19.48,2.18-29.23c0.01-0.19-0.03-0.38-0.05-0.61
		C170.76,78.76,146.38,78.76,121.91,78.76z M202.38,64.02c-29.24,0-58.38,0-87.53,0c0,2.53,0,4.99,0,7.47c29.21,0,58.34,0,87.53,0
		C202.38,68.99,202.38,66.55,202.38,64.02z"/>
	<path class="st1" d="M161.28,101.32c0.2,0.81-0.18,1.39-0.78,2c-6.54,6.51-13.05,13.04-19.57,19.57c-0.99,0.99-3.47,0.88-4.73-0.22
		c-1.33-1.15-1.63-3.08-0.5-4.34c1.97-2.19,4.01-4.33,6.09-6.42c4.21-4.23,8.46-8.42,12.7-12.62c0.43-0.43,0.93-0.8,1.37-1.21
		c0.87-0.81,1.91-1.15,2.99-0.64c1.21,0.58,2.21,1.47,2.44,2.92C161.32,100.65,161.28,100.97,161.28,101.32z"/>
	<path class="st1" d="M131.94,103.53c-0.27-0.95,0.25-1.62,0.96-2.3c4.28-4.16,8.51-8.38,12.8-12.53c1.21-1.17,2.72-1.24,4.13-0.42
		c1.34,0.78,2.04,2.24,1.66,3.72c-0.14,0.57-0.45,1.16-0.85,1.58c-3.01,3.18-6.05,6.32-9.1,9.46c-1.18,1.22-2.46,2.34-3.59,3.6
		c-1.17,1.3-2.58,0.94-3.85,0.57c-1.24-0.36-2.09-1.36-2.15-2.79C131.93,104.16,131.94,103.89,131.94,103.53z"/>
</g>
</svg>
