<?xml version="1.0" encoding="utf-8"?>
<!-- Generator: Adobe Illustrator 23.0.3, SVG Export Plug-In . SVG Version: 6.00 Build 0)  -->
<svg version="1.1" id="Layer_1" xmlns="http://www.w3.org/2000/svg" xmlns:xlink="http://www.w3.org/1999/xlink" x="0px" y="0px"
	 viewBox="0 0 325.52 305.05" style="enable-background:new 0 0 325.52 305.05;" xml:space="preserve">
<style type="text/css">
	.st0{opacity:0.68;}
	.st1{fill:#FFFFFF;}
</style>
<rect x="0.59" class="st0" width="324.93" height="304.16"/>
<g>
	<path class="st1" d="M64.24,226.33h12.5c7.2,0.02,10.81,3.96,10.81,11.84v8.46c0,3.69-1.48,6.3-4.44,7.82
		c2.96,1.53,4.44,4.14,4.44,7.82v8.48c0,7.85-3.77,11.79-11.32,11.81H64.24V226.33z M72.35,234.33v16.11h2.55
		c1.13,0,1.9-0.08,2.32-0.23c1.47-0.59,2.21-1.79,2.21-3.58v-8.46c0-2.56-1.18-3.84-3.53-3.84H72.35z M72.35,258.46v16.11h3.55
		c2.35,0,3.53-1.27,3.53-3.81v-8.48c0-1.8-0.74-2.98-2.21-3.55c-0.42-0.17-1.19-0.26-2.32-0.26H72.35z"/>
	<path class="st1" d="M117.15,273.02c0,6.96-3.89,10.44-11.67,10.46c-7.76,0-11.64-3.49-11.64-10.46v-40.07h8.11v40.07
		c0,2.24,1.18,3.35,3.53,3.35c2.37,0,3.55-1.12,3.55-3.35v-40.07h8.11V273.02z"/>
	<path class="st1" d="M124.32,232.87h11.81c7.2,0,10.81,3.49,10.81,10.46v7.45c0,4.38-2.13,7.26-6.39,8.66l9.11,23.13h-8.89
		l-7.31-21.87l-1.03,0.14v21.72h-8.11V232.87z M132.43,239.92v14.24h1.86c1.13,0,1.9-0.07,2.32-0.2c1.47-0.52,2.21-1.58,2.21-3.18
		v-7.45c0-2.27-1.18-3.41-3.53-3.41H132.43z"/>
	<path class="st1" d="M175.85,273.02c0,6.96-3.89,10.44-11.67,10.46c-7.76,0-11.64-3.49-11.64-10.46v-30.41
		c0-6.96,3.88-10.43,11.64-10.43c7.78,0,11.67,3.48,11.67,10.43v6.68h-8.11v-6.68c0-2.24-1.18-3.35-3.53-3.35h-0.06
		c-2.33,0-3.5,1.12-3.5,3.35v30.41c0,2.24,1.18,3.35,3.53,3.35c2.37,0,3.55-1.12,3.55-3.35v-11.67h-3.53v-7.08h11.64V273.02z"/>
	<path class="st1" d="M182.73,232.87h21.04v7.05h-12.93v14.24h11.12v7.11h-11.12v14.22h12.93v7.08h-21.04V232.87z"/>
	<path class="st1" d="M209.78,232.87h11.81c7.2,0,10.8,3.49,10.8,10.46v7.45c0,4.38-2.13,7.26-6.39,8.66l9.11,23.13h-8.89
		l-7.31-21.87l-1.03,0.14v21.72h-8.11V232.87z M217.89,239.92v14.24h1.86c1.13,0,1.9-0.07,2.32-0.2c1.47-0.52,2.21-1.58,2.21-3.18
		v-7.45c0-2.27-1.18-3.41-3.53-3.41H217.89z"/>
	<path class="st1" d="M239.13,242.61c0-6.96,3.88-10.43,11.64-10.43c7.78,0,11.67,3.48,11.67,10.43v6.68h-8.11v-6.68
		c0-2.24-1.18-3.35-3.53-3.35h-0.06c-2.33,0-3.5,1.12-3.5,3.35v4.5c0,2.22,2.53,4.93,7.6,8.14c5.06,3.19,7.59,7.02,7.59,11.49v6.28
		c0,6.97-3.88,10.46-11.64,10.46c-7.78-0.02-11.67-3.51-11.67-10.46v-6.68h8.11v6.68c0,2.24,1.18,3.35,3.55,3.35
		c2.35,0,3.53-1.12,3.53-3.35v-5.67c0-2.41-2.53-5.22-7.6-8.43c-5.06-3.19-7.59-7.07-7.59-11.64V242.61z"/>
</g>
<g>
	<g>
		<path class="st1" d="M234.86,99.68l-0.04-0.71c-0.13-3.8-0.8-7.59-1.95-11.19c-1.14-3.6-2.77-7.01-4.74-10.15
			c-1.96-3.15-4.26-6.03-6.77-8.66c-5.04-5.25-10.89-9.53-17.16-12.88c-3.13-1.68-6.36-3.16-9.66-4.43
			c-3.31-1.25-6.68-2.3-10.1-3.16c-6.84-1.73-13.9-2.52-20.96-2.42c-3.53,0.05-7.04,0.39-10.51,0.93c-3.47,0.55-6.9,1.28-10.26,2.26
			c-6.72,1.96-13.2,4.7-19.24,8.25c-3.02,1.78-5.92,3.75-8.66,5.94c-2.75,2.18-5.33,4.6-7.68,7.24
			c-4.68,5.27-8.46,11.53-10.38,18.46c-0.97,3.45-1.46,7.05-1.46,10.64c0,1.07,0.16,2.14,0.52,3.2c0.36,1.05,0.93,2.1,1.81,3
			c0.87,0.89,2.13,1.6,3.46,1.77c0.32,0.03,0.66,0.07,0.98,0.06c0.31-0.02,0.65-0.02,0.94-0.08l0.45-0.09
			c0.15-0.03,0.31-0.07,0.39-0.09l0.61-0.15c3.27-0.79,6.51-1.68,9.81-2.35c1.64-0.35,3.28-0.73,4.93-1.04l4.96-0.88
			c0.83-0.14,1.65-0.3,2.48-0.43l2.49-0.36c1.66-0.23,3.32-0.49,4.99-0.71l5.01-0.55c0.84-0.08,1.67-0.18,2.51-0.25l2.51-0.18
			c1.67-0.11,3.35-0.25,5.02-0.35l5.03-0.19c0.84-0.03,1.68-0.07,2.51-0.08l2.52-0.01c1.68,0,3.35-0.02,5.03,0.01l5.03,0.18
			c0.84,0.03,1.67,0.05,2.51,0.11l2.51,0.19c1.67,0.14,3.34,0.23,5.01,0.4l4.99,0.59c0.83,0.1,1.66,0.18,2.49,0.31l2.48,0.37
			c1.65,0.26,3.31,0.48,4.96,0.77l4.93,0.93c0.82,0.16,1.64,0.3,2.46,0.48l2.45,0.54l4.89,1.09l4.85,1.23l2.42,0.61l2.41,0.68
			l4.81,1.36c0.39,0.1,0.79,0.18,1.19,0.25c0.43,0.05,0.86,0.08,1.3,0.09c0.46-0.02,0.91-0.04,1.37-0.12
			c0.46-0.1,0.93-0.18,1.37-0.35c1.81-0.64,3.26-1.88,4.18-3.18c0.92-1.31,1.45-2.67,1.73-4c0.14-0.67,0.23-1.33,0.26-1.99
			l0.02-0.49C234.87,99.95,234.87,99.78,234.86,99.68z M220.73,100l-2.53-0.55c-0.85-0.17-1.7-0.32-2.55-0.48l-5.09-0.93
			c-1.7-0.28-3.41-0.51-5.12-0.76l-2.56-0.37c-0.85-0.12-1.71-0.2-2.57-0.3l-5.14-0.58c-1.71-0.16-3.43-0.29-5.15-0.44l-2.57-0.21
			c-0.86-0.07-1.72-0.1-2.58-0.15l-5.15-0.26c-1.72-0.06-3.44-0.09-5.15-0.14L172,94.76c-0.86-0.02-1.72,0-2.58,0l-5.15,0.01
			l-5.14,0.15l-2.57,0.07c-0.86,0.03-1.71,0.1-2.57,0.15l-5.13,0.32c-1.71,0.14-3.41,0.32-5.12,0.48
			c-13.65,1.28-27.14,3.86-40.39,7.27l-0.62,0.16c-0.12,0.03-0.17,0.04-0.23,0.05l-0.17,0.04c-0.12,0.03-0.22,0.01-0.32,0.03
			c-0.11,0.01-0.19-0.02-0.29-0.01c-0.36-0.05-0.66-0.22-0.98-0.52c-0.31-0.31-0.6-0.77-0.78-1.33c-0.18-0.55-0.28-1.17-0.28-1.8
			c0.01-3.19,0.47-6.38,1.34-9.45c0.87-3.08,2.15-6.04,3.77-8.82c1.62-2.79,3.56-5.39,5.74-7.81c2.18-2.41,4.58-4.64,7.16-6.65
			c2.59-2,5.34-3.81,8.19-5.43c5.7-3.27,11.9-5.65,18.24-7.33c1.38-0.37,2.78-0.68,4.17-0.96c-0.54,1.27-0.43,2.61,0.42,3.44
			c1.2,1.18,3.42,0.88,4.96-0.68c1.12-1.14,1.57-2.62,1.27-3.81c2.86-0.32,5.73-0.5,8.59-0.46c3.09,0.04,6.18,0.29,9.24,0.72
			c-0.18,1.15,0.3,2.52,1.37,3.58c1.56,1.54,3.79,1.82,4.97,0.61c0.71-0.72,0.88-1.79,0.58-2.87c1.05,0.25,2.09,0.52,3.13,0.81
			c3.13,0.89,6.22,1.96,9.21,3.23c2.99,1.29,5.89,2.75,8.67,4.39c5.57,3.27,10.65,7.31,14.83,12.02c4.17,4.7,7.4,10.13,9,15.94
			c0.8,2.9,1.21,5.88,1.2,8.85l0.01,0.56c0,0.11,0,0.15-0.01,0.2l-0.01,0.14c-0.02,0.19-0.05,0.37-0.09,0.53
			c-0.05,0.19-0.11,0.34-0.17,0.46L220.73,100z M225.79,101.11l-0.1-0.02C225.83,101.08,225.91,101.12,225.79,101.11z"/>
		<path class="st1" d="M228.07,158.24c-0.05-0.26-0.16-0.57-0.25-0.85c-0.11-0.3-0.25-0.61-0.4-0.91c-0.34-0.63-0.79-1.27-1.41-1.79
			c-0.59-0.54-1.29-0.9-1.95-1.14c-0.17-0.07-0.33-0.11-0.48-0.15l-0.47-0.11l-0.24-0.05l-0.14-0.02l-0.28-0.04l-4.44-0.61
			l-2.22-0.3c-0.74-0.1-1.48-0.17-2.23-0.26c-2.97-0.33-5.93-0.7-8.9-0.96c-1.48-0.15-2.96-0.32-4.45-0.46l-4.45-0.41
			c-11.87-1.13-23.78-1.64-35.7-1.52c-5.96,0.03-11.91,0.28-17.86,0.63c-1.49,0.1-2.97,0.23-4.46,0.34
			c-1.48,0.13-2.97,0.21-4.45,0.38c-2.96,0.32-5.93,0.57-8.89,0.98l-4.44,0.56l-4.42,0.65c-2.95,0.4-5.88,0.95-8.83,1.43l-1.1,0.18
			l-0.55,0.09c-0.04,0-0.12,0.02-0.18,0.04l-0.21,0.05l-0.42,0.11c-0.28,0.08-0.59,0.22-0.87,0.35c-0.29,0.16-0.58,0.34-0.86,0.54
			c-0.54,0.43-1.02,0.97-1.32,1.53c-0.64,1.13-0.82,2.18-0.93,3.07c-0.1,0.91-0.1,1.71-0.11,2.48l-0.01,1.1
			c-0.01,0.17,0.01,0.39,0.01,0.6l0.02,0.63c0.02,0.42,0.03,0.84,0.06,1.26l0.18,1.25c0.23,1.67,0.75,3.28,1.36,4.84
			c1.28,3.1,3.24,5.81,5.45,8.14c2.22,2.33,4.72,4.31,7.33,6.03c5.24,3.43,10.91,5.93,16.7,7.88c2.9,0.97,5.84,1.82,8.8,2.54
			c2.97,0.71,5.96,1.3,8.97,1.77c6.01,0.96,12.16,1.4,18.3,1.3c3.06-0.09,6.13-0.24,9.19-0.61l1.15-0.12l1.14-0.16
			c0.76-0.11,1.52-0.21,2.29-0.33c1.52-0.27,3.04-0.51,4.55-0.85c1.52-0.29,3.01-0.7,4.51-1.07c1.49-0.43,2.98-0.84,4.45-1.34
			c2.94-0.97,5.85-2.08,8.68-3.4c5.66-2.61,11.08-5.95,15.75-10.36c2.35-2.19,4.49-4.68,6.26-7.56c0.46-0.7,0.84-1.48,1.24-2.24
			c0.36-0.8,0.73-1.58,1-2.45c0.58-1.69,0.99-3.54,0.95-5.54c-0.02-0.69-0.03-1.44-0.06-2.28
			C228.39,160.25,228.33,159.34,228.07,158.24z M221.88,159.36c-0.02,0-0.03-0.01-0.06-0.02c-0.04-0.04-0.09-0.05-0.08-0.03
			c0,0.03,0.01,0.06,0.02,0.11c0.01,0.08,0.03,0.12,0.04,0.22c0.06,0.36,0.08,0.93,0.06,1.57l-0.08,2.16
			c-0.05,0.97-0.33,2.05-0.78,3.12c-0.2,0.54-0.51,1.08-0.78,1.61c-0.33,0.53-0.62,1.07-1.01,1.58c-0.7,1.05-1.57,2.05-2.45,3.02
			c-0.92,0.95-1.87,1.89-2.9,2.78c-4.1,3.54-8.88,6.47-13.92,8.9c-2.52,1.21-5.15,2.24-7.81,3.15c-1.33,0.47-2.69,0.86-4.04,1.27
			c-1.37,0.35-2.73,0.74-4.11,1.05c-5.51,1.33-11.18,2.02-16.88,2.33c-5.7,0.26-11.41,0.02-17.11-0.72
			c-2.85-0.37-5.68-0.84-8.49-1.43c-2.81-0.59-5.59-1.31-8.32-2.14c-5.47-1.66-10.78-3.84-15.54-6.77
			c-2.37-1.47-4.59-3.13-6.51-5.03c-1.91-1.9-3.53-4.03-4.58-6.38c-0.49-1.18-0.93-2.39-1.13-3.65l-0.17-0.94
			c-0.03-0.32-0.04-0.64-0.07-0.96l-0.03-0.48c-0.01-0.16-0.03-0.31-0.03-0.51l-0.02-1.12c-0.01-0.72-0.02-1.39,0.03-1.96
			c0.04-0.57,0.16-1.01,0.26-1.17c0.1-0.16,0.05-0.17,0.33-0.28c0.04-0.01,0.08-0.02,0.12-0.03l0.06-0.02
			c0.02-0.01,0.03-0.01,0.09-0.02l0.54-0.11l1.08-0.21c2.88-0.56,5.77-1.12,8.67-1.58l4.35-0.71l4.37-0.6
			c2.91-0.43,5.83-0.72,8.75-1.06c1.46-0.18,2.92-0.28,4.39-0.42c1.46-0.13,2.93-0.27,4.39-0.39c5.86-0.4,11.73-0.76,17.61-0.82
			c1.47-0.01,2.94-0.06,4.41-0.05l4.41,0.05l2.2,0.02l2.2,0.08l4.41,0.17c1.47,0.06,2.93,0.18,4.4,0.27c1.47,0.1,2.93,0.17,4.4,0.32
			l4.39,0.41c0.73,0.07,1.46,0.13,2.19,0.21l2.19,0.26l4.37,0.55c1.45,0.21,2.9,0.46,4.36,0.68c1.45,0.26,2.9,0.46,4.34,0.76
			l4.32,0.87c0.72,0.15,1.44,0.28,2.16,0.45l2.15,0.49l4.29,0.97l0.27,0.06l0.13,0.03l0.03,0.02c0.02,0.01,0.04,0.02,0.07,0.03
			c0.03,0.01,0.05,0.01,0.04,0.02C221.87,159.35,221.91,159.35,221.88,159.36z"/>
		<path class="st1" d="M191.04,61.1c-1.18,1.2-0.88,3.42,0.68,4.96c1.56,1.54,3.79,1.82,4.97,0.61c1.18-1.2,0.88-3.42-0.68-4.96
			C194.45,60.17,192.22,59.89,191.04,61.1z"/>
		<path class="st1" d="M131.74,61.74c-1.54,1.56-1.82,3.79-0.61,4.97c1.2,1.18,3.42,0.88,4.96-0.68c1.54-1.56,1.82-3.79,0.61-4.97
			C135.5,59.87,133.28,60.18,131.74,61.74z"/>
		<path class="st1" d="M164.02,59.91c-1.69,0.01-3.04,1.8-3.03,3.99c0.02,2.19,1.4,3.96,3.08,3.95c1.69-0.01,3.04-1.8,3.03-3.99
			C167.08,61.67,165.7,59.9,164.02,59.91z"/>
	</g>
	<path class="st1" d="M94.66,127.89c1.97,1.38,3.84,2.86,5.69,4.36c1.84,1.51,3.65,3.05,5.48,4.58l1.37,1.15l0.34,0.29l0.09,0.07
		c0.02,0.02,0.03,0.01,0.04,0.02l0.07,0.04l0.19,0.11l0.2,0.11c0.54,0.26,1.08,0.36,1.58,0.32c0.99-0.08,1.89-0.63,2.56-1.65
		l-0.29,0.41l1.48-2.66l1.5-2.64l3-5.29c0.05-0.09,0.11-0.18,0.17-0.26l0.15-0.19c0.94-1.25,2.14-2.39,3.58-3.26
		c1.43-0.88,3.1-1.47,4.84-1.68c1.74-0.21,3.54-0.01,5.19,0.55c1.65,0.55,3.14,1.46,4.37,2.54c0.02,0.02,0.04,0.03,0.05,0.05
		l0.21,0.21l10.87,10.86l-0.29-0.28c0.61,0.43,0.98,0.43,1.32,0.32c0.17-0.07,0.36-0.16,0.57-0.36c0.05-0.05,0.11-0.1,0.16-0.16
		c0.03-0.03,0.05-0.06,0.08-0.1l0.21-0.24l1.11-1.27l4.47-5.05l2.24-2.53l0.56-0.63l0.28-0.32l0.19-0.21l0.25-0.27
		c0.67-0.7,1.44-1.35,2.29-1.92c1.68-1.14,3.71-1.93,5.84-2.16c2.12-0.24,4.33,0.05,6.27,0.84c0.97,0.39,1.89,0.89,2.71,1.47
		c0.2,0.15,0.41,0.29,0.6,0.45l0.29,0.23l0.19,0.16l0.65,0.54l2.56,2.2l5.09,4.43l2.55,2.21l1.29,1.09l0.35,0.3
		c0.06,0.05,0.11,0.09,0.17,0.12c0.22,0.13,0.4,0.18,0.58,0.18c0.18,0.01,0.36-0.03,0.56-0.14c0.2-0.11,0.44-0.28,0.67-0.57
		c0.06-0.07,0.11-0.15,0.17-0.24l0.46-0.69l0.94-1.4l1.87-2.81l0.93-1.41l0.23-0.35l0.38-0.55c0.28-0.38,0.57-0.75,0.89-1.1
		c1.27-1.43,2.9-2.66,4.79-3.47c1.88-0.81,4.02-1.19,6.12-1.01c2.1,0.16,4.15,0.86,5.86,1.92c0.43,0.26,0.84,0.55,1.23,0.85
		l0.53,0.42l0.32,0.27l1.3,1.08l5.2,4.3l5.23,4.27l2.62,2.13l2.63,2.12c2.83,2.28,3.28,6.42,1,9.25s-6.42,3.28-9.25,1
		c-0.1-0.08-0.22-0.18-0.32-0.27l-2.49-2.28l-2.5-2.26l-5.01-4.52l-5.03-4.5l-1.26-1.12l-0.32-0.28l-0.09-0.07l-0.04-0.04
		c-0.05-0.05-0.1-0.09-0.15-0.12c-0.19-0.14-0.33-0.19-0.47-0.23c-0.14-0.03-0.29-0.02-0.48,0.04c-0.19,0.06-0.41,0.19-0.65,0.44
		c-0.06,0.06-0.12,0.13-0.18,0.2l-0.11,0.14l-0.24,0.35l-0.96,1.39l-1.92,2.78l-0.96,1.39l-0.49,0.71
		c-0.26,0.38-0.54,0.75-0.85,1.11c-1.21,1.44-2.77,2.71-4.59,3.57c-1.82,0.87-3.9,1.31-5.98,1.24c-2.08-0.06-4.11-0.68-5.85-1.65
		c-0.44-0.24-0.85-0.5-1.25-0.79c-0.2-0.14-0.39-0.29-0.58-0.43l-0.39-0.31l-1.32-1.05l-2.66-2.08l-5.32-4.15l-2.65-2.09l-0.66-0.53
		l-0.08-0.07l-0.04-0.03l-0.01-0.01l-0.04-0.03c-0.02-0.02-0.05-0.03-0.08-0.05c-0.1-0.06-0.19-0.1-0.26-0.12
		c-0.14-0.05-0.24-0.07-0.35-0.06c-0.11,0.01-0.25,0.03-0.44,0.13c-0.09,0.05-0.2,0.12-0.31,0.23l-0.04,0.04
		c-0.01,0.01-0.01,0.01-0.03,0.03l-0.07,0.08l-0.29,0.31l-0.58,0.61l-2.31,2.46l-4.63,4.91l-1.17,1.22l-0.37,0.38
		c-0.17,0.17-0.34,0.34-0.51,0.5c-0.35,0.33-0.73,0.64-1.12,0.94c-1.57,1.19-3.48,2.06-5.51,2.43c-1.02,0.18-2.06,0.24-3.09,0.18
		c-1.03-0.07-2.05-0.27-3.02-0.57c-1.94-0.62-3.67-1.7-5.03-3l-0.18-0.17c-0.04-0.04-0.08-0.08-0.11-0.11L129,132.15l0.26,0.26
		c-0.27-0.29-0.53-0.48-0.79-0.61c-0.26-0.13-0.53-0.2-0.81-0.2c-0.56-0.01-1.24,0.24-1.88,0.94l0.31-0.45l-3.34,5.08l-1.67,2.54
		l-1.69,2.53l-0.19,0.29c-0.03,0.04-0.06,0.09-0.1,0.13c-1.14,1.36-2.61,2.55-4.32,3.33c-1.71,0.78-3.65,1.12-5.54,0.94
		c-1.89-0.17-3.69-0.85-5.16-1.86c-0.18-0.13-0.36-0.26-0.54-0.39c-0.18-0.14-0.34-0.26-0.52-0.43l-0.28-0.25l-0.13-0.12l-0.08-0.08
		l-0.31-0.33l-1.24-1.31c-1.65-1.75-3.31-3.48-4.95-5.24c-1.63-1.77-3.23-3.56-4.74-5.46c-0.85-1.07-0.67-2.63,0.4-3.48
		C92.57,127.28,93.78,127.27,94.66,127.89L94.66,127.89z"/>
	<path class="st1" d="M101.5,110.57l0.58-0.14l0.52-0.12l1.02-0.21c0.67-0.14,1.34-0.27,2-0.39c1.33-0.24,2.65-0.47,3.96-0.67
		c2.63-0.41,5.26-0.76,7.89-1.05c5.25-0.6,10.5-0.98,15.75-1.22c5.25-0.23,10.49-0.33,15.72-0.26c5.23,0.07,10.45,0.27,15.66,0.59
		c10.41,0.69,20.78,1.84,31.04,3.51c10.27,1.65,20.44,3.76,30.49,6.29c1.09,0.27,1.75,1.38,1.47,2.46c-0.26,1.05-1.29,1.7-2.34,1.5
		l-0.01,0c-10.07-1.91-20.21-3.38-30.38-4.4c-10.17-1.04-20.37-1.55-30.54-1.62c-5.09,0-10.17,0.1-15.24,0.34
		c-5.07,0.23-10.13,0.63-15.16,1.15c-5.03,0.53-10.04,1.2-14.98,2.07c-2.48,0.42-4.93,0.9-7.36,1.43c-1.22,0.26-2.42,0.54-3.62,0.84
		c-0.59,0.15-1.19,0.3-1.77,0.45l-0.86,0.24l-0.42,0.12c-0.12,0.04-0.29,0.08-0.35,0.11c-2.98,1.05-6.25-0.52-7.3-3.5
		c-1.05-2.98,0.52-6.25,3.5-7.3c0.19-0.07,0.38-0.12,0.56-0.17L101.5,110.57z"/>
</g>
</svg>
