<?xml version="1.0" encoding="utf-8"?>
<!-- Generator: Adobe Illustrator 23.0.3, SVG Export Plug-In . SVG Version: 6.00 Build 0)  -->
<svg version="1.1" id="Layer_1" xmlns="http://www.w3.org/2000/svg" xmlns:xlink="http://www.w3.org/1999/xlink" x="0px" y="0px"
	 viewBox="0 0 325.5 305" style="enable-background:new 0 0 325.5 305;" xml:space="preserve">
<style type="text/css">
	.st0{fill:#FFFFFF;}
	.st1{opacity:0.68;enable-background:new    ;}
	.st2{enable-background:new    ;}
</style>
<path class="st0" d="M109.1,136.7c-1.5-2.2-3-3.5-2.8-4.4c0.3-1.2,1.9-2.7,3.1-2.9c0.8-0.1,2.7,1.8,2.7,2.8
	C112.1,133.4,110.6,134.6,109.1,136.7z"/>
<path class="st0" d="M117.3,108.1c-2.4,1.3-3.7,2.5-4.8,2.3c-1.2-0.1-2.1-1.6-3.2-2.5c1.2-1,2.2-2.5,3.5-2.7
	C113.7,105.1,115,106.6,117.3,108.1z"/>
<rect x="0.3" y="0.4" class="st1" width="324.9" height="304.2"/>
<g class="st2">
	<path class="st0" d="M55,223h11.8c7.2,0,10.8,4,10.8,11.8v8.5c0,5.8-2.6,9.6-7.8,11.2c-1.2,0.4-3,0.6-5.4,0.6h-1.3v24.1H55V223z
		 M63.1,230.9v16.1H65c1.1,0,1.9-0.1,2.3-0.2c1.5-0.6,2.2-1.8,2.2-3.6v-8.5c0-2.6-1.2-3.8-3.5-3.8H63.1z"/>
	<path class="st0" d="M106.2,261.6l2.6,17.6h-8.2l-1.6-10.5h-8.3l-1.6,10.5H81l2.6-17.6l5.7-32.1h11.1L106.2,261.6z M98,261.6
		l-3.1-20.7l-3.1,20.7H98z"/>
	<path class="st0" d="M113.7,229.5h12.5c7.2,0,10.8,3.5,10.8,10.5v28.8c0,6.9-3.8,10.4-11.3,10.4h-12V229.5z M121.8,236.5v35.6h3.6
		c2.4,0,3.5-1.1,3.5-3.4v-28.8c0-2.3-1.2-3.4-3.5-3.4H121.8z"/>
	<path class="st0" d="M143.9,229.5h11.8c7.2,0,10.8,3.5,10.8,10.5v7.5c0,4.4-2.1,7.3-6.4,8.7l9.1,23.1h-8.9l-7.3-21.9l-1,0.1v21.7
		h-8.1V229.5z M152,236.5v14.2h1.9c1.1,0,1.9-0.1,2.3-0.2c1.5-0.5,2.2-1.6,2.2-3.2v-7.5c0-2.3-1.2-3.4-3.5-3.4H152z"/>
	<path class="st0" d="M174,229.5h8.1v49.7H174V229.5z"/>
	<path class="st0" d="M189.7,229.5h8.1l7.7,28.8v-28.8h7.5v49.7h-8.1l-7.4-27.9v27.9h-7.8V229.5z"/>
	<path class="st0" d="M243.2,269.6c0,7-3.9,10.4-11.7,10.5c-7.8,0-11.6-3.5-11.6-10.5v-30.4c0-7,3.9-10.4,11.6-10.4
		c7.8,0,11.7,3.5,11.7,10.4V269.6z M235.1,239.2c0-2.2-1.2-3.4-3.5-3.4h-0.1c-2.3,0-3.5,1.1-3.5,3.4v30.4c0,2.2,1.2,3.4,3.5,3.4
		c2.4,0,3.6-1.1,3.6-3.4V239.2z"/>
	<path class="st0" d="M249.5,239.2c0-7,3.9-10.4,11.6-10.4c7.8,0,11.7,3.5,11.7,10.4v6.7h-8.1v-6.7c0-2.2-1.2-3.4-3.5-3.4h-0.1
		c-2.3,0-3.5,1.1-3.5,3.4v4.5c0,2.2,2.5,4.9,7.6,8.1c5.1,3.2,7.6,7,7.6,11.5v6.3c0,7-3.9,10.5-11.6,10.5c-7.8,0-11.7-3.5-11.7-10.5
		V263h8.1v6.7c0,2.2,1.2,3.4,3.6,3.4c2.3,0,3.5-1.1,3.5-3.4V264c0-2.4-2.5-5.2-7.6-8.4c-5.1-3.2-7.6-7.1-7.6-11.6V239.2z"/>
</g>
<g>
	<path class="st0" d="M56.4,148.3c0.2-0.7,0.4-1.4,0.6-2.1c0.3-0.9,0.9-1.4,1.9-1.2c0.4,0.1,0.9,0.2,1.3,0.1c0.3,0,0.7-0.3,0.8-0.5
		c2.9-7.7,8.1-12.8,16.3-14.4c8.7-1.6,17.2-3.7,25.5-6.7c19.2-6.8,37.4-15.7,54.9-25.9c16.6-9.7,32.4-20.5,47.1-32.9
		c6.4-5.5,12.3-11.5,17.8-17.8c3.1-3.5,6.6-6.5,11.2-7.6c3.2-0.8,6.5-1.1,9.8-0.4c0.9,0.2,1.4,0.1,1.5-1c0.1-0.5,0.7-1,1.1-1.5
		c0.4,0,0.9,0,1.3,0c0.2,0.1,0.4,0.2,0.6,0.2c2.8,0.8,5.1,2.2,6.7,4.8c-0.6,0.6-1.1,1.2-1.7,1.8c4.1,3.7,6.8,8.1,7.6,13.5
		c0.8,5.4-0.4,10.4-3.1,15.2c0.4,0.3,0.6,0.4,0.9,0.7c2.3,2.2,4.9,4.2,6.7,6.7c3.9,5.1,6,11,6.4,17.5c0.5,8-0.7,15.6-5,22.5
		c-5.2,8.2-11.7,15-20.1,19.9c-33,19.1-66.1,38.1-99.1,57.2c-6.1,3.6-12.7,5.9-19.6,7.2c-1.7,0.3-3.4,0.4-5.1,0.6c-2,0-3.9,0-5.9,0
		c-0.3-0.1-0.6-0.2-1-0.2c-6.7-0.2-12.7-2.6-18.2-6.3c-6.6-4.6-11.5-10.5-13.7-18.4c-0.6-2.1-0.8-4.2-1.1-6.4
		c-0.1,0-0.1-0.1-0.2-0.1c-0.3,0-0.6,0-0.9,0c-4.2,0.1-8.2-1-11.7-3.4c-4.7-3.2-7.9-7.6-9.4-13.1c-0.3-1-0.6-1.6-1.8-1.4
		c-0.8,0.2-1.3-0.2-1.5-0.9c-0.3-0.8-0.5-1.6-0.7-2.4C56.4,150.5,56.4,149.4,56.4,148.3z M119.3,197.8c2.5-0.1,5.1-0.1,7.5-0.5
		c5.7-0.9,11-2.9,16-5.8c32.2-18.5,64.4-37,96.7-55.5c5.3-3,10.1-6.6,14.5-10.9c5-5,8.7-10.8,10.6-17.7c1-3.7,1-7.4,0.6-11.2
		c-0.7-6.8-3.5-12.5-8.5-17.1c-1.8-1.6-4-2.6-6.4-3c-3.1-0.5-5.6,0.8-7.8,2.7c-7.6,6.2-15.6,12.1-23.8,17.5
		c-28.3,18.7-57.6,35.6-87.6,51.2c-10.7,5.5-21.5,10.8-32.8,15c-1.7,0.6-3.4,1.4-5.1,2.3c-2.2,1.2-3.6,3.2-4,5.7
		c-0.5,2.9-0.2,5.8,0.8,8.5c2.3,6.2,6.7,10.6,12,14.1C107.4,196.7,113.1,198.3,119.3,197.8z M102.6,143.6c2.9-0.3,5.7-0.4,8.5-0.9
		c4.2-0.7,7.4-3.2,10-6.4c2.1-2.5,4.2-5,6.4-7.4c1.3-1.5,3.1-2.3,5.2-2.3c1.5-0.1,2.9-0.1,4.4-0.2c2.2-0.1,4.5-0.1,6.7-0.2
		c5-0.1,8.6-2.5,11.4-6.5c1.7-2.5,3.7-4.8,5.6-7.2c1.8-2.2,4.1-3.4,7-3.7c2.6-0.3,5.1-0.7,7.6-0.8c4.8-0.3,8.6-2.2,11.1-6.4
		c0.6-1,1.3-1.9,1.9-2.8c1.3-2.1,2.6-4.2,3.9-6.2c1.3-2.1,3.2-3.4,5.6-3.9c3.3-0.7,6.7-1.3,10-2c3.6-0.7,7-2,9.4-5
		c3.6-4.4,6.4-9.2,8.4-14.6c0.3-0.8,0.4-1.7,0.3-2.6c0-1-1-1.8-2.1-1.9c-1-0.1-2-0.2-2.6,1c-1,2-1.9,4-3,5.8
		c-1.7,2.8-3.4,5.6-5.2,8.2c-1.3,1.8-3.1,2.8-5.3,3.2c-2.6,0.5-5.1,1.2-7.7,1.5c-6.4,0.8-11.3,3.7-14.2,9.7c-0.4,0.9-1,1.7-1.5,2.5
		c-1.1,1.6-2.1,3.3-3.2,4.8c-1.1,1.6-2.8,2.6-4.8,2.8c-2.6,0.3-5.3,0.6-8,0.8c-5.1,0.5-9.4,2.3-12.5,6.5c-1.8,2.4-3.8,4.8-5.5,7.2
		c-1.6,2.2-3.6,3.5-6.3,3.6c-3.2,0.1-6.4,0.3-9.6,0.4c-2.8,0.1-5.6,0.3-8,2c-1.8,1.3-3.4,2.8-5,4.4c-2.4,2.5-4.6,5.2-7,7.7
		c-1.3,1.4-2.9,2.2-4.7,2.3c-2.6,0.2-5.2,0.5-7.8,0.5c-2.5,0-5-0.4-7.4-0.5c-1.7-0.1-3,1-3.2,2.5c-0.2,1.6,0.6,2.7,2.5,3
		C96.7,143,99.7,143.3,102.6,143.6z"/>
	<path class="st0" d="M208.5,53.3c-2.3,2.1-4.4,4-6.5,5.8c-0.7,0.6-1.7,1.2-2.6,1.4c-4.8,1.1-8.9,3.6-12.8,6.5
		c-23.2,17.1-48.1,31.2-74.4,42.7c-3,1.3-5.9,2.8-8.1,5.3c-2.9,3.2-6.6,4.9-10.7,5.7c-0.8,0.2-1.7,0.4-2.7,0.7
		c0.1-0.4,0.2-0.6,0.3-0.8c3.8-5.4,8.1-10.6,13.9-14c3.3-2,7-3.4,10.6-5.1c23.9-10.8,46.4-24.1,67.6-39.5c4.1-3,8.4-5.8,13.4-7
		c3.6-0.9,7.2-1.8,11-1.7C207.6,53.2,207.9,53.2,208.5,53.3z"/>
	<path class="st0" d="M256.9,101.4c0.7,5.1-1.6,9.8-4.7,14.1c-3.3,4.7-7.5,8.4-12.3,11.6c-1.2,0.8-2.3,1-3.5,0.2
		c-1.6-1.1-2-3-0.6-4.5c0.7-0.7,1.5-1.3,2.4-2c3.8-2.9,7.2-6.2,9.8-10.2c3.4-5.1,3.8-10.6,2.1-16.4c-0.2-0.5-0.4-1-0.5-1.6
		c-0.5-1.6,0.3-3.1,1.8-3.7c1.6-0.6,3.1-0.1,3.9,1.4c1.1,2.2,1.7,4.5,1.8,6.9C257,98.6,256.9,99.8,256.9,101.4z"/>
</g>
</svg>
