<?xml version="1.0" encoding="utf-8"?>
<!-- Generator: Adobe Illustrator 23.0.3, SVG Export Plug-In . SVG Version: 6.00 Build 0)  -->
<svg version="1.1" id="Layer_1" xmlns="http://www.w3.org/2000/svg" xmlns:xlink="http://www.w3.org/1999/xlink" x="0px" y="0px"
	 viewBox="0 0 325.5 305" style="enable-background:new 0 0 325.5 305;" xml:space="preserve">
<style type="text/css">
	.st0{fill:#FFFFFF;}
	.st1{opacity:0.68;enable-background:new    ;}
	.st2{enable-background:new    ;}
</style>
<path class="st0" d="M109.1,136.7c-1.5-2.2-3-3.5-2.8-4.4c0.3-1.2,1.9-2.7,3.1-2.9c0.8-0.1,2.7,1.8,2.7,2.8
	C112.1,133.4,110.6,134.6,109.1,136.7z"/>
<path class="st0" d="M117.3,108.1c-2.4,1.3-3.7,2.5-4.8,2.3c-1.2-0.1-2.1-1.6-3.2-2.5c1.2-1,2.2-2.5,3.5-2.7
	C113.7,105.1,115,106.6,117.3,108.1z"/>
<rect x="0.3" y="0.4" class="st1" width="324.9" height="304.2"/>
<g class="st2">
	<path class="st0" d="M78.4,223h11.8c7.2,0,10.8,4,10.8,11.8v8.5c0,5.8-2.6,9.6-7.8,11.2c-1.2,0.4-3,0.6-5.4,0.6h-1.3v24.1h-8.1V223
		z M86.5,230.9v16.1h1.9c1.1,0,1.9-0.1,2.3-0.2c1.5-0.6,2.2-1.8,2.2-3.6v-8.5c0-2.6-1.2-3.8-3.5-3.8H86.5z"/>
	<path class="st0" d="M129.6,261.6l2.6,17.6H124l-1.6-10.5h-8.3l-1.6,10.5h-8.2l2.6-17.6l5.7-32.1h11.1L129.6,261.6z M121.4,261.6
		l-3.1-20.7l-3.1,20.7H121.4z"/>
	<path class="st0" d="M137.1,229.5h11.8c7.2,0,10.8,3.5,10.8,10.5v7.5c0,5.1-2.6,8.5-7.8,9.9c-1.2,0.4-3,0.5-5.4,0.5h-1.3v21.3h-8.1
		V229.5z M145.2,236.5v14.2h1.9c1.1,0,1.9-0.1,2.3-0.2c1.5-0.5,2.2-1.6,2.2-3.2v-7.5c0-2.3-1.2-3.4-3.5-3.4H145.2z"/>
	<path class="st0" d="M188.8,269.6c0,7-3.9,10.4-11.7,10.5c-7.8,0-11.6-3.5-11.6-10.5v-40.1h8.1v40.1c0,2.2,1.2,3.4,3.5,3.4
		c2.4,0,3.6-1.1,3.6-3.4v-40.1h8.1V269.6z"/>
	<path class="st0" d="M195.4,239.2c0-7,3.9-10.4,11.6-10.4c7.8,0,11.7,3.5,11.7,10.4v6.7h-8.1v-6.7c0-2.2-1.2-3.4-3.5-3.4H207
		c-2.3,0-3.5,1.1-3.5,3.4v4.5c0,2.2,2.5,4.9,7.6,8.1c5.1,3.2,7.6,7,7.6,11.5v6.3c0,7-3.9,10.5-11.6,10.5c-7.8,0-11.7-3.5-11.7-10.5
		V263h8.1v6.7c0,2.2,1.2,3.4,3.6,3.4c2.4,0,3.5-1.1,3.5-3.4V264c0-2.4-2.5-5.2-7.6-8.4c-5.1-3.2-7.6-7.1-7.6-11.6V239.2z"/>
	<path class="st0" d="M225.5,229.5h8.1v21.3h7.1v-21.3h8.1v49.7h-8.1v-21.3h-7.1v21.3h-8.1V229.5z"/>
</g>
<g>
	<path class="st0" d="M101.2,58.4c-0.4-4-0.7-7.9-1.1-11.8c-0.1-1.2-0.3-2.5-0.2-3.7c0-2.7,2-4.9,4.6-5.2c6.3-0.7,12.6-1.3,18.9-1.8
		c3.3-0.3,5.7,2.1,6,5.6c0.4,4.1,0.8,8.2,1.2,12.6c1.1-0.1,2.1-0.1,2.9-0.2c0-3.1,0.1-6,0-9c-0.1-3.9-0.4-7.8-0.6-11.6
		c-0.1-4.1,2-6.2,6.1-6.4c5.8-0.2,11.6-0.5,17.4-0.8c3.8-0.1,5.8,1.8,6.1,5.6c0.2,3,0.3,6.1,0.9,9.1c0.3-2.4,0.8-4.8,0.9-7.2
		c0.3-7.5,3.6-8.6,9.6-7.6c4.6,0.8,9.3,1.2,13.9,1.6c4.1,0.4,5.9,2.3,6.3,5.5c0.1,0.4,0.9,1,1.4,1c3.2,0.5,6.3,0.9,9.5,1.2
		c4.2,0.5,6.2,3,5.6,7.2c-0.3,2.2-0.5,4.5-0.8,6.9c2.1,0.3,4.1,0.5,6.1,0.8c3.8,0.6,5.3,1.9,5.9,5.5c0.3,2,1.3,2.6,3.1,2.8
		c4,0.5,8,1.2,12,1.9c3.4,0.6,5.4,3.2,4.8,6.7c-1,6.4-2.1,12.9-3.1,19.3c-0.2,1.2-0.3,2.1,0.9,3c1.8,1.3,1.8,3.4,1.5,5.4
		c-0.9,5.8-1.9,11.7-2.8,17.5c-2.5,16.1-5,32.2-7.6,48.3c-1.8,11.5-3.6,23-5.4,34.5c-0.7,4.1-3.8,5.9-7.8,4.5
		c-11-3.8-22.3-5.7-33.8-6.2c-10.8-0.5-21.6-0.7-32.3-0.4c-13.6,0.4-27,2.2-39.9,6.7c-3.7,1.3-6.9-0.8-7.5-4.6
		c-4.2-26.6-8.3-53.1-12.5-79.7c-1.1-7.1-2.2-14.1-3.3-21.2c-0.3-2.3,0.5-4.1,2.3-5.5c0.5-0.4,0.9-1.3,0.8-1.9
		c-1-6.9-2-13.9-3.1-20.8c-0.6-3.7,1.5-6.3,5.3-6.8C96,59.2,98.5,58.8,101.2,58.4z M113.9,187.9c16.9-4.6,33.9-5.9,51-5.8
		c17.1,0.1,34,1.2,50.7,5.8c4.8-30.3,9.5-60.4,14.2-90.7c-5.3,0-10.4,0-15.6,0.1c-0.4,0-0.9,0.7-1.1,1.2c-0.9,1.8-1.6,3.8-2.7,5.4
		c-3.4,5.3-8.4,9-13.9,11.9c-20.1,10.4-40.5,10.9-60.9,1.3c-8.8-4.1-16.5-9.7-19.5-19.7c-5.4,0-10.8,0-16.3,0
		C104.4,127.6,109.2,157.6,113.9,187.9z M126.6,65.4c0,0.5-0.1,0.7-0.1,1c0.8,12.3,1.5,24.6,2.3,36.9c0,0.7,0.6,1.5,1.2,1.9
		c2.8,1.9,5.7,3.6,8.6,5.4c0.6,0.3,1.3,0.5,2.2,0.9c-1-15.8-1.9-31.2-2.9-46.8C134.1,64.9,130.4,65.2,126.6,65.4z M149.7,81.9
		c-0.1,0.2-0.1,0.3-0.2,0.4c-0.3,10.3-0.6,20.7-0.9,31c0,0.4,0.4,1.1,0.8,1.2c3.4,0.7,6.8,1.3,10.6,2.1c0.4-11.8,0.7-23.1,1-34.6
		C157,81.9,153.4,81.9,149.7,81.9z M167.7,116.4c2.8,0.2,2.8,0.2,2.8-2.7c0-19.7,0-39.4,0-59.1c0-0.8,0-1.5,0-2.1
		c-3.9,0-7.6,0-11.3,0c0,7.6,0,14.9,0,22.3c1.8,0.1,3.5,0.2,5.1,0.3c2.9,0.2,4.1,1.4,4,4.3c-0.2,6.8-0.4,13.5-0.6,20.3
		C167.6,105.1,167.7,110.7,167.7,116.4z M181.6,114.3c3.2-1.3,6-2.4,8.8-3.4c1.1-0.4,1.5-1.3,1.7-2.4c0.9-6.3,1.9-12.5,2.9-18.8
		c0.5-3.1,0.9-6.3,1.4-9.5c-3.6-0.6-7-1.1-10.6-1.6C184.4,90.4,183,102.1,181.6,114.3z M212,61.1c-3.9-0.6-7.6-1.2-11.3-1.7
		c-0.5,4-1,8.1-1.6,12.1c-0.2,1.5,0.1,2.1,1.7,2.3c2.5,0.3,3.7,2.1,3.3,4.6c-1.1,6.7-2.1,13.4-3.2,20.1c-0.3,1.9-0.6,3.9-0.9,6.1
		c3.7-2.5,6.2-6.8,6.4-10.7c0.1-0.7,0.1-1.5,0.5-1.9c1.6-1.4,1.3-3.3,1.6-5.1c0.3-1.5,0.4-3.1,0.6-4.6
		C210.1,75.2,211.1,68.2,212,61.1z M151.9,74.4c0-12.4,0-24.7,0-37.1c-2.7,0.2-5.2,0.3-7.8,0.5c0.6,12.3,1.1,24.4,1.6,36.7
		C147.8,74.4,149.7,74.4,151.9,74.4z M112.5,89.9c-1.1-7.4-2.2-14.6-3.2-21.7c-2.9,0.4-5.5,0.9-8.1,1.2c-1.1,0.1-1.4,0.6-1.2,1.5
		c0.9,5.9,1.7,11.8,2.7,17.7c0.1,0.5,0.8,1.2,1.2,1.2C106.6,89.9,109.4,89.9,112.5,89.9z M227.1,89.8c1-6.4,2-12.7,3-19.1
		c-3.3-0.5-6.3-1-9.5-1.5c-1.1,6.9-2.2,13.7-3.3,20.6C220.7,89.8,223.8,89.8,227.1,89.8z M111.3,48.1c0.3,3.7,0.7,7.1,1,10.6
		c2,0.4,3.2,1.5,3.5,3.5c1.2,8.6,2.5,17.3,3.8,25.9c0.1,0.7,0.4,1.3,0.6,1.9c0.2,0,0.3-0.1,0.5-0.1c0-0.5,0.1-1,0.1-1.5
		c-0.2-2.8-0.5-5.5-0.5-8.3c0.1-7.7-2.1-15.2-0.4-23c0.7-3-0.4-6.4-0.8-9.8C116.3,47.6,113.9,47.8,111.3,48.1z M174.1,43.2
		c3.2,0.5,3.6,2.7,3.6,5.4c-0.1,8.4,0,16.7,0,25.1c0,0.8,0,1.6,0,2.4c3.2-12.4,3.6-25.1,5.5-37.8c-2.9-0.3-5.6-0.7-8.4-1
		C174.6,39.3,174.4,41.2,174.1,43.2z M191.6,72.2c0.2-1.1,0.3-2,0.4-2.9c0.7-5.3,1.4-10.6,2.1-15.9c0.3-1.9,1.3-3.2,3.2-3.3
		c1.4-0.1,1.6-0.7,1.7-1.8c0-0.8,0.1-1.6,0.2-2.5c-2.8-0.3-5.5-0.7-8.3-1c-1.1,9.1-2.1,17.9-3.1,26.8
		C189.2,71.8,190.3,72,191.6,72.2z"/>
</g>
</svg>
