<?xml version="1.0" encoding="utf-8"?>
<!-- Generator: Adobe Illustrator 23.0.3, SVG Export Plug-In . SVG Version: 6.00 Build 0)  -->
<svg version="1.1" id="Layer_1" xmlns="http://www.w3.org/2000/svg" xmlns:xlink="http://www.w3.org/1999/xlink" x="0px" y="0px"
	 viewBox="0 0 325.5 305" style="enable-background:new 0 0 325.5 305;" xml:space="preserve">
<style type="text/css">
	.st0{opacity:0.68;enable-background:new    ;}
	.st1{enable-background:new    ;}
	.st2{fill:#FFFFFF;}
</style>
<rect x="0.3" y="0.4" class="st0" width="324.9" height="304.2"/>
<g class="st1">
	<path class="st2" d="M84.9,226.8h11.8c7.2,0,10.8,4,10.8,11.8v8.5c0,5.8-2.6,9.6-7.8,11.2c-1.2,0.4-3,0.6-5.4,0.6H93V283h-8.1
		V226.8z M93,234.8v16.1h1.9c1.1,0,1.9-0.1,2.3-0.2c1.5-0.6,2.2-1.8,2.2-3.6v-8.5c0-2.6-1.2-3.8-3.5-3.8H93z"/>
	<path class="st2" d="M113.7,233.3h8.1V283h-8.1V233.3z"/>
	<path class="st2" d="M152.1,273.5c0,7-3.9,10.4-11.7,10.5c-7.8,0-11.6-3.5-11.6-10.5v-30.4c0-7,3.9-10.4,11.6-10.4
		c7.8,0,11.7,3.5,11.7,10.4v6.7H144v-6.7c0-2.2-1.2-3.4-3.5-3.4h-0.1c-2.3,0-3.5,1.1-3.5,3.4v30.4c0,2.2,1.2,3.4,3.5,3.4
		c2.4,0,3.6-1.1,3.6-3.4v-6.7h8.1V273.5z"/>
	<path class="st2" d="M158.1,243.1c0-7,3.9-10.4,11.6-10.4c7.8,0,11.7,3.5,11.7,10.4v6.7h-8.1v-6.7c0-2.2-1.2-3.4-3.5-3.4h-0.1
		c-2.3,0-3.5,1.1-3.5,3.4v4.5c0,2.2,2.5,4.9,7.6,8.1c5.1,3.2,7.6,7,7.6,11.5v6.3c0,7-3.9,10.5-11.6,10.5c-7.8,0-11.7-3.5-11.7-10.5
		v-6.7h8.1v6.7c0,2.2,1.2,3.4,3.6,3.4c2.4,0,3.5-1.1,3.5-3.4v-5.7c0-2.4-2.5-5.2-7.6-8.4c-5.1-3.2-7.6-7.1-7.6-11.6V243.1z"/>
	<path class="st2" d="M210.9,265.4l2.6,17.6h-8.2l-1.6-10.5h-8.3l-1.6,10.5h-8.2l2.6-17.6l5.7-32.1h11.1L210.9,265.4z M202.7,265.4
		l-3.1-20.7l-3.1,20.7H202.7z"/>
	<path class="st2" d="M217.9,243.1c0-7,3.9-10.4,11.6-10.4c7.8,0,11.7,3.5,11.7,10.4v6.7h-8.1v-6.7c0-2.2-1.2-3.4-3.5-3.4h-0.1
		c-2.3,0-3.5,1.1-3.5,3.4v4.5c0,2.2,2.5,4.9,7.6,8.1c5.1,3.2,7.6,7,7.6,11.5v6.3c0,7-3.9,10.5-11.6,10.5c-7.8,0-11.7-3.5-11.7-10.5
		v-6.7h8.1v6.7c0,2.2,1.2,3.4,3.6,3.4c2.4,0,3.5-1.1,3.5-3.4v-5.7c0-2.4-2.5-5.2-7.6-8.4c-5.1-3.2-7.6-7.1-7.6-11.6V243.1z"/>
</g>
<path class="st2" d="M80.4,113.7c1.2-6,1.7-12.2,3.6-18c11-33.4,33.6-54.2,68.6-59.5c46.3-6.9,86.9,23.2,95.4,69.4
	c0.6,3.5,0.9,7.1,1.1,10.7c0.2,5.6-0.2,5.9-5.7,5.9c-22.7,0-45.3,0-68,0c-1.6,0-3.1,0-5.4,0c2.2,4,4.1,7.4,6.1,10.8
	c10.1,17.5,20.2,34.9,30.3,52.4c3.1,5.3,3,5.6-2.4,8.4c-50.5,26.5-111.7-3.5-122-59.9c-0.5-2.8-1-5.6-1.5-8.3
	C80.4,121.8,80.4,117.8,80.4,113.7z M134.3,178.1c2.3,1.1,4.2,2,6.1,2.8c15,5.8,30.1,6,45.4,1.4c1.6-0.5,4.8,0.1,5.3,1.2
	c1.3,2.7-1.3,3.5-3.4,4.2c-10.6,3.4-21.6,5-32.6,2.9c-8-1.5-15.9-4.1-24.4-6.3c-0.6,0.9-1.5,2.6-2.7,4.6
	c24.6,12.1,48.6,12.1,73.1,0.1c-1-1.7-1.7-3.1-2.4-4.4c-11.7-20.3-23.4-40.7-35-61c-3.1-5.4-2.1-7.1,4.1-7.1c19.4,0,38.7,0,58.1,0
	c1.5,0,3.1,0,4.8,0c0-1.2,0.1-1.9,0-2.6c-1.9-17-8.8-31.5-21.4-43.2c-1.6-1.5-3.8-3.2-1.4-5.2c0.9-0.8,4.1,0,5.4,1.1
	c10.8,9.8,18,21.7,21.3,35.9c1,4.5,1.6,9.2,2.4,13.8c2,0,3.8,0,5.6,0c1.4-22.8-16.4-53.1-36.4-62.6c-0.9,1.5-1.8,2.9-2.6,4.4
	c-9.4,16.3-18.9,32.7-28.4,49c-1.2,2.1-2.1,5.6-5.5,3.6c-3.4-2.1-0.5-4.6,0.6-6.6c2.6-4.8,5.4-9.4,8.1-14.1
	c5.5-9.6,11.1-19.3,16.8-29.2c-8.3-4.2-16.5-6.7-25.3-7.2c-9.2-0.6-18.2,0.4-27.1,3.3c-1.3,0.4-3.1-0.9-4.7-1.4c1-1.3,1.7-3.4,3-3.8
	c10.1-3.7,20.6-5.5,31.2-3.6c8.8,1.6,17.3,4.2,26.5,6.4c0.5-0.9,1.4-2.6,2.4-4.2c-22.8-13.6-56.4-11.3-72.7,0.4
	c10.4,18.1,20.8,36.2,31.3,54.2c1.2,2,2.8,4.2-0.1,5.8c-2.6,1.4-3.7-0.9-4.8-2.8c-3.4-5.8-6.7-11.7-10.1-17.5
	c-5.1-8.9-10.3-17.8-15.4-26.6c-13.3,7.8-23.7,21.9-28.2,37.9c-0.7,2.5-1,5.1-1.9,7.5c-0.3,0.9-1.9,1.9-2.8,1.8
	c-0.9-0.1-2.1-1.4-2.4-2.3c-0.4-1.1-0.1-2.6,0.2-3.8c2.5-11,6.6-21.4,14.1-29.9c5.3-6.1,11.4-11.4,17.4-17.3
	c-0.7-1.1-1.6-2.7-2.6-4.2c-21.7,11.6-38.1,42.1-36.1,63c20.3,0,40.7,0,61,0c1.4,0,3-0.2,4.3,0.3c1,0.4,2.3,1.8,2.2,2.6
	c-0.1,1.1-1.3,2.4-2.3,3c-0.9,0.5-2.2,0.2-3.4,0.2c-13.5,0-27,0-40.4,0c-3.1,0-6.2,0-9.5,0c-0.1,1-0.2,1.6-0.2,2.1
	c1.7,17.5,8.9,32.4,22,44.3c1.7,1.5,3.6,3.3,1.3,5.2c-0.9,0.7-3.8,0.1-5-0.9c-8.8-7.6-15.6-16.9-19.3-27.9
	c-2.4-7.2-3.8-14.8-5.7-22.6c-1.4,0-3.3,0-5.2,0c-0.7,24,15.7,51.4,36.3,62.9c0.7-1.2,1.5-2.4,2.2-3.6c10-17.2,19.9-34.4,30-51.5
	c0.7-1.2,3.4-2.5,4.5-2.1c2.5,1,1.6,3.2,0.4,5c-2.3,3.9-4.6,7.9-6.9,11.9C147,156,140.8,166.9,134.3,178.1z"/>
<path class="st2" d="M274,139.6c-1.7,7.5-2.7,15.2-5.2,22.4c-6.4,18.5-18.2,32.8-34.9,43.2c-4.3,2.7-5,2.5-7.6-2
	c-12.6-21.8-25.1-43.6-37.6-65.4c-3.2-5.6-2.4-7,4-7c25.2,0,50.4,0,75.6,0.1c1.9,0,3.8,1.2,5.7,1.8C274,135,274,137.3,274,139.6z
	 M231.2,199.8c22.5-13,37.5-41.8,36.3-63.1c-24.1,0-48.2,0-72.7,0c10.2,17.8,20.2,35.1,30.3,52.7c15.5-10.5,25.3-24.3,29.3-42.3
	c0.3-1.5,2.4-3.9,3.5-3.8c2.9,0.1,3,2.9,2.2,5c-3.1,8.1-5.9,16.4-10,24c-5,9.3-13,16.2-22,22.2C229.2,196.4,230.2,198.1,231.2,199.8
	z"/>
<path class="st2" d="M204.3,89.6c5.4,0,9.5,4,9.6,9.4s-4.1,9.6-9.3,9.6c-5.3,0-9.6-4.2-9.7-9.4C194.8,93.9,199.1,89.6,204.3,89.6z
	 M208.7,99.8c0-0.6-0.1-1.1-0.1-1.7c-1.5-0.9-3.1-2.5-4.5-2.3c-1.2,0.1-3.1,2.3-3,3.4c0,1.2,2.1,3.2,3.3,3.2
	C205.8,102.5,207.3,100.8,208.7,99.8z"/>
<path class="st2" d="M135.6,90.8c0,5.4-4,9.4-9.5,9.4c-5.3,0-9.5-4.2-9.5-9.4c0-5.1,4.5-9.6,9.6-9.6
	C131.4,81.2,135.6,85.4,135.6,90.8z M131.3,91.1c-2.2-1.8-3.6-3.8-4.8-3.7c-1.4,0.2-3.4,2-3.7,3.4c-0.2,1,1.8,3.5,2.9,3.6
	C127.3,94.3,128.8,92.6,131.3,91.1z"/>
<path class="st2" d="M156.6,178.5c-5.5-0.1-9.3-4-9.2-9.6c0.1-5.3,4.4-9.6,9.6-9.5c5.1,0.1,9.5,4.8,9.4,9.8
	C166.3,174.5,162,178.5,156.6,178.5z M156.8,163.9c-1.8,2.3-3.8,3.9-3.6,4.9c0.3,1.5,2.3,2.7,3.5,4.1c1.2-1.3,3.1-2.5,3.4-4
	C160.4,167.7,158.4,166.2,156.8,163.9z"/>
<path class="st2" d="M140.2,137.1c0.1,5.5-3.7,9.5-9.2,9.6c-5.6,0.1-9.6-3.7-9.7-9.1c-0.1-5.2,4.1-9.7,9.3-9.8
	C135.6,127.5,140.1,131.9,140.2,137.1z M130.4,142.6c1.9-2.4,3.8-3.8,3.8-5.3c0.1-1.2-2.1-3.6-3.1-3.5c-1.5,0.1-3.7,1.9-3.9,3.2
	C127,138.4,128.8,140.1,130.4,142.6z"/>
<path class="st2" d="M169.5,84.5c-2.1,1.7-3.3,3.3-4.4,3.2c-1.3-0.1-2.5-1.7-3.7-2.7c1-1,1.9-2.8,3-2.9
	C165.7,82,167.2,83.3,169.5,84.5z"/>
<path class="st2" d="M109.1,136.7c-1.5-2.2-3-3.5-2.8-4.4c0.3-1.2,1.9-2.7,3.1-2.9c0.8-0.1,2.7,1.8,2.7,2.8
	C112.1,133.4,110.6,134.6,109.1,136.7z"/>
<path class="st2" d="M161.8,68.2c-2.3,1.6-3.6,3.1-4.6,2.9c-1.3-0.2-2.4-1.7-3.6-2.7c1-1,2-2.6,3.1-2.7
	C157.9,65.6,159.3,66.9,161.8,68.2z"/>
<path class="st2" d="M172.4,64.1c1.6,2,3.2,3.1,3.3,4.2c0.1,0.9-1.9,2.8-2.8,2.7c-1.2-0.1-2.8-1.5-3.3-2.7
	C169.4,67.6,171,66.2,172.4,64.1z"/>
<path class="st2" d="M129.4,156.7c-2.3,1.6-3.5,3.1-4.4,2.9c-1.3-0.2-2.3-1.8-3.4-2.8c1-0.9,2-2.4,3.1-2.5
	C125.8,154.2,127.1,155.4,129.4,156.7z"/>
<path class="st2" d="M180.9,167.9c-2.5,1.3-3.8,2.6-5.1,2.4c-1.1-0.1-2-1.8-3-2.7c1.2-1,2.2-2.5,3.5-2.7
	C177.4,164.8,178.6,166.3,180.9,167.9z"/>
<path class="st2" d="M117.3,108.1c-2.4,1.3-3.7,2.5-4.8,2.3c-1.2-0.1-2.1-1.6-3.2-2.5c1.2-1,2.2-2.5,3.5-2.7
	C113.7,105.1,115,106.6,117.3,108.1z"/>
<path class="st2" d="M142,108.6c-1.2,0.7-2.4,2-3.5,1.8c-1.1-0.1-2.1-1.6-3.2-2.4c0.9-1,1.8-2.7,2.8-2.8c1.2-0.1,2.6,1.1,3.9,1.7
	C142,107.5,142,108.1,142,108.6z"/>
<path class="st2" d="M164.6,148.9c-1.6-1.9-3.4-3.1-3.2-3.8c0.3-1.2,1.8-2.6,3-2.9c0.8-0.1,2.6,1.5,2.8,2.5
	C167.4,145.6,165.9,146.9,164.6,148.9z"/>
<path class="st2" d="M242.6,150.2c-1.9,1.8-2.9,3.4-4.2,3.8c-0.8,0.2-3.1-1.7-2.9-2.4c0.2-1.3,1.4-3,2.7-3.5
	C238.9,147.6,240.5,149.1,242.6,150.2z"/>
<path class="st2" d="M220,154.7c-1.4-1.9-2.9-3.1-2.7-3.8c0.4-1.4,1.7-2.4,2.7-3.6c1.1,0.9,3,1.9,3,2.8
	C222.9,151.3,221.4,152.6,220,154.7z"/>
<path class="st2" d="M231.8,161.4c0.7,1.1,2.3,2.5,2,3.4c-0.4,1.3-2,2.2-3.1,3.3c-0.9-0.9-2.5-1.9-2.5-2.7c0-1.3,1.2-2.6,1.9-3.9
	C230.8,161.4,231.3,161.4,231.8,161.4z"/>
</svg>
