<?xml version="1.0" encoding="utf-8"?>
<!-- Generator: Adobe Illustrator 23.0.3, SVG Export Plug-In . SVG Version: 6.00 Build 0)  -->
<svg version="1.1" id="Layer_1" xmlns="http://www.w3.org/2000/svg" xmlns:xlink="http://www.w3.org/1999/xlink" x="0px" y="0px"
	 viewBox="0 0 325.52 305.05" style="enable-background:new 0 0 325.52 305.05;" xml:space="preserve">
<style type="text/css">
	.st0{opacity:0.68;}
	.st1{fill:#FFFFFF;}
</style>
<rect x="0.29" y="0.44" class="st0" width="324.93" height="304.16"/>
<g>
	<path class="st1" d="M69.82,224.85h11.81c7.2,0.02,10.81,3.96,10.81,11.84v8.46c0,5.81-2.59,9.55-7.77,11.23
		c-1.24,0.4-3.05,0.6-5.42,0.6h-1.32v24.1h-8.11V224.85z M77.93,232.84v16.11h1.86c1.13,0,1.9-0.08,2.32-0.23
		c1.47-0.59,2.21-1.79,2.21-3.58v-8.46c0-2.56-1.18-3.84-3.53-3.84H77.93z"/>
	<path class="st1" d="M98.46,231.38h11.81c7.2,0,10.81,3.49,10.81,10.46v7.45c0,4.38-2.13,7.26-6.39,8.66l9.11,23.13h-8.89
		l-7.31-21.87l-1.03,0.14v21.72h-8.11V231.38z M106.57,238.43v14.24h1.86c1.13,0,1.9-0.07,2.32-0.2c1.47-0.52,2.21-1.58,2.21-3.18
		v-7.45c0-2.27-1.18-3.41-3.53-3.41H106.57z"/>
	<path class="st1" d="M149.76,271.54c0,6.96-3.89,10.44-11.67,10.46c-7.76,0-11.64-3.49-11.64-10.46v-30.41
		c0-6.96,3.88-10.43,11.64-10.43c7.78,0,11.67,3.48,11.67,10.43V271.54z M141.65,241.13c0-2.24-1.18-3.35-3.53-3.35h-0.06
		c-2.33,0-3.5,1.12-3.5,3.35v30.41c0,2.24,1.18,3.35,3.53,3.35c2.37,0,3.55-1.12,3.55-3.35V241.13z"/>
	<path class="st1" d="M174.29,265.43l9.43-34.05h8.11v49.7h-7.77v-27.89l-6.94,27.89h-5.5l-7.14-27.89v27.89h-7.85v-49.7h8.11
		L174.29,265.43z"/>
	<path class="st1" d="M222.01,271.54c0,6.96-3.89,10.44-11.67,10.46c-7.76,0-11.64-3.49-11.64-10.46v-30.41
		c0-6.96,3.88-10.43,11.64-10.43c7.78,0,11.67,3.48,11.67,10.43V271.54z M213.9,241.13c0-2.24-1.18-3.35-3.53-3.35h-0.06
		c-2.33,0-3.5,1.12-3.5,3.35v30.41c0,2.24,1.18,3.35,3.53,3.35c2.37,0,3.55-1.12,3.55-3.35V241.13z"/>
	<path class="st1" d="M228.32,241.13c0-6.96,3.88-10.43,11.64-10.43c7.78,0,11.67,3.48,11.67,10.43v6.68h-8.11v-6.68
		c0-2.24-1.17-3.35-3.53-3.35h-0.06c-2.33,0-3.5,1.12-3.5,3.35v4.5c0,2.22,2.53,4.93,7.59,8.14c5.06,3.19,7.6,7.02,7.6,11.49v6.28
		c0,6.97-3.88,10.46-11.64,10.46c-7.78-0.02-11.67-3.51-11.67-10.46v-6.68h8.11v6.68c0,2.24,1.18,3.35,3.55,3.35
		c2.35,0,3.53-1.12,3.53-3.35v-5.67c0-2.41-2.53-5.22-7.59-8.43c-5.06-3.19-7.6-7.07-7.6-11.64V241.13z"/>
</g>
<g>
	<g>
		<path class="st1" d="M111.27,189.76c-5.75,0.88-11.12,0.09-16.25-2.25c-9.48-4.34-16.36-11.45-21.5-20.38
			c-4.73-8.21-7.16-17.05-6.65-26.53c0.3-5.61,1.81-10.96,5.31-15.53c0.68-0.89,0.93-1.53,0.23-2.7c-2.1-3.48-3.97-7.04-4.08-11.35
			c-0.21-7.76,3.26-13.35,9.73-17.15c13.32-7.81,26.73-15.48,40.1-23.21c12.65-7.31,25.29-14.62,37.94-21.92
			c11.14-6.43,22.28-12.85,33.44-19.24c8.9-5.1,19.91-1.83,25.27,7.44c0.06,0.11,0.13,0.23,0.18,0.35c0.93,2.03,1.97,2.99,4.69,2.56
			c4.92-0.79,9.81,0.28,14.36,2.41c13.23,6.19,21.47,16.75,26.19,30.3c1.87,5.37,2.73,10.95,2.36,16.62
			c-0.4,5.96-2.04,11.61-5.93,16.28c-1.27,1.53-0.81,2.56-0.14,3.94c1.07,2.19,2.33,4.36,2.96,6.69c2.1,7.79-1.56,16.18-8.6,20.24
			c-13.16,7.58-26.34,15.13-39.49,22.73c-12.81,7.41-25.58,14.9-38.39,22.31c-11.19,6.47-22.46,12.79-33.6,19.35
			c-9.76,5.75-21.78,1.56-26.41-8.05C112.52,191.68,111.88,190.78,111.27,189.76z M209.94,129.13c0.3-5.55-1.61-10.19-4.28-14.52
			c-3.35-5.42-7.71-9.68-14.14-11.38c-3.88-1.03-8.58,0.5-10.97,3.54c-3.15,4.01-3.45,8.61-2.51,13.24
			c1.76,8.7,6.29,15.73,14.1,20.19c4.3,2.46,9.89,3.12,14.06-0.82C209.25,136.5,210.26,132.91,209.94,129.13z M129.94,87.67
			c-3.78,0.4-6.96,1.99-8.91,5.66c-2.15,4.04-2.22,8.27-1.12,12.55c2.33,9.06,7.01,16.42,16,20.09c5.63,2.3,12.01,0.63,14.57-5.5
			c1.46-3.5,1.51-7.12,0.82-10.78c-1.03-5.45-3.46-10.27-7.07-14.42C140.53,91,136,88.03,129.94,87.67z M179.37,74.44
			c-0.01-2.45-1.13-3.7-3.04-3.99c-1.59-0.24-3.36,1.09-3.85,2.92c-3.41,12.68-6.82,25.35-10.2,38.03
			c-3.85,14.42-7.68,28.85-11.52,43.27c-0.46,1.71,0.55,3.75,2.11,4.21c2.06,0.61,3.98-0.4,4.53-2.41
			c1.69-6.14,3.41-12.27,5.06-18.42c4.95-18.45,9.87-36.92,14.79-55.38C178.02,79.76,178.75,76.83,179.37,74.44z"/>
		<path class="st1" d="M203.15,128.75c0,0.26,0.01,0.52,0,0.77c-0.08,2.11-0.24,4.33-2.41,5.33c-2.05,0.94-4.03,0.08-5.8-1.09
			c-5.84-3.85-9.27-9.22-10.08-16.19c-0.15-1.3-0.17-2.67,0.04-3.96c0.52-3.27,2.57-4.48,5.76-3.44c3.82,1.25,6.47,4.06,8.63,7.22
			C201.59,120.76,203.25,124.48,203.15,128.75z"/>
		<path class="st1" d="M145.04,113.43c-0.23,1.52-0.28,2.57-0.57,3.55c-0.73,2.5-2.63,3.58-5.19,2.85
			c-3.65-1.04-6.28-3.49-8.49-6.46c-2.73-3.66-4.34-7.82-4.64-12.33c-0.11-1.62,0.56-3.45,1.37-4.92c1.06-1.93,3.31-2.01,6.08-0.57
			c4.92,2.57,7.92,6.79,9.81,11.84C144.19,109.48,144.59,111.72,145.04,113.43z"/>
	</g>
</g>
</svg>
