<?xml version="1.0" encoding="utf-8"?>
<!-- Generator: Adobe Illustrator 23.0.3, SVG Export Plug-In . SVG Version: 6.00 Build 0)  -->
<svg version="1.1" id="Layer_1" xmlns="http://www.w3.org/2000/svg" xmlns:xlink="http://www.w3.org/1999/xlink" x="0px" y="0px"
	 viewBox="0 0 325.52 305.05" style="enable-background:new 0 0 325.52 305.05;" xml:space="preserve">
<style type="text/css">
	.st0{fill:#FFFFFF;}
</style>
<g>
	<g>
		<path class="st0" d="M94.58,132.21l-1.27,4.9l-13.43-1.02l-7.42-0.77l0.99-3.81l16.18,2.05l-15.14-6.07l0.99-3.81l6.89,2.93
			L94.58,132.21z"/>
		<path class="st0" d="M78.18,116.76l3.97-8.28l2.97,1.42l-2.28,4.76l4.85,2.32l1.96-4.1l2.98,1.43l-1.96,4.1l4.85,2.32l2.28-4.76
			l2.97,1.42l-3.97,8.28L78.18,116.76z"/>
		<path class="st0" d="M91.58,94.47l2.66,1.94l-1.83,2.51l14.01,10.22l-2.3,3.15l-14.01-10.22l-1.83,2.51l-2.66-1.94L91.58,94.47z"
			/>
		<path class="st0" d="M96.49,88.99l6.65-6.33l2.27,2.38l-3.83,3.64l3.7,3.9l3.29-3.13l2.27,2.39l-3.29,3.13l3.7,3.9l3.83-3.64
			l2.27,2.39l-6.66,6.33L96.49,88.99z"/>
		<path class="st0" d="M132.53,79.92l4.27,6.15l-3.53,1.74l-2.47-3.56l-2.57,1.27l1.3,4.14L126,91.38l-2.25-7.1l-3.72-12.96
			l4.54-2.23L132.53,79.92z M128.89,81.5l-3.6-5.19l1.91,6.01L128.89,81.5z"/>
		<path class="st0" d="M147.62,82.95l-3.22-20.38l3.85-0.61l2.71,17.13l5.22-0.83l0.51,3.25L147.62,82.95z"/>
		<path class="st0" d="M170.23,74.23l0.88,7.43l-3.93-0.13l-0.51-4.3l-2.87-0.09L163,81.41l-3.92-0.13l1.35-7.33l2.8-13.19
			l5.06,0.16L170.23,74.23z M166.26,73.92l-0.74-6.27l-1.14,6.21L166.26,73.92z"/>
		<path class="st0" d="M189.04,64.49l5.09,1.81c2.95,1.06,3.93,2.99,2.94,5.78l-1.02,2.87c-0.47,1.32-1.28,2.02-2.42,2.12
			c0.83,0.8,1,1.86,0.54,3.17l-1.02,2.88c-0.99,2.79-3.03,3.64-6.12,2.55l-4.9-1.74L189.04,64.49z M188.69,77.07l-1.8,5.06
			l1.09,0.39c0.72,0.26,1.21,0.02,1.47-0.71l1.03-2.88c0.19-0.53,0.08-0.95-0.33-1.27c-0.11-0.09-0.36-0.2-0.75-0.34L188.69,77.07z
			 M191.61,68.89l-1.8,5.06l0.71,0.25c0.4,0.14,0.66,0.21,0.79,0.22c0.52,0,0.88-0.26,1.06-0.79l1.02-2.87
			c0.26-0.74,0.03-1.23-0.69-1.49L191.61,68.89z"/>
		<path class="st0" d="M205.99,90.77c-1.54,2.54-3.75,2.94-6.64,1.2c-2.88-1.74-3.55-3.88-2.01-6.43l8.54-14.12l3.34,2.02
			l-8.54,14.12c-0.4,0.66-0.27,1.19,0.38,1.59c0.66,0.4,1.19,0.27,1.59-0.39l8.54-14.12l3.34,2.02L205.99,90.77z"/>
		<path class="st0" d="M221.32,81.71l3.76,3.47c2.3,2.13,2.45,4.29,0.44,6.47l-2.06,2.24c-1.26,1.37-2.71,1.69-4.34,0.94l-3.67,9.53
			l-3.13-2.88l4.05-8.34L216.22,93l-6.02,6.53l-2.87-2.64L221.32,81.71z M221.96,86.77l-3.64,3.95l0.34,0.32
			c0.31,0.29,0.52,0.46,0.64,0.51c0.48,0.21,0.91,0.1,1.29-0.31l2.06-2.24c0.53-0.57,0.51-1.12-0.05-1.64L221.96,86.77z"/>
		<path class="st0" d="M229.84,103.54l2.89,3.92l-6.31,4.64c-2.39,1.76-4.59,1.28-6.59-1.43c-2-2.71-1.79-4.95,0.6-6.71l9.96-7.33
			c2.39-1.76,4.58-1.28,6.58,1.43c2,2.72,1.8,4.95-0.58,6.71l-2.36,1.74l-2.31-3.14l2.36-1.74c0.62-0.46,0.71-1,0.26-1.62
			l-0.01-0.02c-0.45-0.61-0.99-0.68-1.62-0.22l-9.96,7.33c-0.62,0.46-0.71,1-0.25,1.61c0.46,0.62,1,0.71,1.62,0.25l3.65-2.69
			l-0.58-0.78L229.84,103.54z"/>
		<path class="st0" d="M243.91,109.41l3.93,8.3l-2.97,1.41l-2.26-4.77l-4.86,2.3l1.94,4.11l-2.99,1.41l-1.94-4.11l-4.86,2.3
			l2.26,4.77l-2.97,1.41l-3.93-8.3L243.91,109.41z"/>
		<path class="st0" d="M250.51,125.12l1.26,4.96c0.77,3.04-0.29,4.93-3.17,5.66l-2.95,0.75c-1.81,0.46-3.19-0.07-4.15-1.58
			l-8.28,5.98l-1.05-4.12l7.95-4.77l-0.05-0.2l-8.6,2.19l-0.96-3.78L250.51,125.12z M248.28,129.71l-5.21,1.32l0.11,0.45
			c0.1,0.41,0.19,0.67,0.26,0.78c0.29,0.43,0.7,0.58,1.25,0.44l2.95-0.75c0.76-0.19,1.04-0.66,0.85-1.4L248.28,129.71z"/>
	</g>
</g>
<g>
	<g>
		<path class="st0" d="M93.1,207.83c-1.53,1.12-2.91,1.01-4.13-0.33c-0.25,0.22,0.15,1.05,1.19,2.48l-1.47,1.08
			c-0.86-1.18-1.35-2.06-1.48-2.65c-0.16-0.76,0.14-1.43,0.91-2.02c-1.08-1.69-0.81-3.12,0.79-4.29l7.47-5.47
			c1.71-1.25,3.26-0.92,4.66,0.98c1.4,1.91,1.24,3.49-0.47,4.74L93.1,207.83z M99.12,200.37c0.54-0.4,0.61-0.89,0.19-1.47
			l-0.01-0.01c-0.42-0.57-0.9-0.66-1.45-0.25l-7.47,5.47c-0.55,0.41-0.62,0.9-0.2,1.47c0.43,0.58,0.92,0.67,1.47,0.27L99.12,200.37z
			"/>
		<path class="st0" d="M104.06,218.95c-1.47,1.53-3.06,1.47-4.77-0.16c-1.71-1.64-1.82-3.22-0.35-4.75l8.45-8.81l1.78,1.71
			l-8.45,8.81c-0.47,0.49-0.45,0.98,0.07,1.48c0.52,0.5,1.02,0.5,1.49,0.01l8.45-8.8l1.78,1.71L104.06,218.95z"/>
		<path class="st0" d="M117.61,214.19l5.31,3.59l-1.2,1.78l-3.26-2.21l-2.43,3.59l2.8,1.9l-1.21,1.79l-2.81-1.9l-2.43,3.59
			l3.26,2.21l-1.21,1.79l-5.31-3.59L117.61,214.19z"/>
		<path class="st0" d="M128.32,220.79l3.28,1.48c2,0.9,2.57,2.32,1.69,4.26l-0.93,2.07c-0.55,1.22-1.5,1.75-2.86,1.61l-0.36,7.56
			l-2.47-1.11l0.7-6.99l-0.3-0.09l-2.72,6.04l-2.25-1.01L128.32,220.79z M129.69,223.76l-1.78,3.96l0.52,0.23
			c0.31,0.14,0.54,0.22,0.67,0.24c0.47,0.04,0.81-0.16,1.01-0.61l0.93-2.07c0.28-0.63,0.1-1.09-0.55-1.39L129.69,223.76z"/>
		<path class="st0" d="M140.82,225.75l6.21,1.59l-0.53,2.08l-3.81-0.98l-1.08,4.2l3.28,0.84l-0.54,2.1l-3.28-0.84l-1.08,4.19
			l3.81,0.98l-0.54,2.09l-6.21-1.59L140.82,225.75z M144.01,225.93l-1.33-0.34l1.75-1.83l1.88,0.48L144.01,225.93z"/>
		<path class="st0" d="M159.55,228.92l-0.19,2.14l-2.3-0.2l-1.15,12.94l-2.46-0.22l1.15-12.94l-2.3-0.2l0.19-2.14L159.55,228.92z"/>
		<path class="st0" d="M173.13,238.12l1.23,5.29l-2.49,0.2l-0.73-3.16l-2.51,0.2l-0.23,3.24l-2.48,0.2l0.37-5.4l0.96-9.89l3.38-0.27
			L173.13,238.12z M170.64,238.32l-1.44-6.21l-0.44,6.36L170.64,238.32z"/>
		<path class="st0" d="M178.85,227.29l3.48-0.91c2.12-0.55,3.45,0.2,3.99,2.25l0.57,2.2c0.34,1.29-0.07,2.3-1.22,3.04l4.46,6.12
			l-2.62,0.68l-3.84-5.88l-0.29,0.12l1.67,6.4l-2.39,0.62L178.85,227.29z M181.78,228.74l1.09,4.2l0.55-0.14
			c0.33-0.09,0.55-0.17,0.67-0.24c0.39-0.27,0.53-0.63,0.41-1.11l-0.57-2.2c-0.17-0.67-0.61-0.91-1.3-0.73L181.78,228.74z"/>
		<path class="st0" d="M202.71,231.74c0.88,1.93,0.24,3.39-1.92,4.37c-2.15,0.98-3.67,0.5-4.54-1.43l-3.83-8.43
			c-0.88-1.93-0.24-3.38,1.91-4.36c2.16-0.98,3.67-0.51,4.55,1.42L202.71,231.74z M196.63,224.33c-0.28-0.62-0.75-0.78-1.4-0.49
			l-0.02,0.01c-0.65,0.29-0.83,0.75-0.55,1.37l3.83,8.43c0.28,0.62,0.75,0.78,1.4,0.49c0.66-0.3,0.84-0.76,0.56-1.38L196.63,224.33z
			"/>
		<path class="st0" d="M221.57,216.32l-4.92-9.57l1.82-1.67l10.27,11.12l-1.74,1.6l-5.76-6.24l4.21,7.67l-1.23,1.14l-7.36-4.77
			l5.76,6.24l-1.76,1.62l-10.27-11.12l1.81-1.68L221.57,216.32z"/>
		<path class="st0" d="M223.62,198.74l4.39,1.21l-2.5-3.8l1.47-2.01l4.44,6.76l7.79,2.16l-1.47,2.01l-4.38-1.22l2.5,3.81l-1.46,2.01
			l-4.44-6.76l-7.79-2.16L223.62,198.74z"/>
	</g>
</g>
<g>
	<g>
		<g>
			<path class="st0" d="M216.53,134.9l-0.03-0.55c-0.1-2.91-0.61-5.8-1.49-8.55c-0.87-2.75-2.12-5.35-3.62-7.76
				c-1.5-2.4-3.25-4.61-5.17-6.62c-3.85-4.01-8.32-7.28-13.11-9.84c-2.39-1.29-4.86-2.41-7.38-3.38c-2.53-0.96-5.1-1.76-7.72-2.41
				c-5.22-1.32-10.62-1.93-16.01-1.85c-2.7,0.04-5.38,0.3-8.03,0.71c-2.65,0.42-5.27,0.98-7.84,1.73c-5.13,1.5-10.09,3.59-14.7,6.3
				c-2.3,1.36-4.52,2.87-6.62,4.54c-2.1,1.66-4.07,3.52-5.86,5.53c-3.58,4.03-6.46,8.81-7.93,14.11c-0.74,2.64-1.12,5.39-1.12,8.13
				c0,0.81,0.12,1.64,0.4,2.45c0.27,0.8,0.71,1.61,1.38,2.29c0.67,0.68,1.63,1.22,2.64,1.36c0.25,0.02,0.5,0.05,0.75,0.04
				c0.24-0.02,0.49-0.02,0.72-0.06l0.34-0.07c0.12-0.02,0.24-0.05,0.3-0.07l0.47-0.12c2.5-0.61,4.97-1.29,7.49-1.79
				c1.26-0.27,2.51-0.56,3.77-0.8l3.79-0.67c0.63-0.11,1.26-0.23,1.9-0.33l1.91-0.27c1.27-0.18,2.54-0.37,3.81-0.54l3.83-0.42
				c0.64-0.06,1.27-0.14,1.91-0.19l1.92-0.14c1.28-0.09,2.56-0.19,3.84-0.26l3.84-0.14c0.64-0.02,1.28-0.06,1.92-0.06l1.92-0.01
				c1.28,0,2.56-0.02,3.84,0.01l3.84,0.14c0.64,0.03,1.28,0.03,1.92,0.08l1.91,0.14c1.28,0.1,2.55,0.18,3.83,0.3l3.81,0.45
				c0.63,0.08,1.27,0.14,1.9,0.23l1.9,0.29c1.26,0.2,2.53,0.37,3.79,0.59l3.76,0.71c0.63,0.12,1.26,0.23,1.88,0.36l1.87,0.42
				l3.73,0.83l3.71,0.94l1.85,0.47l1.84,0.52l3.68,1.04c0.3,0.07,0.6,0.14,0.91,0.19c0.33,0.04,0.66,0.06,0.99,0.07
				c0.35-0.02,0.7-0.03,1.05-0.09c0.35-0.07,0.71-0.14,1.05-0.27c1.38-0.49,2.49-1.44,3.19-2.43c0.7-1,1.1-2.04,1.32-3.06
				c0.11-0.51,0.17-1.02,0.2-1.52l0.01-0.38C216.54,135.11,216.54,134.98,216.53,134.9z M205.74,135.15l-1.93-0.42
				c-0.65-0.13-1.3-0.24-1.95-0.36l-3.89-0.71c-1.3-0.21-2.61-0.39-3.91-0.58l-1.95-0.28c-0.65-0.09-1.31-0.15-1.96-0.23l-3.92-0.44
				c-1.31-0.13-2.62-0.22-3.93-0.34l-1.96-0.16c-0.65-0.06-1.31-0.07-1.97-0.11l-3.94-0.2c-1.31-0.05-2.63-0.07-3.94-0.11
				l-1.97-0.05c-0.66-0.01-1.31,0-1.97,0l-3.93,0.01l-3.93,0.12l-1.96,0.06c-0.65,0.02-1.31,0.08-1.96,0.11l-3.92,0.24
				c-1.3,0.11-2.61,0.24-3.91,0.37c-10.43,0.98-20.74,2.95-30.86,5.56l-0.48,0.12c-0.09,0.03-0.13,0.03-0.17,0.04l-0.13,0.03
				c-0.09,0.03-0.16,0.01-0.25,0.02c-0.08,0.01-0.15-0.02-0.22-0.01c-0.27-0.04-0.5-0.16-0.75-0.4c-0.24-0.24-0.45-0.59-0.59-1.01
				c-0.14-0.42-0.21-0.9-0.21-1.38c0.01-2.44,0.36-4.87,1.02-7.22c0.66-2.35,1.64-4.61,2.88-6.74c1.23-2.13,2.72-4.12,4.38-5.96
				c1.66-1.84,3.5-3.55,5.47-5.08c1.98-1.53,4.08-2.91,6.26-4.15c4.35-2.5,9.09-4.32,13.94-5.6c1.06-0.28,2.12-0.52,3.19-0.73
				c-0.41,0.97-0.33,2,0.32,2.63c0.92,0.9,2.62,0.67,3.79-0.52c0.86-0.87,1.2-2,0.97-2.91c2.18-0.25,4.38-0.38,6.56-0.35
				c2.36,0.03,4.72,0.22,7.06,0.55c-0.14,0.88,0.23,1.93,1.04,2.73c1.19,1.18,2.89,1.39,3.8,0.47c0.54-0.55,0.67-1.37,0.44-2.19
				c0.8,0.19,1.6,0.39,2.39,0.62c2.39,0.68,4.75,1.5,7.03,2.47c2.28,0.98,4.5,2.1,6.62,3.35c4.26,2.49,8.14,5.58,11.33,9.18
				c3.18,3.59,5.66,7.74,6.88,12.18c0.61,2.21,0.92,4.49,0.91,6.76l0.01,0.43c0,0.08,0,0.12-0.01,0.15l-0.01,0.11
				c-0.01,0.14-0.04,0.28-0.07,0.4c-0.04,0.14-0.09,0.26-0.13,0.35L205.74,135.15z M209.6,136l-0.08-0.02
				C209.64,135.97,209.7,136.01,209.6,136z"/>
			<path class="st0" d="M211.35,179.64c-0.04-0.2-0.12-0.44-0.19-0.65c-0.08-0.23-0.19-0.47-0.3-0.7c-0.26-0.48-0.6-0.97-1.07-1.37
				c-0.45-0.41-0.99-0.69-1.49-0.87c-0.13-0.05-0.25-0.09-0.37-0.12l-0.36-0.09l-0.18-0.04l-0.11-0.02l-0.21-0.03l-3.39-0.46
				l-1.7-0.23c-0.57-0.08-1.13-0.13-1.7-0.2c-2.27-0.25-4.53-0.53-6.8-0.73c-1.13-0.12-2.26-0.25-3.4-0.35l-3.4-0.31
				c-9.06-0.86-18.17-1.25-27.27-1.16c-4.55,0.02-9.1,0.22-13.65,0.48c-1.14,0.07-2.27,0.17-3.4,0.26c-1.13,0.1-2.27,0.16-3.4,0.29
				c-2.26,0.24-4.53,0.44-6.79,0.75l-3.39,0.43l-3.38,0.5c-2.26,0.31-4.5,0.73-6.74,1.09l-0.84,0.14l-0.42,0.07
				c-0.03,0-0.09,0.02-0.14,0.03l-0.16,0.04l-0.32,0.08c-0.22,0.06-0.45,0.17-0.67,0.27c-0.22,0.12-0.45,0.26-0.65,0.41
				c-0.41,0.33-0.78,0.74-1.01,1.17c-0.49,0.86-0.62,1.66-0.71,2.35c-0.08,0.69-0.08,1.31-0.09,1.89l-0.01,0.84
				c0,0.13,0,0.3,0.01,0.46l0.02,0.48c0.02,0.32,0.02,0.64,0.05,0.96l0.14,0.95c0.18,1.28,0.57,2.51,1.04,3.7
				c0.98,2.37,2.48,4.44,4.16,6.22c1.7,1.78,3.61,3.29,5.6,4.6c4,2.62,8.33,4.53,12.76,6.02c2.21,0.74,4.46,1.39,6.72,1.94
				c2.27,0.54,4.55,0.99,6.85,1.35c4.59,0.73,9.29,1.07,13.98,0.99c2.34-0.07,4.68-0.18,7.02-0.47l0.88-0.09l0.87-0.12
				c0.58-0.08,1.16-0.16,1.75-0.25c1.16-0.21,2.32-0.39,3.47-0.65c1.16-0.22,2.3-0.53,3.44-0.82c1.14-0.33,2.27-0.64,3.4-1.03
				c2.25-0.74,4.47-1.59,6.63-2.59c4.32-2,8.46-4.54,12.03-7.92c1.79-1.68,3.43-3.58,4.78-5.78c0.35-0.54,0.64-1.13,0.95-1.71
				c0.27-0.61,0.56-1.21,0.77-1.87c0.44-1.29,0.75-2.71,0.73-4.23c-0.02-0.53-0.02-1.1-0.05-1.74
				C211.59,181.18,211.54,180.48,211.35,179.64z M206.61,180.49c-0.01,0-0.02-0.01-0.05-0.02c-0.03-0.03-0.07-0.04-0.06-0.02
				c0,0.03,0.01,0.05,0.02,0.09c0,0.06,0.02,0.09,0.03,0.17c0.04,0.27,0.06,0.71,0.05,1.2l-0.06,1.65
				c-0.04,0.74-0.25,1.56-0.59,2.38c-0.15,0.41-0.39,0.82-0.59,1.23c-0.25,0.4-0.48,0.82-0.77,1.21c-0.54,0.8-1.2,1.57-1.87,2.31
				c-0.71,0.73-1.43,1.45-2.22,2.12c-3.14,2.7-6.79,4.95-10.64,6.8c-1.93,0.93-3.93,1.71-5.97,2.41c-1.01,0.36-2.05,0.66-3.09,0.97
				c-1.05,0.27-2.08,0.57-3.14,0.8c-4.21,1.01-8.54,1.55-12.89,1.78c-4.35,0.2-8.72,0.02-13.07-0.55c-2.17-0.28-4.34-0.64-6.49-1.09
				c-2.14-0.45-4.27-1-6.36-1.64c-4.18-1.27-8.23-2.94-11.87-5.17c-1.81-1.12-3.51-2.39-4.97-3.84c-1.46-1.45-2.7-3.08-3.5-4.88
				c-0.37-0.9-0.71-1.83-0.87-2.79l-0.13-0.72c-0.02-0.24-0.03-0.49-0.05-0.73l-0.03-0.37c-0.01-0.12-0.02-0.23-0.02-0.39
				l-0.02-0.85c-0.01-0.55-0.01-1.06,0.02-1.5c0.03-0.43,0.13-0.77,0.2-0.89c0.08-0.12,0.04-0.13,0.25-0.21
				c0.03-0.01,0.06-0.01,0.09-0.02l0.04-0.01c0.01-0.01,0.02-0.01,0.07-0.02l0.41-0.08l0.83-0.16c2.2-0.43,4.41-0.86,6.62-1.2
				l3.32-0.55l3.34-0.46c2.22-0.33,4.46-0.55,6.68-0.81c1.11-0.14,2.23-0.21,3.35-0.32c1.12-0.1,2.24-0.21,3.35-0.3
				c4.48-0.31,8.96-0.58,13.46-0.62c1.12-0.01,2.25-0.04,3.37-0.03l3.37,0.03l1.68,0.02l1.68,0.06l3.37,0.13
				c1.12,0.05,2.24,0.14,3.36,0.2c1.12,0.08,2.24,0.13,3.36,0.24l3.35,0.31c0.56,0.05,1.12,0.1,1.68,0.16l1.67,0.2l3.34,0.42
				c1.11,0.16,2.22,0.35,3.33,0.52c1.11,0.2,2.22,0.35,3.32,0.58l3.3,0.66c0.55,0.11,1.1,0.22,1.65,0.34l1.64,0.37l3.28,0.74
				l0.2,0.05l0.1,0.02l0.03,0.01c0.02,0.01,0.03,0.02,0.05,0.02c0.02,0,0.04,0.01,0.03,0.02
				C206.61,180.49,206.64,180.48,206.61,180.49z"/>
			<path class="st0" d="M183.05,105.43c-0.9,0.92-0.67,2.62,0.52,3.79c1.19,1.18,2.89,1.39,3.8,0.47c0.9-0.92,0.67-2.62-0.52-3.79
				C185.66,104.72,183.96,104.51,183.05,105.43z"/>
			<path class="st0" d="M137.75,105.92c-1.18,1.19-1.39,2.89-0.47,3.8c0.92,0.9,2.62,0.67,3.79-0.52c1.18-1.19,1.39-2.89,0.47-3.8
				C140.63,104.49,138.93,104.73,137.75,105.92z"/>
			<path class="st0" d="M162.41,104.52c-1.29,0.01-2.32,1.38-2.31,3.05c0.01,1.68,1.07,3.03,2.35,3.02
				c1.29-0.01,2.32-1.38,2.31-3.05C164.76,105.87,163.7,104.51,162.41,104.52z"/>
		</g>
		<path class="st0" d="M109.42,156.45c1.5,1.05,2.94,2.18,4.35,3.33c1.41,1.15,2.79,2.33,4.19,3.5l1.04,0.88l0.26,0.22l0.07,0.05
			c0.02,0.01,0.02,0.01,0.03,0.02l0.05,0.03l0.15,0.09l0.15,0.08c0.41,0.2,0.82,0.27,1.2,0.25c0.76-0.06,1.44-0.48,1.96-1.26
			l-0.22,0.32l1.13-2.03l1.15-2.02l2.29-4.04c0.04-0.07,0.08-0.14,0.13-0.2l0.11-0.15c0.72-0.95,1.63-1.83,2.73-2.49
			c1.09-0.67,2.37-1.13,3.7-1.28c1.33-0.16,2.7-0.01,3.96,0.42c1.26,0.42,2.4,1.11,3.34,1.94c0.01,0.01,0.03,0.02,0.04,0.04
			l0.16,0.16l8.31,8.3l-0.22-0.22c0.46,0.33,0.75,0.33,1.01,0.24c0.13-0.05,0.28-0.12,0.44-0.27c0.04-0.04,0.08-0.08,0.12-0.12
			c0.02-0.02,0.04-0.05,0.06-0.07l0.16-0.18l0.85-0.97l3.42-3.86l1.71-1.93l0.43-0.48l0.21-0.24l0.14-0.16l0.19-0.2
			c0.51-0.54,1.1-1.03,1.75-1.46c1.29-0.87,2.84-1.47,4.46-1.65c1.62-0.19,3.3,0.04,4.79,0.64c0.74,0.3,1.44,0.68,2.07,1.12
			c0.16,0.11,0.31,0.22,0.46,0.34l0.22,0.18l0.15,0.12l0.49,0.41l1.96,1.68l3.89,3.38l1.95,1.69l0.98,0.83l0.27,0.23
			c0.04,0.04,0.09,0.07,0.13,0.09c0.17,0.1,0.31,0.14,0.44,0.14c0.13,0.01,0.27-0.03,0.43-0.11c0.16-0.08,0.33-0.22,0.51-0.44
			c0.04-0.06,0.09-0.12,0.13-0.18l0.35-0.53l0.72-1.07l1.43-2.15l0.71-1.07l0.18-0.27l0.29-0.42c0.21-0.29,0.44-0.57,0.68-0.84
			c0.97-1.09,2.21-2.03,3.66-2.65c1.44-0.62,3.07-0.91,4.68-0.77c1.61,0.12,3.17,0.66,4.47,1.47c0.33,0.2,0.64,0.42,0.94,0.65
			l0.4,0.32l0.25,0.21l0.99,0.82l3.98,3.28l3.99,3.26l2,1.63l2.01,1.62c2.16,1.74,2.5,4.91,0.76,7.07c-1.74,2.16-4.91,2.5-7.07,0.76
			c-0.08-0.06-0.17-0.14-0.24-0.21l-1.9-1.74l-1.91-1.73l-3.83-3.46l-3.85-3.44l-0.96-0.86l-0.24-0.21l-0.07-0.06l-0.03-0.03
			c-0.04-0.04-0.08-0.07-0.11-0.09c-0.15-0.11-0.26-0.15-0.36-0.17c-0.11-0.03-0.22-0.02-0.36,0.03c-0.14,0.05-0.31,0.15-0.49,0.33
			c-0.04,0.05-0.09,0.1-0.14,0.15l-0.08,0.11l-0.18,0.26l-0.74,1.06l-1.47,2.12l-0.73,1.06l-0.37,0.54
			c-0.2,0.29-0.42,0.57-0.65,0.85c-0.92,1.1-2.11,2.07-3.51,2.73c-1.39,0.67-2.98,1-4.56,0.95c-1.59-0.05-3.14-0.52-4.47-1.26
			c-0.33-0.18-0.65-0.39-0.96-0.6c-0.16-0.11-0.3-0.22-0.44-0.33l-0.3-0.24l-1.01-0.81l-2.03-1.59l-4.07-3.17l-2.02-1.6l-0.5-0.4
			l-0.06-0.05l-0.03-0.03l-0.01-0.01l-0.03-0.02c-0.02-0.02-0.04-0.02-0.06-0.04c-0.08-0.05-0.14-0.07-0.2-0.09
			c-0.11-0.04-0.18-0.05-0.27-0.05c-0.08,0.01-0.19,0.02-0.33,0.1c-0.07,0.04-0.15,0.09-0.24,0.17l-0.03,0.03
			c-0.01,0.01-0.01,0-0.02,0.02l-0.06,0.06l-0.22,0.23l-0.44,0.47l-1.77,1.88l-3.54,3.75l-0.89,0.93l-0.28,0.29
			c-0.13,0.13-0.26,0.26-0.39,0.38c-0.27,0.25-0.56,0.49-0.86,0.72c-1.2,0.91-2.66,1.57-4.21,1.85c-0.78,0.14-1.57,0.19-2.36,0.14
			c-0.79-0.05-1.57-0.2-2.31-0.44c-1.48-0.47-2.8-1.3-3.84-2.29l-0.14-0.13c-0.03-0.03-0.06-0.06-0.08-0.09l-7.8-8.77l0.2,0.2
			c-0.2-0.22-0.41-0.37-0.61-0.47c-0.2-0.1-0.4-0.15-0.62-0.15c-0.43-0.01-0.95,0.18-1.43,0.72l0.24-0.35l-2.55,3.88l-1.28,1.94
			l-1.29,1.93l-0.15,0.22c-0.02,0.03-0.05,0.07-0.07,0.1c-0.87,1.04-1.99,1.95-3.3,2.54c-1.3,0.6-2.79,0.85-4.23,0.72
			c-1.44-0.13-2.82-0.65-3.95-1.42c-0.14-0.1-0.28-0.2-0.41-0.3c-0.13-0.11-0.26-0.2-0.4-0.33l-0.21-0.19l-0.1-0.09l-0.06-0.06
			l-0.24-0.25l-0.95-1c-1.26-1.34-2.53-2.66-3.78-4.01c-1.24-1.35-2.47-2.72-3.62-4.17c-0.65-0.82-0.51-2.01,0.3-2.66
			C107.83,155.98,108.75,155.98,109.42,156.45L109.42,156.45z"/>
		<path class="st0" d="M114.65,143.23l0.44-0.11l0.4-0.09l0.78-0.16c0.51-0.11,1.02-0.2,1.53-0.3c1.01-0.19,2.02-0.36,3.03-0.51
			c2.01-0.31,4.02-0.58,6.03-0.8c4.01-0.46,8.02-0.75,12.03-0.93c4.01-0.18,8.01-0.25,12.01-0.2c4,0.05,7.99,0.21,11.97,0.45
			c7.96,0.53,15.87,1.4,23.71,2.68c7.84,1.26,15.62,2.87,23.29,4.81c0.83,0.21,1.33,1.05,1.12,1.88c-0.2,0.8-0.99,1.29-1.79,1.15
			l-0.01,0c-7.69-1.46-15.44-2.58-23.21-3.36c-7.77-0.8-15.56-1.18-23.33-1.24c-3.89,0-7.77,0.07-11.65,0.26
			c-3.87,0.18-7.74,0.48-11.58,0.88c-3.84,0.4-7.67,0.92-11.45,1.58c-1.89,0.32-3.77,0.69-5.63,1.09c-0.93,0.2-1.85,0.42-2.76,0.64
			c-0.45,0.11-0.91,0.23-1.35,0.35l-0.66,0.18l-0.32,0.09c-0.09,0.03-0.22,0.06-0.27,0.08c-2.28,0.8-4.78-0.4-5.58-2.67
			c-0.8-2.28,0.4-4.78,2.67-5.58c0.14-0.05,0.29-0.09,0.43-0.13L114.65,143.23z"/>
	</g>
	<g>
		<g>
			<path class="st0" d="M73.5,164.93C73.5,164.93,73.5,164.93,73.5,164.93c-0.45-1.13,0.16-2.44,1.36-2.9
				c5.61-2.16,11.27-4.1,16.99-5.83c1.23-0.37,2.5,0.29,2.84,1.46l0,0c0.34,1.17-0.36,2.41-1.56,2.77
				c-5.61,1.7-11.18,3.61-16.68,5.73C75.27,166.61,73.96,166.07,73.5,164.93z"/>
			<path class="st0" d="M230.82,157.66L230.82,157.66c0.34-1.17,1.61-1.83,2.84-1.46c5.72,1.73,11.38,3.68,16.99,5.83
				c1.2,0.46,1.81,1.77,1.36,2.9l0,0c-0.45,1.13-1.77,1.68-2.95,1.22c-5.51-2.12-11.07-4.03-16.68-5.73
				C231.18,160.07,230.48,158.83,230.82,157.66z"/>
		</g>
	</g>
</g>
</svg>
